<?xml version="1.0" encoding="utf-8"?>
<!-- Generator: Adobe Illustrator 24.2.0, SVG Export Plug-In . SVG Version: 6.00 Build 0)  -->
<svg version="1.1" id="Capa_1" xmlns="http://www.w3.org/2000/svg" xmlns:xlink="http://www.w3.org/1999/xlink" x="0px" y="0px"
	 viewBox="0 0 383.4 383.2" style="enable-background:new 0 0 383.4 383.2;" xml:space="preserve">
<style type="text/css">
	.st0{fill:#FF6700;}
</style>
<g>
	<path class="st0" d="M203.6,383.2c-8,0-16,0-24,0c-0.8-0.2-1.7-0.5-2.5-0.6c-36.4-2.8-69.6-14.8-98.8-36.7
		C37.5,315.5,12.2,275.2,3,225c-1.3-7.1-2-14.3-3-21.4c0-8,0-16,0-24c0.2-1.2,0.6-2.4,0.7-3.6C4,135.9,18,99.8,44.3,69.4
		C94.3,11.7,157.7-10.5,232.7,4.6c85.2,17.1,149.1,95.1,150.6,181.9c0.7,36.8-7.7,71.3-26.9,102.8c-30.3,49.7-74.1,80.1-131.4,91
		C218,381.6,210.8,382.2,203.6,383.2z M168.2,99.9c0-0.3-0.1-0.7-0.1-1c-18.8,1.5-37.6,2.3-56.2,4.6c-12.9,1.6-25.6,5-38.4,7.9
		c-6.9,1.6-11.8,5.9-13.6,13c-4.1,15.4,8.2,27.1,24.1,22.8c50.9-13.9,102.1-12.8,153.4-2.5c23.9,4.8,46.8,12.8,68.1,25
		c11.4,6.5,24,0.1,26.5-12.8c1.5-8.1-2-16.1-10.1-20.2c-11.5-5.8-23.1-11.8-35.2-16.3C248.5,106.2,208.8,100.6,168.2,99.9z
		 M161.2,165.9c-25.9-0.1-51.2,3.4-76.2,10.2c-9.9,2.7-14.8,10.8-12.3,20.1c2.5,8.9,10.6,12.8,20.5,10c14.3-4.1,28.9-6.8,43.7-8
		c38.5-3.4,76,1.2,112.1,15c11.9,4.6,23.2,10.9,34.8,16.4c9.5,4.5,19.4-0.8,21.2-11.1c1.3-7.5-1.9-13.6-9.6-18.1
		C253.9,176.3,208.8,166.3,161.2,165.9z M160.3,228.6c-22.1,0.1-46.1,3.2-69.8,8.5c-7.8,1.8-12,8.3-10.2,15.6
		c1.7,7.2,8,10.8,15.9,8.9c21-5,42.4-7.7,64-8c30.2-0.4,59.3,4.7,86.6,18.2c6.1,3,12.2,6.4,18.4,9.1c6.9,3,13.8-0.9,15.6-8.1
		c1.3-5.6-0.9-11.1-6.4-14.8c-3.6-2.4-7.5-4.5-11.3-6.5C231.6,235.1,197.7,228.6,160.3,228.6z"/>
</g>
</svg>
