<?xml version="1.0" encoding="utf-8"?>
<!-- Generator: Adobe Illustrator 24.2.0, SVG Export Plug-In . SVG Version: 6.00 Build 0)  -->
<svg version="1.1" id="Capa_1" xmlns="http://www.w3.org/2000/svg" xmlns:xlink="http://www.w3.org/1999/xlink" x="0px" y="0px"
	 viewBox="0 0 383.35 383.22" style="enable-background:new 0 0 383.35 383.22;" xml:space="preserve" fill="currentColor">
<g>
	<path d="M203.65,383.22c-7.99,0-15.97,0-23.96,0c-0.83-0.2-1.66-0.53-2.5-0.59c-36.45-2.79-69.56-14.83-98.84-36.66
		c-40.85-30.44-66.12-70.8-75.37-121c-1.3-7.08-2-14.27-2.98-21.41c0-7.99,0-15.97,0-23.96c0.23-1.21,0.56-2.42,0.66-3.64
		C4,135.87,17.96,99.77,44.27,69.44c50.06-57.72,113.39-79.9,188.4-64.88c85.22,17.07,149.06,95.05,150.64,181.93
		c0.67,36.78-7.7,71.3-26.88,102.76c-30.27,49.66-74.13,80.12-131.37,91C217.99,381.59,210.79,382.24,203.65,383.22z M168.23,99.95
		c-0.03-0.33-0.06-0.66-0.09-0.98c-18.75,1.47-37.57,2.33-56.22,4.62c-12.92,1.59-25.63,5.03-38.38,7.93
		c-6.95,1.58-11.75,5.93-13.61,12.98c-4.06,15.38,8.23,27.09,24.05,22.78c50.92-13.87,102.09-12.76,153.36-2.46
		c23.94,4.81,46.77,12.8,68.08,25.02c11.36,6.52,24.04,0.11,26.49-12.79c1.55-8.15-1.97-16.1-10.12-20.23
		c-11.53-5.84-23.12-11.76-35.2-16.3C248.49,106.19,208.76,100.64,168.23,99.95z M161.18,165.86c-25.86-0.13-51.22,3.4-76.15,10.17
		c-9.91,2.7-14.85,10.84-12.26,20.15c2.47,8.89,10.6,12.84,20.53,9.98c14.29-4.12,28.86-6.75,43.68-8.04
		c38.49-3.35,75.98,1.23,112.08,15c11.94,4.55,23.17,10.93,34.77,16.39c9.47,4.46,19.38-0.76,21.22-11.08
		c1.34-7.5-1.85-13.63-9.63-18.12C253.88,176.33,208.75,166.31,161.18,165.86z M160.32,228.58c-22.15,0.12-46.09,3.17-69.75,8.51
		c-7.81,1.76-11.96,8.3-10.23,15.58c1.72,7.25,8.02,10.77,15.93,8.87c21.05-5.05,42.4-7.69,64.04-8.01
		c30.23-0.44,59.28,4.71,86.59,18.17c6.14,3.03,12.15,6.35,18.42,9.07c6.86,2.98,13.83-0.85,15.57-8.09
		c1.33-5.56-0.89-11.1-6.4-14.78c-3.61-2.41-7.47-4.49-11.34-6.49C231.57,235.12,197.74,228.59,160.32,228.58z"/>
</g>
</svg>
