<?xml version="1.0" encoding="utf-8"?>
<!-- Generator: Adobe Illustrator 24.2.0, SVG Export Plug-In . SVG Version: 6.00 Build 0)  -->
<svg version="1.1" id="Capa_1" xmlns="http://www.w3.org/2000/svg" xmlns:xlink="http://www.w3.org/1999/xlink" x="0px" y="0px"
	 viewBox="0 0 344.14 344.2" style="enable-background:new 0 0 344.14 344.2;" xml:space="preserve" fill="currentColor">
<path d="M171.86,344.16c-33.94,0-67.87,0.1-101.81-0.03c-31.64-0.12-59.01-20.85-67.29-51.18c-1.69-6.18-2.6-12.77-2.62-19.17
	c-0.18-67.76-0.16-135.51-0.1-203.27C0.08,35.65,24.46,6.8,58.75,0.96c4.16-0.71,8.44-0.91,12.67-0.91
	c67.12-0.05,134.25-0.06,201.37-0.03c35.49,0.01,63.7,23.38,70.27,58.27c0.78,4.14,1.02,8.43,1.02,12.66
	c0.06,67.38,0.07,134.77,0.03,202.15c-0.02,35.31-23.84,63.84-58.54,70.07c-4.27,0.77-8.69,0.95-13.04,0.96
	C238.98,344.2,205.42,344.16,171.86,344.16z M146.09,189.25c-27.61,34.43-55.01,68.6-82.97,103.47c7.6,0,14.08-0.14,20.55,0.07
	c2.8,0.09,4.56-0.83,6.29-3.01c13.34-16.81,26.8-33.52,40.23-50.26c9.28-11.57,18.57-23.14,28.04-34.94
	c0.9,1.03,1.64,1.84,2.32,2.68c22.02,27.44,44.06,54.86,66,82.36c1.82,2.28,3.66,3.17,6.57,3.15c23.58-0.11,47.16-0.06,70.74-0.07
	c1.27,0,2.55-0.1,4.59-0.19c-37.12-46.28-73.7-91.88-110.38-137.61c27.6-34.42,55-68.58,82.98-103.46c-7.62,0-14.1,0.15-20.56-0.07
	c-2.8-0.09-4.56,0.84-6.28,3.01c-12.4,15.64-24.92,31.19-37.41,46.76c-10.22,12.74-20.44,25.47-30.87,38.46
	c-0.96-1.15-1.76-2.06-2.52-3.01c-22.02-27.44-44.05-54.87-66.02-82.35c-1.5-1.88-2.99-2.88-5.58-2.87
	c-24.08,0.11-48.16,0.06-72.24,0.08c-1.03,0-2.05,0.18-3.72,0.33C72.78,97.85,109.29,143.37,146.09,189.25z"/>
<path d="M75.32,70.45c10.23,0,19.46-0.11,28.68,0.12c1.38,0.03,3.05,1.42,4.02,2.64c31.2,38.77,62.33,77.6,93.46,116.41
	c21.54,26.85,43.08,53.7,64.62,80.55c0.75,0.94,1.44,1.93,2.64,3.52c-10.25,0-19.79,0.09-29.32-0.12c-1.13-0.02-2.43-1.51-3.3-2.6
	c-30.24-37.62-60.43-75.28-90.64-112.93c-22.4-27.92-44.8-55.84-67.19-83.77C77.46,73.26,76.67,72.19,75.32,70.45z"/>
</svg>
