<?xml version="1.0" encoding="utf-8"?>
<!-- Generator: Adobe Illustrator 24.2.0, SVG Export Plug-In . SVG Version: 6.00 Build 0)  -->
<svg version="1.1" id="Capa_1" xmlns="http://www.w3.org/2000/svg" xmlns:xlink="http://www.w3.org/1999/xlink" x="0px" y="0px"
	 viewBox="0 0 344.1 344.2" style="enable-background:new 0 0 344.1 344.2;" xml:space="preserve">
<style type="text/css">
	.st0{fill:#FF6700;}
</style>
<path class="st0" d="M171.9,344.2c-33.9,0-67.9,0.1-101.8,0C38.4,344,11,323.3,2.8,293c-1.7-6.2-2.6-12.8-2.6-19.2
	C0,206,0,138.3,0,70.5C0.1,35.6,24.5,6.8,58.8,1C62.9,0.2,67.2,0,71.4,0C138.5,0,205.7,0,272.8,0c35.5,0,63.7,23.4,70.3,58.3
	c0.8,4.1,1,8.4,1,12.7c0.1,67.4,0.1,134.8,0,202.1c0,35.3-23.8,63.8-58.5,70.1c-4.3,0.8-8.7,1-13,1
	C239,344.2,205.4,344.2,171.9,344.2z M146.1,189.3c-27.6,34.4-55,68.6-83,103.5c7.6,0,14.1-0.1,20.6,0.1c2.8,0.1,4.6-0.8,6.3-3
	c13.3-16.8,26.8-33.5,40.2-50.3c9.3-11.6,18.6-23.1,28-34.9c0.9,1,1.6,1.8,2.3,2.7c22,27.4,44.1,54.9,66,82.4
	c1.8,2.3,3.7,3.2,6.6,3.1c23.6-0.1,47.2-0.1,70.7-0.1c1.3,0,2.5-0.1,4.6-0.2c-37.1-46.3-73.7-91.9-110.4-137.6
	c27.6-34.4,55-68.6,83-103.5c-7.6,0-14.1,0.2-20.6-0.1c-2.8-0.1-4.6,0.8-6.3,3c-12.4,15.6-24.9,31.2-37.4,46.8
	c-10.2,12.7-20.4,25.5-30.9,38.5c-1-1.1-1.8-2.1-2.5-3c-22-27.4-44.1-54.9-66-82.4c-1.5-1.9-3-2.9-5.6-2.9
	c-24.1,0.1-48.2,0.1-72.2,0.1c-1,0-2,0.2-3.7,0.3C72.8,97.8,109.3,143.4,146.1,189.3z"/>
<path class="st0" d="M75.3,70.4c10.2,0,19.5-0.1,28.7,0.1c1.4,0,3.1,1.4,4,2.6c31.2,38.8,62.3,77.6,93.5,116.4
	c21.5,26.9,43.1,53.7,64.6,80.5c0.8,0.9,1.4,1.9,2.6,3.5c-10.3,0-19.8,0.1-29.3-0.1c-1.1,0-2.4-1.5-3.3-2.6
	c-30.2-37.6-60.4-75.3-90.6-112.9c-22.4-27.9-44.8-55.8-67.2-83.8C77.5,73.3,76.7,72.2,75.3,70.4z"/>
</svg>
