<?xml version="1.0" encoding="utf-8"?>
<!-- Generator: Adobe Illustrator 24.2.0, SVG Export Plug-In . SVG Version: 6.00 Build 0)  -->
<svg version="1.1" id="Capa_1" xmlns="http://www.w3.org/2000/svg" xmlns:xlink="http://www.w3.org/1999/xlink" x="0px" y="0px"
	 viewBox="0 0 512 512" style="enable-background:new 0 0 512 512;" xml:space="preserve">
<style type="text/css">
	.st0{fill:#FEFDFD;}
</style>
<path d="M511.9,195.8c0,39.3,0,78.6,0,118c-2.2-0.6-1.9,1.1-2,2.3c-0.6,20-2.9,39.9-7.1,59.5c-4.1,19-14.4,33.5-31.4,43.4
	c-10.8,6.3-22.7,8.2-34.6,9.6c-15.5,1.9-31.1,3.3-46.7,4c-16.2,0.7-32.4,1.4-48.6,2c-16.6,0.7-33.2,0.8-49.8,0.9
	c-28.2,0.2-56.5,1.2-84.7-0.7c-14.2-1-28.5,0.1-42.8-0.8c-15-1-30-1.3-45.1-2.1c-17.9-0.9-35.7-2.5-53.4-5.1
	c-27.4-4.1-46.4-18.5-54.8-45.2c-6.5-20.4-7.7-41.8-9-63c-0.2-3.5,0-3.5-2-4.8c0-38.7,0-77.3,0-116c2.2,0.6,2-1.1,2-2.3
	c-0.1-8.6,1.1-17.1,2-25.6c1.1-11.4,2.5-22.8,5.2-33.9c5.7-23.4,19.8-39.9,42.7-48c11.9-4.2,24.7-4.9,37.2-6.1
	c13.8-1.3,27.6-2.6,41.4-3c19.9-0.6,39.7-1.9,59.6-1.9c46.2,0,92.5-1.5,138.7,0.8c11.1,0.5,22.2-0.1,33.3,0.8
	c13.2,1,26.4,1.4,39.6,2.1c16.4,0.9,32.8,2.1,48.9,5.2c23.9,4.7,41.1,18.1,49.4,41.3c7.3,20.5,8.5,42.2,10.1,63.8
	C510.1,192.6,508.3,195.4,511.9,195.8z M205.2,332.7c44.7-25.7,88.6-51,133.1-76.7c-44.7-25.8-88.7-51.1-133.1-76.6
	C205.2,230.7,205.2,281.2,205.2,332.7z"/>
<path class="st0" d="M205.2,332.9c0-51.5,0-102,0-153.3c44.4,25.6,88.3,50.9,133.1,76.6C293.7,281.9,249.9,307.2,205.2,332.9z"/>
</svg>
