<svg id="Capa_1" data-name="Capa 1" xmlns="http://www.w3.org/2000/svg" viewBox="0 0 360.63 360.65"><defs><style>.cls-1,.cls-3,.cls-4,.cls-8,.cls-9{fill:#700000;}.cls-2{fill:#fff;}.cls-3{font-size:47.19px;}.cls-3,.cls-4,.cls-8{font-family:PervitinaDex, Pervitina Dex;}.cls-4{font-size:48.72px;}.cls-5{letter-spacing:-0.02em;}.cls-6{letter-spacing:-0.01em;}.cls-7{letter-spacing:-0.01em;}.cls-8{font-size:15px;}.cls-9{stroke:#700000;stroke-miterlimit:10;}</style></defs><circle class="cls-1" cx="180.32" cy="180.32" r="163.39"/><circle class="cls-2" cx="180.32" cy="180.32" r="146.71"/><text class="cls-3" transform="translate(40.44 178.97) rotate(-86.92) scale(1.02 1)">.</text><text class="cls-3" transform="translate(41.05 167.09) rotate(-82.07) scale(1.02 1)">.</text><text class="cls-3" transform="translate(42.66 155.32) rotate(-77.18) scale(1.02 1)">.</text><text class="cls-3" transform="translate(45.26 143.73) rotate(-72.28) scale(1.02 1)">.</text><text class="cls-3" transform="translate(48.85 132.39) rotate(-67.37) scale(1.02 1)">.</text><text class="cls-3" transform="matrix(0.47, -0.9, 0.89, 0.46, 53.4, 121.41)">.</text><text class="cls-3" transform="translate(58.86 110.87) rotate(-57.61) scale(1.02 1)">.</text><text class="cls-3" transform="translate(65.22 100.79) rotate(-52.74) scale(1.02 1)">.</text><text class="cls-3" transform="matrix(0.68, -0.75, 0.74, 0.67, 72.38, 91.34)">.</text><text class="cls-3" transform="translate(80.33 82.49) rotate(-43.06) scale(1.02 1)">.</text><text class="cls-3" transform="translate(89.02 74.34) rotate(-38.2) scale(1.02 1)">.</text><text class="cls-3" transform="translate(98.33 66.97) rotate(-33.35) scale(1.02 1)">.</text><text class="cls-3" transform="matrix(0.89, -0.48, 0.48, 0.88, 108.25, 60.41)">.</text><text class="cls-3" transform="translate(118.67 54.72) rotate(-23.6) scale(1.02 1)">.</text><text class="cls-3" transform="translate(129.54 49.94) rotate(-18.7) scale(1.02 1)">.</text><text class="cls-3" transform="translate(140.81 46.09) rotate(-13.78) scale(1.02 1)">.</text><text class="cls-3" transform="translate(152.33 43.24) rotate(-8.89) scale(1.02 1)">.</text><text class="cls-3" transform="translate(164.07 41.37) rotate(-4.03) scale(1.02 1)">.</text><text class="cls-3" transform="translate(175.92 40.49) rotate(0.93) scale(1.02 1)">.</text><text class="cls-3" transform="translate(187.82 40.64) rotate(5.58) scale(1.02 1)">.</text><text class="cls-3" transform="matrix(1, 0.18, -0.18, 0.98, 199.65, 41.76)">.</text><text class="cls-3" transform="translate(211.34 43.89) rotate(15.35) scale(1.02 1)">.</text><text class="cls-3" transform="translate(222.82 47.01) rotate(20.26) scale(1.02 1)">.</text><text class="cls-3" transform="matrix(0.92, 0.43, -0.43, 0.91, 233.97, 51.09)">.</text><text class="cls-3" transform="translate(244.75 56.13) rotate(30.05) scale(1.02 1)">.</text><text class="cls-3" transform="matrix(0.83, 0.58, -0.57, 0.82, 255.05, 62.05)">.</text><text class="cls-3" transform="matrix(0.78, 0.65, -0.64, 0.77, 264.82, 68.84)">.</text><text class="cls-3" transform="translate(273.97 76.41) rotate(44.61) scale(1.02 1)">.</text><text class="cls-3" transform="matrix(0.66, 0.77, -0.76, 0.65, 282.46, 84.75)">.</text><text class="cls-3" transform="translate(290.21 93.77) rotate(54.3) scale(1.02 1)">.</text><text class="cls-3" transform="translate(297.16 103.39) rotate(59.16) scale(1.02 1)">.</text><text class="cls-3" transform="translate(303.29 113.58) rotate(64.04) scale(1.02 1)">.</text><text class="cls-3" transform="matrix(0.37, 0.95, -0.93, 0.36, 308.51, 124.26)">.</text><text class="cls-3" transform="translate(312.81 135.33) rotate(73.84) scale(1.02 1)">.</text><text class="cls-3" transform="translate(316.15 146.74) rotate(78.75) scale(1.02 1)">.</text><text class="cls-3" transform="matrix(0.11, 1.01, -0.99, 0.11, 318.49, 158.39)">.</text><text class="cls-3" transform="translate(320.19 181.68) rotate(93.08) scale(1.02 1)">.</text><text class="cls-3" transform="translate(319.58 193.56) rotate(97.93) scale(1.02 1)">.</text><text class="cls-3" transform="translate(317.97 205.33) rotate(102.82) scale(1.02 1)">.</text><text class="cls-3" transform="translate(315.37 216.92) rotate(107.72) scale(1.02 1)">.</text><text class="cls-3" transform="translate(311.78 228.25) rotate(112.63) scale(1.02 1)">.</text><text class="cls-3" transform="matrix(-0.47, 0.9, -0.89, -0.46, 307.23, 239.24)">.</text><text class="cls-3" transform="translate(301.77 249.78) rotate(122.4) scale(1.02 1)">.</text><text class="cls-3" transform="translate(295.41 259.85) rotate(127.26) scale(1.02 1)">.</text><text class="cls-3" transform="matrix(-0.68, 0.75, -0.74, -0.67, 288.25, 269.31)">.</text><text class="cls-3" transform="translate(280.3 278.16) rotate(136.94) scale(1.02 1)">.</text><text class="cls-3" transform="translate(271.61 286.31) rotate(141.8) scale(1.02 1)">.</text><text class="cls-3" transform="matrix(-0.85, 0.56, -0.55, -0.84, 262.3, 293.68)">.</text><text class="cls-3" transform="matrix(-0.89, 0.48, -0.48, -0.88, 252.38, 300.24)">.</text><text class="cls-3" transform="matrix(-0.93, 0.41, -0.4, -0.92, 241.96, 305.93)">.</text><text class="cls-3" transform="translate(231.09 310.71) rotate(161.3) scale(1.02 1)">.</text><text class="cls-3" transform="translate(219.82 314.55) rotate(166.22) scale(1.02 1)">.</text><text class="cls-3" transform="translate(208.3 317.41) rotate(171.11) scale(1.02 1)">.</text><text class="cls-3" transform="translate(196.56 319.28) rotate(175.97) scale(1.02 1)">.</text><text class="cls-3" transform="translate(184.71 320.16) rotate(-179.07) scale(1.02 1)">.</text><text class="cls-3" transform="translate(172.81 320.01) rotate(-174.42) scale(1.02 1)">.</text><text class="cls-3" transform="matrix(-1, -0.18, 0.18, -0.98, 160.98, 318.89)">.</text><text class="cls-3" transform="translate(149.29 316.76) rotate(-164.65) scale(1.02 1)">.</text><text class="cls-3" transform="translate(137.81 313.64) rotate(-159.74) scale(1.02 1)">.</text><text class="cls-3" transform="translate(126.66 309.55) rotate(-154.84) scale(1.02 1)">.</text><text class="cls-3" transform="translate(115.88 304.52) rotate(-149.95) scale(1.02 1)">.</text><text class="cls-3" transform="matrix(-0.83, -0.58, 0.57, -0.82, 105.58, 298.6)">.</text><text class="cls-3" transform="matrix(-0.78, -0.65, 0.64, -0.77, 95.81, 291.81)">.</text><text class="cls-3" transform="translate(86.66 284.24) rotate(-135.39) scale(1.02 1)">.</text><text class="cls-3" transform="translate(78.17 275.9) rotate(-130.55) scale(1.02 1)">.</text><text class="cls-3" transform="matrix(-0.59, -0.83, 0.81, -0.58, 70.42, 266.88)">.</text><text class="cls-3" transform="translate(63.47 257.26) rotate(-120.84) scale(1.02 1)">.</text><text class="cls-3" transform="translate(57.34 247.06) rotate(-115.96) scale(1.02 1)">.</text><text class="cls-3" transform="translate(52.12 236.39) rotate(-111.06) scale(1.02 1)">.</text><text class="cls-3" transform="translate(47.82 225.32) rotate(-106.16) scale(1.02 1)">.</text><text class="cls-3" transform="translate(44.49 213.91) rotate(-101.25) scale(1.02 1)">.</text><text class="cls-3" transform="matrix(-0.11, -1.01, 0.99, -0.11, 42.14, 202.26)">.</text><text class="cls-4" transform="translate(46.17 198.85) scale(1.02 1)"><tspan class="cls-5">F</tspan><tspan x="31.28" y="0">uncio</tspan><tspan class="cls-6" x="166.91" y="0">n</tspan><tspan class="cls-7" x="197.8" y="0">a</tspan><tspan x="228.05" y="0">l</tspan></text><text class="cls-8" transform="matrix(0.8, 0.62, -0.61, 0.79, 85.9, 279.22)">M</text><text class="cls-8" transform="matrix(0.85, 0.55, -0.54, 0.84, 97.19, 287.84)">e</text><text class="cls-8" transform="matrix(0.89, 0.5, -0.49, 0.87, 105.95, 293.43)">t</text><text class="cls-8" transform="matrix(0.91, 0.45, -0.44, 0.9, 111.88, 296.81)">o</text><text class="cls-8" transform="translate(120.85 301.14) rotate(22.84) scale(1.02 1)">l</text><text class="cls-8" transform="matrix(0.96, 0.34, -0.33, 0.94, 126.86, 303.72)">o</text><text class="cls-8" transform="translate(136.51 307.12) rotate(15.28) scale(1.02 1)">g</text><text class="cls-8" transform="translate(146.34 309.72) rotate(12.13) scale(1.02 1)">i</text><text class="cls-8" transform="translate(151.19 310.82) rotate(8.99) scale(1.02 1)">a</text><text class="cls-8" transform="matrix(1.01, 0.1, -0.1, 0.99, 161.04, 312.3)"> </text><text class="cls-8" transform="translate(165.69 312.84) rotate(2.68) scale(1.02 1)">p</text><text class="cls-8" transform="translate(175.93 313.3) rotate(-1.7) scale(1.02 1)">a</text><text class="cls-8" transform="translate(185.99 312.96) rotate(-5.7) scale(1.02 1)">r</text><text class="cls-8" transform="matrix(1, -0.17, 0.17, 0.99, 194.42, 312.13)">a</text><text class="cls-8" transform="translate(204.23 310.38) rotate(-12.72) scale(1.02 1)"> </text><text class="cls-8" transform="translate(208.81 309.4) rotate(-15.73) scale(1.02 1)">T</text><text class="cls-8" transform="translate(217.85 306.86) rotate(-19.54) scale(1.02 1)">o</text><text class="cls-8" transform="translate(227.47 303.43) rotate(-23.47) scale(1.02 1)">n</text><text class="cls-8" transform="translate(236.75 299.32) rotate(-26.24) scale(1.02 1)">i</text><text class="cls-8" transform="translate(241.09 297.2) rotate(-28.23) scale(1.02 1)">f</text><text class="cls-8" transform="translate(246.72 294.15) rotate(-30.16) scale(1.02 1)">i</text><text class="cls-8" transform="translate(250.93 291.74) rotate(-32.39) scale(1.02 1)">c</text><text class="cls-8" transform="matrix(0.83, -0.59, 0.58, 0.82, 258.36, 287.03)">a</text><text class="cls-8" transform="translate(266.43 281.28) rotate(-38.01) scale(1.02 1)">r</text><rect class="cls-1" x="56.23" y="212.41" width="248.17" height="4.43"/><rect class="cls-1" x="87.55" y="221.67" width="185.53" height="4.43"/><polygon class="cls-1" points="107.75 236.89 111.93 245.36 121.28 246.72 114.52 253.31 116.11 262.62 107.75 258.23 99.39 262.62 100.99 253.31 94.22 246.72 103.57 245.36 107.75 236.89"/><polygon class="cls-1" points="252.88 236.89 257.06 245.36 266.41 246.72 259.64 253.31 261.24 262.62 252.88 258.23 244.52 262.62 246.11 253.31 239.35 246.72 248.7 245.36 252.88 236.89"/><polygon class="cls-1" points="142.44 263.04 145.92 270.09 153.7 271.22 148.07 276.71 149.4 284.46 142.44 280.81 135.48 284.46 136.81 276.71 131.17 271.22 138.96 270.09 142.44 263.04"/><polygon class="cls-1" points="218.19 263.04 221.68 270.09 229.46 271.22 223.83 276.71 225.16 284.46 218.19 280.81 211.23 284.46 212.56 276.71 206.93 271.22 214.71 270.09 218.19 263.04"/><polygon class="cls-1" points="180.32 268.58 184.24 276.54 193.03 277.81 186.67 284.01 188.17 292.76 180.32 288.63 172.46 292.76 173.96 284.01 167.6 277.81 176.39 276.54 180.32 268.58"/><path class="cls-9" d="M237.46,144.45c-.59,2.29-1.11,4.61-1.81,6.87a17.87,17.87,0,0,1-1.59,3.3,1.65,1.65,0,0,1-2.34.84,1.67,1.67,0,0,1-.54-2.49,21.18,21.18,0,0,0,2.92-11.08A20.79,20.79,0,0,0,227.65,127c-1.39-1.37-1.41-1.86-.2-3.39,4.94-6.25,6.28-13.21,3.43-20.66s-8.5-11.86-16.4-13.18a36,36,0,0,0-5.79-.23c-3.39,0-6.79-.09-10.16.14-10,.67-18.35,9.47-18.75,19.47a20.71,20.71,0,0,0,5,14.65c1.06,1.26,1,1.89-.38,3.22a21.1,21.1,0,0,0,5.23,34,20.33,20.33,0,0,0,9.25,2.21c4.77,0,9.53,0,14.3,0a21,21,0,0,0,12.94-4.49,2.37,2.37,0,0,1,1.57-.61,2,2,0,0,1,1.38,1.18,2.25,2.25,0,0,1-.66,1.81,21.45,21.45,0,0,1-9.28,4.68,34.11,34.11,0,0,1-6.29.76c-4.47.11-8.94,0-13.41,0a24.37,24.37,0,0,1-23.81-17.45c-.05-.17-.12-.34-.17-.47-2.08.16-4.11.42-6.14.44-6,.05-11.92.07-17.88,0a28.14,28.14,0,0,1-16.14-5.42l-.27-.2a1.7,1.7,0,0,1-.55-2.51,1.74,1.74,0,0,1,2.49-.23c.62.41,1.22.85,1.85,1.24a24.39,24.39,0,0,0,12.79,3.78c6.11.05,12.21,0,18.32,0,1.56,0,3.11-.25,4.84-.4a24.87,24.87,0,0,1,6.73-20.22l-.75-1.11a24.11,24.11,0,0,1,3.84-31.81,4.25,4.25,0,0,0,1.1-1.61,20.69,20.69,0,0,0-18.49-28q-6.71-.24-13.41,0c-9.61.4-18,8.42-19.1,18a20.72,20.72,0,0,0,3.67,14.69c1,1.48.9,2.18-.58,3.23-7.64,5.44-11.43,12.86-11.29,22.21A24.88,24.88,0,0,0,131.19,135c.3.41.73,1,.65,1.36a2.82,2.82,0,0,1-1,1.65c-.76.5-1.51.06-2-.63a28.17,28.17,0,0,1-4.41-8.6,29.17,29.17,0,0,1,9.75-31.7l.54-.46a69.64,69.64,0,0,1-2.86-7.6c-3.46-13.68,5.88-27.68,19.88-29.43,5.21-.65,10.55-.27,15.84-.29a18.33,18.33,0,0,1,3.53.44,24,24,0,0,1,19,20.42,30,30,0,0,1,.19,4.23c0,1.37-.26,2.73-.41,4.19a5.56,5.56,0,0,0,.61-.19,22.49,22.49,0,0,1,9.07-2.13c4.69,0,9.39-.16,14.06.11,10.52.59,19.85,9.19,21.61,19.6A24.05,24.05,0,0,1,231,124.59l-.39.59a24.29,24.29,0,0,1,5.92,10.25c.42,1.49.65,3,1,4.55Z" transform="translate(3.38 -2.66)"/><path class="cls-9" d="M206,121.17c-2.75,0-5.51-.1-8.26,0-8.5.37-13.93-6.34-11.72-14.57a14.87,14.87,0,0,1,13.41-11.18,81.81,81.81,0,0,1,14.26.15c8.17.84,14.16,9.17,12.67,17a10.82,10.82,0,0,1-10.76,8.62H206Zm-7.6-3.34c6.07,0,12,.14,18,0a7.18,7.18,0,0,0,6.85-7.52c-.06-5.61-4.32-10.8-9.91-11.33a110,110,0,0,0-13.71-.16,10.61,10.61,0,0,0-7.2,3.38A29.91,29.91,0,0,1,198.35,117.83Zm-8.16-12.91c-1.4,3.13-2,6.11-.4,9.14a7.2,7.2,0,0,0,5.15,3.63A25.7,25.7,0,0,0,190.19,104.92Z" transform="translate(3.38 -2.66)"/><path class="cls-9" d="M160.71,94.14c-2.91,0-5.82-.14-8.71,0-7.09.39-13.64-5.67-11.32-14.49A14.82,14.82,0,0,1,146.87,71c1-.7,2-.62,2.57.19s.38,1.81-.68,2.56a11.36,11.36,0,0,0-5.17,9.4,7.32,7.32,0,0,0,7.32,7.67c6.55.08,13.1.09,19.65,0,4.95-.07,8.13-4.38,7.16-9.45a11.94,11.94,0,0,0-12-9.66c-3.31,0-6.63,0-9.94,0-1.43,0-2.15-.59-2.13-1.7s.74-1.66,2.09-1.65c4,0,8.13-.14,12.16.2a14.9,14.9,0,0,1,13.25,16.31,10.82,10.82,0,0,1-10.62,9.32C167.26,94.18,164,94.14,160.71,94.14Z" transform="translate(3.38 -2.66)"/><path class="cls-9" d="M209.19,140.26c-1.41-3.14-1.06-5.36,1.09-7a5,5,0,0,1,6.1.16c2,1.62,2.26,3.92.89,6.76,2.79,3.78,2.77,7.06,0,9.47a6.13,6.13,0,0,1-8.32-.26C206.37,146.9,206.46,143.49,209.19,140.26Zm4,7.55a2.8,2.8,0,1,0-2.73-2.93A2.8,2.8,0,0,0,213.15,147.81Zm1.67-10.6a1.59,1.59,0,0,0-1.68-1.53,1.57,1.57,0,0,0-1.51,1.6,1.6,1.6,0,0,0,3.19-.07Z" transform="translate(3.38 -2.66)"/><path class="cls-9" d="M158.24,119.1a5.67,5.67,0,0,1-4.05,9.31,5.65,5.65,0,0,1-5.84-4.77c-.21-1.36.26-2.27,1.28-2.46s1.77.39,2,1.89a2.28,2.28,0,0,0,4.54-.21,2.22,2.22,0,0,0-2.07-2.33c-1-.13-1.73-.48-1.83-1.58s.47-1.59,1.68-1.8a2.33,2.33,0,0,0,2.23-2.34,2.28,2.28,0,0,0-4.29-1c-.14.26-.19.56-.31.83a1.66,1.66,0,0,1-3.18-1,5.67,5.67,0,0,1,6.11-4.41,5.51,5.51,0,0,1,5,6A21,21,0,0,1,158.24,119.1Z" transform="translate(3.38 -2.66)"/><path class="cls-9" d="M198.09,147.8c1.63,0,3,0,4.44,0,1.22,0,2,.65,2,1.65s-.74,1.68-1.94,1.69c-2.38,0-4.76,0-7.14,0a2,2,0,0,1-2.06-1.05,2.09,2.09,0,0,1,.47-2.27c1.67-2.28,3.36-4.54,5-6.85a13.22,13.22,0,0,0,1.47-2.62,2.12,2.12,0,0,0-1.22-2.84,2.25,2.25,0,0,0-3,1.24c-.09.2-.13.42-.22.63a1.65,1.65,0,0,1-2.06,1.06,1.61,1.61,0,0,1-1.1-2,5.34,5.34,0,0,1,3.69-4.12,5.27,5.27,0,0,1,5.59,1.19c1.7,1.58,2.42,3.61,1.48,5.77a43.24,43.24,0,0,1-3.14,5.37C199.71,145.66,198.94,146.62,198.09,147.8Z" transform="translate(3.38 -2.66)"/><path class="cls-9" d="M167.68,125c1.59,0,3,0,4.33,0s2.06.63,2.06,1.67-.72,1.67-2,1.68c-2.35,0-4.69,0-7,0a2,2,0,0,1-2-1,2.09,2.09,0,0,1,.46-2.27c1.7-2.3,3.4-4.6,5.06-6.94a12.66,12.66,0,0,0,1.4-2.52,2.14,2.14,0,0,0-1.22-2.85,2.29,2.29,0,0,0-3,1.24l0,.1c-.62,1.5-1.31,1.95-2.33,1.56s-1.35-1.46-.74-2.93a5.65,5.65,0,0,1,7.22-3.13,5.34,5.34,0,0,1,3.24,7,35.71,35.71,0,0,1-3.15,5.35C169.26,123,168.52,123.88,167.68,125Z" transform="translate(3.38 -2.66)"/></svg>