<?xml version="1.0" encoding="utf-8"?>
<!-- Generator: Adobe Illustrator 24.2.0, SVG Export Plug-In . SVG Version: 6.00 Build 0)  -->
<svg version="1.1" id="Capa_1" xmlns="http://www.w3.org/2000/svg" xmlns:xlink="http://www.w3.org/1999/xlink" x="0px" y="0px"
	 viewBox="0 0 360.6 360.6" style="enable-background:new 0 0 360.6 360.6;" xml:space="preserve">
<style type="text/css">
	.st0{fill:#700000;}
	.st1{fill:#FFFFFF;}
	.st2{font-family:'PervitinaDex';}
	.st3{font-size:47.19px;}
	.st4{font-size:47.2772px;}
	.st5{font-size:47.1073px;}
	.st6{font-size:47.3031px;}
	.st7{font-size:47.0198px;}
	.st8{font-size:47.4957px;}
	.st9{font-size:47.1262px;}
	.st10{font-size:47.2489px;}
	.st11{font-size:47.1924px;}
	.st12{font-size:47.06px;}
	.st13{font-size:47.0056px;}
	.st14{font-size:47.3807px;}
	.st15{font-size:47.3408px;}
	.st16{font-size:47.0127px;}
	.st17{enable-background:new    ;}
	.st18{font-size:14.9715px;}
	.st19{font-size:14.979px;}
	.st20{font-size:14.9775px;}
	.st21{font-size:15.027px;}
	.st22{font-size:15px;}
	.st23{font-size:14.9436px;}
	.st24{font-size:15.0673px;}
	.st25{font-size:15.0659px;}
	.st26{fill:#700000;stroke:#700000;stroke-miterlimit:10;}
</style>
<circle class="st0" cx="180.3" cy="180.3" r="163.4"/>
<circle class="st1" cx="180.3" cy="180.3" r="146.7"/>
<text transform="matrix(5.480489e-02 -1.0185 0.9986 5.373029e-02 40.44 178.9703)" class="st0 st2 st3">.</text>
<text transform="matrix(0.1407 -1.0102 0.9904 0.138 41.0492 167.0896)" class="st0 st2 st3">.</text>
<text transform="matrix(0.2263 -0.9946 0.9751 0.2219 42.6599 155.3206)" class="st0 st2 st3">.</text>
<text transform="matrix(0.3105 -0.9716 0.9526 0.3044 45.2598 143.7303)" class="st0 st2 st3">.</text>
<text transform="matrix(0.3925 -0.9415 0.923 0.3848 48.8503 132.3907)" class="st0 st2 st3">.</text>
<text transform="matrix(0.4691 -0.8983 0.8884 0.4592 53.4017 121.4108)" class="st0 st2 st4">.</text>
<text transform="matrix(0.5464 -0.8613 0.8444 0.5357 58.8606 110.8708)" class="st0 st2 st3">.</text>
<text transform="matrix(0.6175 -0.8118 0.7959 0.6054 65.22 100.7902)" class="st0 st2 st3">.</text>
<text transform="matrix(0.6812 -0.7513 0.7413 0.6712 72.3794 91.3405)" class="st0 st2 st5">.</text>
<text transform="matrix(0.7453 -0.6964 0.6828 0.7306 80.3292 82.4903)" class="st0 st2 st3">.</text>
<text transform="matrix(0.8016 -0.6308 0.6184 0.7859 89.0196 74.3409)" class="st0 st2 st3">.</text>
<text transform="matrix(0.852 -0.5607 0.5498 0.8353 98.3296 66.9707)" class="st0 st2 st3">.</text>
<text transform="matrix(0.8879 -0.4789 0.4789 0.8779 108.2492 60.4097)" class="st0 st2 st6">.</text>
<text transform="matrix(0.9347 -0.4084 0.4003 0.9164 118.67 54.7208)" class="st0 st2 st3">.</text>
<text transform="matrix(0.9662 -0.327 0.3206 0.9472 129.5394 49.94)" class="st0 st2 st3">.</text>
<text transform="matrix(0.9906 -0.243 0.2382 0.9712 140.8097 46.0903)" class="st0 st2 st3">.</text>
<text transform="matrix(1.0077 -0.1576 0.1545 0.988 152.33 43.2398)" class="st0 st2 st3">.</text>
<text transform="matrix(1.0175 -7.168437e-02 7.027879e-02 0.9975 164.0701 41.3699)" class="st0 st2 st3">.</text>
<text transform="matrix(1.0199 1.655547e-02 -1.623085e-02 0.9999 175.9196 40.4903)" class="st0 st2 st3">.</text>
<text transform="matrix(1.0152 9.918019e-02 -9.723549e-02 0.9953 187.8198 40.6404)" class="st0 st2 st3">.</text>
<text transform="matrix(1.0036 0.1807 -0.1807 0.9835 199.65 41.7604)" class="st0 st2 st7">.</text>
<text transform="matrix(0.9836 0.27 -0.2647 0.9643 211.34 43.8912)" class="st0 st2 st3">.</text>
<text transform="matrix(0.9569 0.3532 -0.3463 0.9381 222.82 47.0112)" class="st0 st2 st3">.</text>
<text transform="matrix(0.9141 0.4272 -0.4272 0.9041 233.9697 51.0894)" class="st0 st2 st8">.</text>
<text transform="matrix(0.8829 0.5108 -0.5008 0.8656 244.7495 56.131)" class="st0 st2 st3">.</text>
<text transform="matrix(0.8311 0.5808 -0.5708 0.8211 255.0495 62.0508)" class="st0 st2 st9">.</text>
<text transform="matrix(0.779 0.6492 -0.6392 0.769 264.8213 68.8398)" class="st0 st2 st10">.</text>
<text transform="matrix(0.7261 0.7163 -0.7023 0.7119 273.9701 76.4097)" class="st0 st2 st3">.</text>
<text transform="matrix(0.66 0.77 -0.76 0.65 282.4619 84.7493)" class="st0 st2 st11">.</text>
<text transform="matrix(0.5952 0.8283 -0.8121 0.5835 290.2094 93.7706)" class="st0 st2 st3">.</text>
<text transform="matrix(0.5229 0.8758 -0.8586 0.5126 297.1595 103.39)" class="st0 st2 st3">.</text>
<text transform="matrix(0.4465 0.9171 -0.8991 0.4377 303.2903 113.5799)" class="st0 st2 st3">.</text>
<text transform="matrix(0.371 0.9526 -0.9326 0.361 308.5107 124.2606)" class="st0 st2 st12">.</text>
<text transform="matrix(0.2839 0.9797 -0.9605 0.2783 312.8116 135.3304)" class="st0 st2 st3">.</text>
<text transform="matrix(0.199 1.0004 -0.9808 0.1951 316.1506 146.7396)" class="st0 st2 st3">.</text>
<text transform="matrix(0.1104 1.014 -0.9939 0.1104 318.4879 158.39)" class="st0 st2 st13">.</text>
<text transform="matrix(-5.480489e-02 1.0185 -0.9986 -5.373029e-02 320.1887 181.68)" class="st0 st2 st3">.</text>
<text transform="matrix(-0.1407 1.0102 -0.9904 -0.138 319.5802 193.5607)" class="st0 st2 st3">.</text>
<text transform="matrix(-0.2263 0.9946 -0.9751 -0.2219 317.9703 205.3299)" class="st0 st2 st3">.</text>
<text transform="matrix(-0.3105 0.9716 -0.9526 -0.3044 315.37 216.9198)" class="st0 st2 st3">.</text>
<text transform="matrix(-0.3925 0.9415 -0.923 -0.3848 311.7794 228.2496)" class="st0 st2 st3">.</text>
<text transform="matrix(-0.4691 0.8983 -0.8884 -0.4592 307.2281 239.2402)" class="st0 st2 st4">.</text>
<text transform="matrix(-0.5465 0.8612 -0.8443 -0.5358 301.771 249.7807)" class="st0 st2 st3">.</text>
<text transform="matrix(-0.6175 0.8118 -0.7959 -0.6054 295.4108 259.8502)" class="st0 st2 st3">.</text>
<text transform="matrix(-0.6812 0.7513 -0.7413 -0.6712 288.2504 269.3104)" class="st0 st2 st5">.</text>
<text transform="matrix(-0.7453 0.6964 -0.6828 -0.7306 280.3004 278.1605)" class="st0 st2 st3">.</text>
<text transform="matrix(-0.8016 0.6308 -0.6184 -0.7859 271.6093 286.311)" class="st0 st2 st3">.</text>
<text transform="matrix(-0.8466 0.5577 -0.5478 -0.8366 262.3008 293.6817)" class="st0 st2 st14">.</text>
<text transform="matrix(-0.8879 0.4789 -0.4789 -0.8779 252.3793 300.2402)" class="st0 st2 st6">.</text>
<text transform="matrix(-0.927 0.4087 -0.3987 -0.9171 241.959 305.9301)" class="st0 st2 st15">.</text>
<text transform="matrix(-0.9662 0.327 -0.3206 -0.9472 231.0901 310.7108)" class="st0 st2 st3">.</text>
<text transform="matrix(-0.9906 0.243 -0.2382 -0.9712 219.8194 314.5504)" class="st0 st2 st3">.</text>
<text transform="matrix(-1.0077 0.1576 -0.1545 -0.988 208.3002 317.4094)" class="st0 st2 st3">.</text>
<text transform="matrix(-1.0175 7.168435e-02 -7.027876e-02 -0.9975 196.5595 319.2807)" class="st0 st2 st3">.</text>
<text transform="matrix(-1.0199 -1.655534e-02 1.623072e-02 -0.9999 184.7107 320.1621)" class="st0 st2 st3">.</text>
<text transform="matrix(-1.0152 -9.918023e-02 9.723552e-02 -0.9953 172.8097 320.0109)" class="st0 st2 st3">.</text>
<text transform="matrix(-1.0036 -0.1807 0.1807 -0.9835 160.9796 318.89)" class="st0 st2 st7">.</text>
<text transform="matrix(-0.9836 -0.27 0.2647 -0.9643 149.2899 316.76)" class="st0 st2 st3">.</text>
<text transform="matrix(-0.9569 -0.3532 0.3463 -0.9381 137.81 313.6404)" class="st0 st2 st3">.</text>
<text transform="matrix(-0.9232 -0.4337 0.4251 -0.9051 126.6605 309.5507)" class="st0 st2 st3">.</text>
<text transform="matrix(-0.8829 -0.5108 0.5008 -0.8656 115.8802 304.5204)" class="st0 st2 st3">.</text>
<text transform="matrix(-0.8311 -0.5808 0.5708 -0.8211 105.5794 298.6)" class="st0 st2 st9">.</text>
<text transform="matrix(-0.779 -0.6492 0.6392 -0.769 95.8092 291.8108)" class="st0 st2 st10">.</text>
<text transform="matrix(-0.7261 -0.7163 0.7023 -0.7119 86.6599 284.2403)" class="st0 st2 st3">.</text>
<text transform="matrix(-0.6631 -0.775 0.7598 -0.6501 78.1701 275.8991)" class="st0 st2 st3">.</text>
<text transform="matrix(-0.5922 -0.8331 0.8131 -0.5822 70.4199 266.8804)" class="st0 st2 st16">.</text>
<text transform="matrix(-0.5229 -0.8758 0.8586 -0.5126 63.4696 257.26)" class="st0 st2 st3">.</text>
<text transform="matrix(-0.4465 -0.9171 0.8991 -0.4377 57.3398 247.061)" class="st0 st2 st3">.</text>
<text transform="matrix(-0.3665 -0.9519 0.9332 -0.3593 52.1201 236.39)" class="st0 st2 st3">.</text>
<text transform="matrix(-0.2839 -0.9797 0.9605 -0.2783 47.8201 225.3208)" class="st0 st2 st3">.</text>
<text transform="matrix(-0.199 -1.0004 0.9808 -0.1951 44.4903 213.9109)" class="st0 st2 st3">.</text>
<text transform="matrix(-0.1104 -1.014 0.9939 -0.1104 42.1403 202.2608)" class="st0 st2 st13">.</text>
<g class="st17">
	<path class="st0" d="M60.1,197.6c-0.3,0.8-1,1.3-1.9,1.3h-7.8c-0.9,0-1.1-0.4-0.7-1.3l13.4-32.5c0.3-0.8,0.9-1.3,1.8-1.3H91
		c0.9,0,1.1,0.4,0.8,1.3l-2.7,6.6c-0.3,0.8-0.9,1.3-1.8,1.3H70.7c-0.3,0-0.6,0.1-0.7,0.4L60.1,197.6z M70.2,178.7
		c0.4-0.8,1-1.3,1.8-1.3h11.1c0.9,0,1.1,0.4,0.7,1.3l-2.2,5.3c-0.3,0.8-0.9,1.3-1.8,1.3H68.8c-0.9,0-1.1-0.4-0.8-1.3L70.2,178.7z"/>
</g>
<g class="st17">
	<path class="st0" d="M83.3,192.1l7.1-17.2c0.3-0.7,0.9-1.1,1.6-1.1h7.4c0.7,0,0.9,0.4,0.6,1.1l-6.6,15.9c-0.2,0.5,0,0.7,0.4,0.7
		c0.3,0,0.8,0,1.7-0.1c0.9-0.1,1.8-0.2,2.8-0.4c0.4,0,0.6,0,0.8,0.1c0.2,0.1,0.2,0.4,0,0.8l-2.1,5c-0.3,0.7-0.8,1.1-1.5,1.2
		c-3.7,0.7-6.4,1.1-8,1.1c-2,0-3.3-0.7-4.2-2.1C82.6,195.7,82.5,194,83.3,192.1z M98.5,197.8l9.4-22.9c0.3-0.7,0.8-1.1,1.5-1.1h7.1
		c0.7,0,0.9,0.4,0.6,1.1l-9.4,22.9c-0.3,0.7-0.8,1.1-1.5,1.1h-7.1C98.4,198.8,98.2,198.5,98.5,197.8z"/>
	<path class="st0" d="M113.3,197.8l9.4-22.9c0.3-0.7,0.8-1.1,1.6-1.1h7.4c0.7,0,0.9,0.4,0.6,1.1l-9.4,22.9c-0.3,0.7-0.8,1.1-1.5,1.1
		H114C113.2,198.8,113,198.5,113.3,197.8z M130.5,197.8l6.6-15.9c0.2-0.5,0.1-0.7-0.2-0.7h-0.1l-4.6,0.6h-0.2c-0.4,0-0.5-0.3-0.2-1
		l2.1-5c0.3-0.7,0.8-1.1,1.5-1.3c3.9-0.7,6.6-1.1,8-1.1c1.8,0,3.1,0.7,3.9,2.1c0.8,1.4,0.8,3.1,0,5l-7.1,17.2
		c-0.3,0.7-0.8,1.1-1.5,1.1h-7.4C130.4,198.8,130.2,198.5,130.5,197.8z"/>
	<path class="st0" d="M150.6,198.8c-1.8,0-3.1-0.5-3.7-1.6c-0.7-1.1-0.6-2.5,0.1-4.3l5.4-13.2c0.9-2.2,2-3.8,3.3-4.6
		c1.3-0.9,3-1.3,5.3-1.3h16.4c0.8,0,1,0.4,0.7,1.1l-2.3,5.5c-0.3,0.7-0.8,1.1-1.6,1.1h-12.1c-0.5,0-0.8,0.2-1,0.7l-3.4,8.2
		c-0.2,0.5-0.1,0.7,0.4,0.7h12.1c0.7,0,1,0.4,0.7,1.1l-2.3,5.6c-0.3,0.7-0.8,1.1-1.6,1.1H150.6z"/>
	<path class="st0" d="M182.2,174.9c0.3-0.7,0.8-1.1,1.6-1.1h7.4c0.8,0,1,0.4,0.7,1.1l-9.4,22.9c-0.3,0.7-0.8,1.1-1.6,1.1h-7.4
		c-0.7,0-1-0.4-0.7-1.1L182.2,174.9z M186.3,165.1c0.3-0.7,0.8-1.1,1.6-1.1h7.4c0.7,0,1,0.4,0.7,1.1l-2.2,5.2
		c-0.3,0.7-0.8,1.1-1.6,1.1h-7.4c-0.7,0-1-0.4-0.7-1.1L186.3,165.1z"/>
	<path class="st0" d="M189.5,192.9l5.4-13.2c0.9-2.2,2-3.8,3.3-4.6c1.3-0.9,3-1.3,5.2-1.3h14.7c1.8,0,3.1,0.5,3.7,1.6
		c0.7,1.1,0.6,2.5-0.1,4.3l-5.4,13.2c-0.9,2.2-2,3.8-3.2,4.6c-1.3,0.9-3,1.3-5.3,1.3h-5.3c-0.7,0-0.9-0.3-0.6-1l2.3-5.7
		c0.3-0.7,0.8-1,1.5-1h1c0.6,0,0.9-0.3,1.1-0.8l3.4-8.1c0.2-0.5,0-0.7-0.5-0.7h-6.4c-0.4,0-0.6,0.2-0.8,0.7l-3.4,8.1
		c-0.2,0.5,0,0.8,0.5,0.8h1c0.7,0,0.9,0.3,0.6,1l-2.3,5.7c-0.3,0.7-0.8,1-1.5,1h-5.4c-1.8,0-3.1-0.5-3.7-1.6
		S188.8,194.7,189.5,192.9z"/>
</g>
<g class="st17">
	<path class="st0" d="M219.6,197.8l9.4-22.9c0.3-0.7,0.8-1.1,1.6-1.1h7.4c0.7,0,0.9,0.4,0.6,1.1l-9.4,22.9c-0.3,0.7-0.8,1.1-1.5,1.1
		h-7.4C219.6,198.8,219.3,198.5,219.6,197.8z M236.8,197.8l6.6-15.9c0.2-0.5,0.1-0.7-0.2-0.7h-0.1l-4.6,0.6h-0.2
		c-0.4,0-0.5-0.3-0.2-1l2.1-5c0.3-0.7,0.8-1.1,1.5-1.3c3.9-0.7,6.6-1.1,8-1.1c1.8,0,3.1,0.7,3.9,2.1c0.8,1.4,0.8,3.1,0,5l-7.1,17.2
		c-0.3,0.7-0.8,1.1-1.5,1.1h-7.4C236.7,198.8,236.5,198.5,236.8,197.8z"/>
</g>
<g class="st17">
	<path class="st0" d="M263.8,189.6c-0.5,0-0.8,0.1-1,0.2c-0.1,0.1-0.3,0.4-0.5,0.9c-0.3,0.7-0.1,1,0.7,1c0.2,0,0.8,0,1.6-0.1
		c0.8-0.1,1.6-0.2,2.5-0.3h0.2c0.4,0,0.5,0.2,0.3,0.7l-2.2,5.3c-0.2,0.5-0.7,0.8-1.3,1c-1.6,0.3-3.1,0.5-4.5,0.7
		c-1.4,0.2-2.5,0.3-3.2,0.3c-2,0-3.3-0.6-4.1-1.8c-0.7-1.2-0.7-2.8,0.1-4.7l1.5-3.7c1-2.3,2.2-4,3.7-5.1c1.5-1.1,3.4-1.6,5.8-1.6
		h10.1c0.2,0,0.4-0.1,0.5-0.4l0.2-0.4c0.3-0.5,0-0.7-0.8-0.7h-12.1c-0.6,0-0.7-0.3-0.5-0.8l2.3-5.6c0.2-0.6,0.6-0.8,1.2-0.8h15.2
		c2,0,3.4,0.7,4.2,2c0.8,1.4,0.8,3,0,5l-7.1,17.2c-0.2,0.6-0.6,0.8-1.2,0.8H268c-0.6,0-0.7-0.3-0.5-0.8l3.3-8c0.1-0.3,0-0.4-0.2-0.4
		H263.8z"/>
</g>
<g class="st17">
	<path class="st0" d="M288.7,198.8c-2,0-3.4-0.7-4.3-2.1c-0.9-1.4-0.9-3.1,0-5l12.1-29.3c0.3-0.7,0.8-1.1,1.5-1.1h7.4
		c0.7,0,0.9,0.4,0.6,1.1l-11.6,28c-0.2,0.5,0,0.7,0.4,0.7h6.2c0.8,0,1,0.4,0.6,1.1l-2.3,5.6c-0.3,0.7-0.8,1.1-1.5,1.1H288.7z"/>
</g>
<text transform="matrix(0.8015 0.6212 -0.6112 0.7915 85.8995 279.2197)" class="st0 st2 st18">M</text>
<text transform="matrix(0.8512 0.5508 -0.5408 0.8412 97.1907 287.8406)" class="st0 st2 st19">e</text>
<text transform="matrix(0.8913 0.5008 -0.4907 0.8713 105.9508 293.4299)" class="st0 st2 st20">t</text>
<text transform="matrix(0.9084 0.4492 -0.4392 0.8984 111.8797 296.811)" class="st0 st2 st21">o</text>
<text transform="matrix(0.94 0.3959 -0.3882 0.9216 120.8497 301.1408)" class="st0 st2 st22">l</text>
<text transform="matrix(0.9636 0.3413 -0.3312 0.9435 126.8603 303.7196)" class="st0 st2 st23">o</text>
<text transform="matrix(0.9839 0.2688 -0.2635 0.9646 136.51 307.1206)" class="st0 st2 st22">g</text>
<text transform="matrix(0.9972 0.2143 -0.2101 0.9777 146.34 309.7198)" class="st0 st2 st22">i</text>
<text transform="matrix(1.0075 0.1594 -0.1563 0.9877 151.1898 310.8198)" class="st0 st2 st22">a</text>
<text transform="matrix(1.0189 4.769292e-02 -4.675777e-02 0.9989 165.6896 312.8409)" class="st0 st2 st22">p</text>
<text transform="matrix(1.0196 -3.025957e-02 2.966624e-02 0.9996 175.9297 313.3004)" class="st0 st2 st22">a</text>
<text transform="matrix(1.015 -0.1013 9.931975e-02 0.9951 185.9895 312.9604)" class="st0 st2 st22">r</text>
<text transform="matrix(0.9955 -0.1692 0.1692 0.9856 194.4195 312.1294)" class="st0 st2 st24">a</text>
<text transform="matrix(0.9818 -0.2765 0.2711 0.9625 208.81 309.4007)" class="st0 st2 st22">T</text>
<text transform="matrix(0.9613 -0.3412 0.3345 0.9424 217.8503 306.861)" class="st0 st2 st22">o</text>
<text transform="matrix(0.9356 -0.4062 0.3983 0.9173 227.4697 303.4306)" class="st0 st2 st22">n</text>
<text transform="matrix(0.9149 -0.451 0.4421 0.8969 236.7497 299.3206)" class="st0 st2 st22">i</text>
<text transform="matrix(0.8987 -0.4825 0.473 0.8811 241.0903 297.2003)" class="st0 st2 st22">f</text>
<text transform="matrix(0.8819 -0.5125 0.5024 0.8646 246.7201 294.151)" class="st0 st2 st22">i</text>
<text transform="matrix(0.8613 -0.5464 0.5357 0.8444 250.9296 291.7406)" class="st0 st2 st22">c</text>
<text transform="matrix(0.8264 -0.5874 0.5775 0.8164 258.3605 287.0308)" class="st0 st2 st25">a</text>
<text transform="matrix(0.8037 -0.6281 0.6158 0.7879 266.43 281.2808)" class="st0 st2 st22">r</text>
<rect x="56.2" y="212.4" class="st0" width="248.2" height="4.4"/>
<rect x="87.6" y="221.7" class="st0" width="185.5" height="4.4"/>
<polygon class="st0" points="107.8,236.9 111.9,245.4 121.3,246.7 114.5,253.3 116.1,262.6 107.8,258.2 99.4,262.6 101,253.3 
	94.2,246.7 103.6,245.4 "/>
<polygon class="st0" points="252.9,236.9 257.1,245.4 266.4,246.7 259.6,253.3 261.2,262.6 252.9,258.2 244.5,262.6 246.1,253.3 
	239.4,246.7 248.7,245.4 "/>
<polygon class="st0" points="142.4,263 145.9,270.1 153.7,271.2 148.1,276.7 149.4,284.5 142.4,280.8 135.5,284.5 136.8,276.7 
	131.2,271.2 139,270.1 "/>
<polygon class="st0" points="218.2,263 221.7,270.1 229.5,271.2 223.8,276.7 225.2,284.5 218.2,280.8 211.2,284.5 212.6,276.7 
	206.9,271.2 214.7,270.1 "/>
<polygon class="st0" points="180.3,268.6 184.2,276.5 193,277.8 186.7,284 188.2,292.8 180.3,288.6 172.5,292.8 174,284 
	167.6,277.8 176.4,276.5 "/>
<path class="st26" d="M240.8,141.8c-0.6,2.3-1.1,4.6-1.8,6.9c-0.4,1.2-0.9,2.3-1.6,3.3c-0.3,0.8-1.3,1.3-2.1,0.9
	c-0.1,0-0.1-0.1-0.2-0.1c-0.8-0.4-1.1-1.4-0.7-2.3c0-0.1,0.1-0.2,0.1-0.2c2-3.4,3-7.2,2.9-11.1c0-5.6-2.4-11-6.5-14.9
	c-1.4-1.4-1.4-1.9-0.2-3.4c4.9-6.3,6.3-13.2,3.4-20.7s-8.5-11.9-16.4-13.2c-1.9-0.2-3.9-0.3-5.8-0.2c-3.4,0-6.8-0.1-10.2,0.1
	c-10,0.7-18.4,9.5-18.8,19.5c-0.3,5.3,1.5,10.6,5,14.7c1.1,1.3,1,1.9-0.4,3.2c-8.4,8.1-8.6,21.5-0.4,29.8c1.6,1.7,3.6,3.1,5.7,4.2
	c2.9,1.5,6,2.2,9.3,2.2c4.8,0,9.5,0,14.3,0c4.7,0,9.2-1.6,12.9-4.5c0.4-0.4,1-0.6,1.6-0.6c0.6,0.1,1.1,0.6,1.4,1.2
	c0.1,0.7-0.2,1.3-0.7,1.8c-2.7,2.3-5.8,3.9-9.3,4.7c-2.1,0.4-4.2,0.7-6.3,0.8c-4.5,0.1-8.9,0-13.4,0c-11,0.2-20.7-6.9-23.8-17.4
	c-0.1-0.2-0.1-0.3-0.2-0.5c-2.1,0.2-4.1,0.4-6.1,0.4c-6,0.1-11.9,0.1-17.9,0c-5.8-0.1-11.4-2-16.1-5.4l-0.3-0.2
	c-0.8-0.4-1.1-1.5-0.7-2.3c0-0.1,0.1-0.1,0.1-0.2c0.6-0.7,1.7-0.9,2.4-0.3c0,0,0,0,0,0c0.6,0.4,1.2,0.9,1.9,1.2
	c3.8,2.4,8.3,3.7,12.8,3.8c6.1,0.1,12.2,0,18.3,0c1.6,0,3.1-0.3,4.8-0.4c-0.9-7.4,1.6-14.8,6.7-20.2l-0.8-1.1
	c-7-10-5.3-23.7,3.8-31.8c0.5-0.4,0.9-1,1.1-1.6c4-10.7-1.3-22.6-12-26.7c-2.1-0.8-4.3-1.2-6.5-1.3c-4.5-0.2-8.9-0.2-13.4,0
	c-9.6,0.4-18,8.4-19.1,18c-0.7,5.2,0.6,10.4,3.7,14.7c1,1.5,0.9,2.2-0.6,3.2c-7.6,5.4-11.4,12.9-11.3,22.2
	c0.1,5.1,1.7,10.1,4.7,14.3c0.3,0.4,0.7,1,0.6,1.4c-0.1,0.7-0.5,1.2-1,1.6c-0.8,0.5-1.5,0.1-2-0.6c-2-2.6-3.4-5.5-4.4-8.6
	c-3.7-11.6,0.2-24.2,9.8-31.7l0.5-0.5c-1.1-2.5-2.1-5-2.9-7.6c-3.5-13.7,5.9-27.7,19.9-29.4c5.2-0.7,10.6-0.3,15.8-0.3
	c1.2,0,2.4,0.2,3.5,0.4c10,2.1,17.7,10.3,19,20.4c0.2,1.4,0.2,2.8,0.2,4.2c0,1.4-0.3,2.7-0.4,4.2c0.2-0.1,0.4-0.1,0.6-0.2
	c2.8-1.3,5.9-2.1,9.1-2.1c4.7,0,9.4-0.2,14.1,0.1c10.5,0.6,19.9,9.2,21.6,19.6c1.2,6.5-0.3,13.3-4.2,18.6l-0.4,0.6
	c2.8,2.9,4.8,6.4,5.9,10.3c0.4,1.5,0.6,3,1,4.6L240.8,141.8z"/>
<path class="st26" d="M209.4,118.5c-2.8,0-5.5-0.1-8.3,0c-8.5,0.4-13.9-6.3-11.7-14.6c1.6-6.2,7-10.7,13.4-11.2
	c4.7-0.4,9.5-0.3,14.3,0.2c8.2,0.8,14.2,9.2,12.7,17c-1.1,5.1-5.6,8.7-10.8,8.6L209.4,118.5L209.4,118.5z M201.8,115.2
	c6.1,0,12,0.1,18,0c4-0.2,7-3.5,6.9-7.5c0,0,0,0,0,0c-0.1-5.6-4.3-10.8-9.9-11.3c-4.6-0.3-9.1-0.4-13.7-0.2
	c-2.7,0.2-5.3,1.4-7.2,3.4C199.2,104.1,201.3,109.5,201.8,115.2L201.8,115.2z M193.6,102.3c-1.4,3.1-2,6.1-0.4,9.1
	c1.1,1.9,3,3.3,5.1,3.6C197.9,110.4,196.3,106,193.6,102.3L193.6,102.3z"/>
<path class="st26" d="M164.1,91.5c-2.9,0-5.8-0.1-8.7,0c-7.1,0.4-13.6-5.7-11.3-14.5c0.9-3.5,3.1-6.6,6.2-8.7c1-0.7,2-0.6,2.6,0.2
	s0.4,1.8-0.7,2.6c-3.2,2.1-5.1,5.6-5.2,9.4c-0.2,4,2.9,7.5,7,7.7c0.1,0,0.2,0,0.4,0c6.6,0.1,13.1,0.1,19.6,0
	c4.9-0.1,8.1-4.4,7.2-9.4c-1.1-5.7-6.2-9.8-12-9.7c-3.3,0-6.6,0-9.9,0c-1.4,0-2.1-0.6-2.1-1.7s0.7-1.7,2.1-1.7c4,0,8.1-0.1,12.2,0.2
	c8.2,0.9,14.1,8.2,13.3,16.3c-0.7,5.3-5.3,9.3-10.6,9.3C170.6,91.5,167.4,91.5,164.1,91.5z"/>
<path class="st26" d="M212.6,137.6c-1.4-3.1-1.1-5.4,1.1-7c1.8-1.3,4.3-1.3,6.1,0.2c2,1.6,2.3,3.9,0.9,6.8c2.8,3.8,2.8,7.1,0,9.5
	c-2.4,2.1-6,2-8.3-0.3C209.8,144.2,209.8,140.8,212.6,137.6z M216.6,145.2c1.5,0,2.8-1.2,2.9-2.7s-1.2-2.8-2.7-2.9
	c-1.5,0-2.8,1.1-2.9,2.7C213.8,143.8,215,145.1,216.6,145.2C216.5,145.1,216.5,145.1,216.6,145.2L216.6,145.2z M218.2,134.6
	c0-0.9-0.8-1.6-1.6-1.5c0,0,0,0,0,0c-0.9,0-1.5,0.7-1.5,1.6c0.1,0.9,0.9,1.5,1.7,1.4C217.6,136,218.2,135.3,218.2,134.6L218.2,134.6
	z"/>
<path class="st26" d="M161.6,116.4c2,2.4,1.7,6-0.7,8c-0.9,0.8-2.1,1.3-3.4,1.3c-2.9,0.1-5.4-1.9-5.8-4.8c-0.2-1.4,0.3-2.3,1.3-2.5
	s1.8,0.4,2,1.9c0.2,1.2,1.3,2.1,2.6,2c1.1-0.1,1.9-1.1,2-2.2c0.1-1.2-0.9-2.2-2.1-2.3c-1-0.1-1.7-0.5-1.8-1.6s0.5-1.6,1.7-1.8
	c1.3-0.1,2.2-1.1,2.2-2.3c0-1.3-1.1-2.2-2.4-2.2c-0.8,0-1.6,0.5-1.9,1.2c-0.1,0.3-0.2,0.6-0.3,0.8c-0.3,0.9-1.2,1.4-2.1,1.1
	s-1.4-1.2-1.1-2.1c0.6-2.8,3.2-4.7,6.1-4.4c3,0.3,5.3,2.9,5,6c0,0,0,0,0,0C162.6,113.9,162.2,115.2,161.6,116.4z"/>
<path class="st26" d="M201.5,145.1c1.6,0,3,0,4.4,0c1.2,0,2,0.6,2,1.6s-0.7,1.7-1.9,1.7c-2.4,0-4.8,0-7.1,0
	c-0.8,0.1-1.7-0.3-2.1-1.1c-0.3-0.8-0.1-1.7,0.5-2.3c1.7-2.3,3.4-4.5,5-6.9c0.6-0.8,1.1-1.7,1.5-2.6c0.5-1.1,0-2.3-1.1-2.8
	c0,0-0.1,0-0.1,0c-1.1-0.5-2.5,0-3,1.2c0,0,0,0.1,0,0.1c-0.1,0.2-0.1,0.4-0.2,0.6c-0.3,0.9-1.2,1.3-2.1,1.1c-0.9-0.2-1.3-1.1-1.1-2
	c0,0,0,0,0,0c0.4-2,1.8-3.5,3.7-4.1c1.9-0.7,4.1-0.3,5.6,1.2c1.7,1.6,2.4,3.6,1.5,5.8c-0.9,1.9-2,3.7-3.1,5.4
	C203.1,143,202.3,144,201.5,145.1z"/>
<path class="st26" d="M171.1,122.3c1.6,0,3,0,4.3,0s2.1,0.6,2.1,1.7s-0.7,1.7-2,1.7c-2.4,0-4.7,0-7,0c-0.8,0.1-1.6-0.3-2-1
	c-0.3-0.8-0.1-1.7,0.5-2.3c1.7-2.3,3.4-4.6,5.1-6.9c0.6-0.8,1-1.6,1.4-2.5c0.5-1.1,0-2.3-1.1-2.8c0,0-0.1,0-0.1,0
	c-1.2-0.5-2.5,0.1-3,1.2c0,0,0,0,0,0v0.1c-0.6,1.5-1.3,1.9-2.3,1.6s-1.4-1.5-0.7-2.9c1.2-2.8,4.4-4.2,7.2-3.1c2.8,1,4.3,4,3.3,6.8
	c0,0.1-0.1,0.1-0.1,0.2c-0.9,1.9-1.9,3.7-3.1,5.3C172.6,120.3,171.9,121.2,171.1,122.3z"/>
</svg>
