<?xml version="1.0" encoding="utf-8"?>
<!-- Generator: Adobe Illustrator 24.2.0, SVG Export Plug-In . SVG Version: 6.00 Build 0)  -->
<svg version="1.1" id="Capa_1" xmlns="http://www.w3.org/2000/svg" xmlns:xlink="http://www.w3.org/1999/xlink" x="0px" y="0px"
	 viewBox="0 0 360.6 360.6" style="enable-background:new 0 0 360.6 360.6;" xml:space="preserve" >
<style type="text/css">
	.st0{fill="red"}
	.st1{fill="red"}
	.st2{font-family:'PervitinaDex';}
	.st3{font-size:47.19px;}
	.st4{font-size:47.2772px;}
	.st5{font-size:47.1073px;}
	.st6{font-size:47.3031px;}
	.st7{font-size:47.0198px;}
	.st8{font-size:47.4957px;}
	.st9{font-size:47.1262px;}
	.st10{font-size:47.2489px;}
	.st11{font-size:47.1924px;}
	.st12{font-size:47.06px;}
	.st13{font-size:47.0056px;}
	.st14{font-size:47.3807px;}
	.st15{font-size:47.3408px;}
	.st16{font-size:47.0127px;}
	.st17{enable-background:new    ;}
	.st18{font-size:16px;}
	.st19{font-size:16.0272px;}
	.st20{font-size:15.9624px;}
	.st21{font-size:16.0455px;}
	.st22{font-size:15.9503px;}
	.st23{font-size:16.0487px;}
	.st24{font-size:16.0296px;}
	.st25{font-size:16.0336px;}
	.st26{fill="red";stroke-width:1.49;stroke-miterlimit:10;}
</style>
<circle class="st0" cx="180.3" cy="180.3" r="163.4"/>
<circle class="st1" cx="180.3" cy="180.3" r="146.7"/>
<text transform="matrix(5.480489e-02 -1.0185 0.9986 5.373029e-02 40.44 178.9703)" class="st0 st2 st3">.</text>
<text transform="matrix(0.1407 -1.0102 0.9904 0.138 41.0492 167.0896)" class="st0 st2 st3">.</text>
<text transform="matrix(0.2263 -0.9946 0.9751 0.2219 42.6599 155.3206)" class="st0 st2 st3">.</text>
<text transform="matrix(0.3105 -0.9716 0.9526 0.3044 45.2598 143.7303)" class="st0 st2 st3">.</text>
<text transform="matrix(0.3925 -0.9415 0.923 0.3848 48.8503 132.3907)" class="st0 st2 st3">.</text>
<text transform="matrix(0.4691 -0.8983 0.8884 0.4592 53.4017 121.4108)" class="st0 st2 st4">.</text>
<text transform="matrix(0.5464 -0.8613 0.8444 0.5357 58.8606 110.8708)" class="st0 st2 st3">.</text>
<text transform="matrix(0.6175 -0.8118 0.7959 0.6054 65.22 100.7902)" class="st0 st2 st3">.</text>
<text transform="matrix(0.6812 -0.7513 0.7413 0.6712 72.3794 91.3405)" class="st0 st2 st5">.</text>
<text transform="matrix(0.7453 -0.6964 0.6828 0.7306 80.3292 82.4903)" class="st0 st2 st3">.</text>
<text transform="matrix(0.8016 -0.6308 0.6184 0.7859 89.0196 74.3409)" class="st0 st2 st3">.</text>
<text transform="matrix(0.852 -0.5607 0.5498 0.8353 98.3296 66.9707)" class="st0 st2 st3">.</text>
<text transform="matrix(0.8879 -0.4789 0.4789 0.8779 108.2492 60.4097)" class="st0 st2 st6">.</text>
<text transform="matrix(0.9347 -0.4084 0.4003 0.9164 118.67 54.7208)" class="st0 st2 st3">.</text>
<text transform="matrix(0.9662 -0.327 0.3206 0.9472 129.5394 49.94)" class="st0 st2 st3">.</text>
<text transform="matrix(0.9906 -0.243 0.2382 0.9712 140.8097 46.0903)" class="st0 st2 st3">.</text>
<text transform="matrix(1.0077 -0.1576 0.1545 0.988 152.33 43.2398)" class="st0 st2 st3">.</text>
<text transform="matrix(1.0175 -7.168437e-02 7.027879e-02 0.9975 164.0701 41.3699)" class="st0 st2 st3">.</text>
<text transform="matrix(1.0199 1.655547e-02 -1.623085e-02 0.9999 175.9196 40.4903)" class="st0 st2 st3">.</text>
<text transform="matrix(1.0152 9.918019e-02 -9.723549e-02 0.9953 187.8198 40.6404)" class="st0 st2 st3">.</text>
<text transform="matrix(1.0036 0.1807 -0.1807 0.9835 199.65 41.7604)" class="st0 st2 st7">.</text>
<text transform="matrix(0.9836 0.27 -0.2647 0.9643 211.34 43.8912)" class="st0 st2 st3">.</text>
<text transform="matrix(0.9569 0.3532 -0.3463 0.9381 222.82 47.0112)" class="st0 st2 st3">.</text>
<text transform="matrix(0.9141 0.4272 -0.4272 0.9041 233.9697 51.0894)" class="st0 st2 st8">.</text>
<text transform="matrix(0.8829 0.5108 -0.5008 0.8656 244.7495 56.131)" class="st0 st2 st3">.</text>
<text transform="matrix(0.8311 0.5808 -0.5708 0.8211 255.0495 62.0508)" class="st0 st2 st9">.</text>
<text transform="matrix(0.779 0.6492 -0.6392 0.769 264.8213 68.8398)" class="st0 st2 st10">.</text>
<text transform="matrix(0.7261 0.7163 -0.7023 0.7119 273.9701 76.4097)" class="st0 st2 st3">.</text>
<text transform="matrix(0.66 0.77 -0.76 0.65 282.4619 84.7493)" class="st0 st2 st11">.</text>
<text transform="matrix(0.5952 0.8283 -0.8121 0.5835 290.2094 93.7706)" class="st0 st2 st3">.</text>
<text transform="matrix(0.5229 0.8758 -0.8586 0.5126 297.1595 103.39)" class="st0 st2 st3">.</text>
<text transform="matrix(0.4465 0.9171 -0.8991 0.4377 303.2903 113.5799)" class="st0 st2 st3">.</text>
<text transform="matrix(0.371 0.9526 -0.9326 0.361 308.5107 124.2606)" class="st0 st2 st12">.</text>
<text transform="matrix(0.2839 0.9797 -0.9605 0.2783 312.8116 135.3304)" class="st0 st2 st3">.</text>
<text transform="matrix(0.199 1.0004 -0.9808 0.1951 316.1506 146.7396)" class="st0 st2 st3">.</text>
<text transform="matrix(0.1104 1.014 -0.9939 0.1104 318.4879 158.39)" class="st0 st2 st13">.</text>
<text transform="matrix(-5.480489e-02 1.0185 -0.9986 -5.373029e-02 320.1887 181.68)" class="st0 st2 st3">.</text>
<text transform="matrix(-0.1407 1.0102 -0.9904 -0.138 319.5802 193.5607)" class="st0 st2 st3">.</text>
<text transform="matrix(-0.2263 0.9946 -0.9751 -0.2219 317.9703 205.3299)" class="st0 st2 st3">.</text>
<text transform="matrix(-0.3105 0.9716 -0.9526 -0.3044 315.37 216.9198)" class="st0 st2 st3">.</text>
<text transform="matrix(-0.3925 0.9415 -0.923 -0.3848 311.7794 228.2496)" class="st0 st2 st3">.</text>
<text transform="matrix(-0.4691 0.8983 -0.8884 -0.4592 307.2281 239.2402)" class="st0 st2 st4">.</text>
<text transform="matrix(-0.5465 0.8612 -0.8443 -0.5358 301.771 249.7807)" class="st0 st2 st3">.</text>
<text transform="matrix(-0.6175 0.8118 -0.7959 -0.6054 295.4108 259.8502)" class="st0 st2 st3">.</text>
<text transform="matrix(-0.6812 0.7513 -0.7413 -0.6712 288.2504 269.3104)" class="st0 st2 st5">.</text>
<text transform="matrix(-0.7453 0.6964 -0.6828 -0.7306 280.3004 278.1605)" class="st0 st2 st3">.</text>
<text transform="matrix(-0.8016 0.6308 -0.6184 -0.7859 271.6093 286.311)" class="st0 st2 st3">.</text>
<text transform="matrix(-0.8466 0.5577 -0.5478 -0.8366 262.3008 293.6817)" class="st0 st2 st14">.</text>
<text transform="matrix(-0.8879 0.4789 -0.4789 -0.8779 252.3793 300.2402)" class="st0 st2 st6">.</text>
<text transform="matrix(-0.927 0.4087 -0.3987 -0.9171 241.959 305.9301)" class="st0 st2 st15">.</text>
<text transform="matrix(-0.9662 0.327 -0.3206 -0.9472 231.0901 310.7108)" class="st0 st2 st3">.</text>
<text transform="matrix(-0.9906 0.243 -0.2382 -0.9712 219.8194 314.5504)" class="st0 st2 st3">.</text>
<text transform="matrix(-1.0077 0.1576 -0.1545 -0.988 208.3002 317.4094)" class="st0 st2 st3">.</text>
<text transform="matrix(-1.0175 7.168435e-02 -7.027876e-02 -0.9975 196.5595 319.2807)" class="st0 st2 st3">.</text>
<text transform="matrix(-1.0199 -1.655534e-02 1.623072e-02 -0.9999 184.7107 320.1621)" class="st0 st2 st3">.</text>
<text transform="matrix(-1.0152 -9.918023e-02 9.723552e-02 -0.9953 172.8097 320.0109)" class="st0 st2 st3">.</text>
<text transform="matrix(-1.0036 -0.1807 0.1807 -0.9835 160.9796 318.89)" class="st0 st2 st7">.</text>
<text transform="matrix(-0.9836 -0.27 0.2647 -0.9643 149.2899 316.76)" class="st0 st2 st3">.</text>
<text transform="matrix(-0.9569 -0.3532 0.3463 -0.9381 137.81 313.6404)" class="st0 st2 st3">.</text>
<text transform="matrix(-0.9232 -0.4337 0.4251 -0.9051 126.6605 309.5507)" class="st0 st2 st3">.</text>
<text transform="matrix(-0.8829 -0.5108 0.5008 -0.8656 115.8802 304.5204)" class="st0 st2 st3">.</text>
<text transform="matrix(-0.8311 -0.5808 0.5708 -0.8211 105.5794 298.6)" class="st0 st2 st9">.</text>
<text transform="matrix(-0.779 -0.6492 0.6392 -0.769 95.8092 291.8108)" class="st0 st2 st10">.</text>
<text transform="matrix(-0.7261 -0.7163 0.7023 -0.7119 86.6599 284.2403)" class="st0 st2 st3">.</text>
<text transform="matrix(-0.6631 -0.775 0.7598 -0.6501 78.1701 275.8991)" class="st0 st2 st3">.</text>
<text transform="matrix(-0.5922 -0.8331 0.8131 -0.5822 70.4199 266.8804)" class="st0 st2 st16">.</text>
<text transform="matrix(-0.5229 -0.8758 0.8586 -0.5126 63.4696 257.26)" class="st0 st2 st3">.</text>
<text transform="matrix(-0.4465 -0.9171 0.8991 -0.4377 57.3398 247.061)" class="st0 st2 st3">.</text>
<text transform="matrix(-0.3665 -0.9519 0.9332 -0.3593 52.1201 236.39)" class="st0 st2 st3">.</text>
<text transform="matrix(-0.2839 -0.9797 0.9605 -0.2783 47.8201 225.3208)" class="st0 st2 st3">.</text>
<text transform="matrix(-0.199 -1.0004 0.9808 -0.1951 44.4903 213.9109)" class="st0 st2 st3">.</text>
<text transform="matrix(-0.1104 -1.014 0.9939 -0.1104 42.1403 202.2608)" class="st0 st2 st13">.</text>
<g class="st17">
	<path class="st0" d="M46.9,194.8l12.5-30.3c0.4-0.8,0.9-1.2,1.7-1.2h7.3c0.8,0,1.1,0.4,0.7,1.2l-12.5,30.3
		c-0.4,0.8-0.9,1.2-1.7,1.2h-7.3C46.8,196,46.6,195.6,46.9,194.8z M63.9,182.5l2.5-6.2c0.3-0.8,0.9-1.2,1.7-1.2h8.3
		c0.3,0,0.5-0.2,0.6-0.5l4.2-10.1c0.4-0.8,0.9-1.2,1.7-1.2h7.3c0.9,0,1.1,0.4,0.7,1.2l-12.5,30.3c-0.4,0.8-1,1.2-1.8,1.2h-7.3
		c-0.8,0-1.1-0.4-0.7-1.2l4.4-10.7c0.1-0.3,0-0.5-0.3-0.5h-8.3C63.8,183.7,63.6,183.3,63.9,182.5z"/>
	<path class="st0" d="M92.6,173.7c0.3-0.7,0.8-1,1.5-1h6.9c0.7,0,0.9,0.3,0.6,1L92.8,195c-0.2,0.7-0.7,1-1.5,1h-6.9
		c-0.7,0-0.9-0.3-0.6-1L92.6,173.7z M96.3,164.6c0.2-0.7,0.7-1,1.5-1h6.9c0.7,0,0.9,0.3,0.6,1l-2,4.9c-0.2,0.7-0.7,1-1.5,1h-6.9
		c-0.7,0-0.9-0.3-0.6-1L96.3,164.6z"/>
</g>
<g class="st17">
	<path class="st0" d="M103.2,203.4c-0.3,0.7-0.8,1-1.4,1h-6.9c-0.7,0-0.9-0.3-0.6-1l12.3-29.8c0.2-0.7,0.7-1,1.5-1h17.1
		c1.9,0,3.2,0.7,4,2c0.8,1.3,0.8,2.9,0.1,4.7l-4.3,10.4c-1,2.5-2.2,4.2-3.6,5.2c-1.4,1-3.2,1.5-5.6,1.5c-0.5,0-1.4-0.1-2.6-0.2
		c-1.2-0.1-2.6-0.3-4.1-0.6c-0.6-0.1-0.8-0.5-0.5-1.1l1.9-4.7c0.2-0.4,0.3-0.7,0.4-0.8c0.1-0.1,0.4-0.1,0.9-0.1l3.7,0.4
		c0.5,0,0.8-0.2,1-0.7l3.3-8c0.2-0.4,0-0.6-0.4-0.6h-6.1c-0.2,0-0.3,0.1-0.4,0.3L103.2,203.4z"/>
</g>
<g class="st17">
	<path class="st0" d="M143.9,181c1.1,0.2,2,0.3,2.7,0.3c0.7,0.1,1.2,0.1,1.3,0.1c0.5,0,0.8-0.1,1-0.2c0.2-0.1,0.3-0.3,0.5-0.7l0-0.1
		c0.2-0.4,0.2-0.7,0.2-0.8c0-0.1-0.3-0.2-0.7-0.2h-6.3c-0.7,0-1.1,0.3-1.4,1l-3.2,7.9c-0.2,0.6,0,1,0.6,1h11.2
		c0.5,0,0.7,0.3,0.5,0.8l-2.2,5.3c-0.2,0.5-0.6,0.8-1.1,0.8h-14.1c-1.9,0-3.2-0.6-3.9-1.9c-0.8-1.3-0.8-2.8,0-4.6l4.3-10.3
		c1-2.3,2.2-4,3.6-5c1.4-1,3.4-1.5,5.8-1.5h12c2,0,3.4,0.5,4.2,1.6c0.8,1.1,0.7,2.6-0.1,4.7l-1.6,3.9c-0.9,2.1-1.9,3.6-3,4.5
		c-1.1,0.9-2.5,1.3-4.2,1.3c-0.6,0-1.8-0.1-3.4-0.3c-1.6-0.2-3.3-0.4-5.1-0.8c-0.5-0.1-0.7-0.4-0.4-0.9l2-5c0.2-0.5,0.5-0.7,0.7-0.7
		c0.1,0,0.1,0,0.2,0C143.8,180.9,143.9,181,143.9,181z"/>
</g>
<g class="st17">
	<path class="st0" d="M164,173.7c0.3-0.7,0.8-1,1.5-1h6.6c0.7,0,0.9,0.3,0.6,1l-0.1,0.3c1.3-0.5,2.6-0.9,4.1-1.2
		c1.4-0.3,2.5-0.5,3.2-0.5c2.3,0,3.7,0.7,4.3,2c0.6,1.3,0.5,2.9-0.2,4.7l-2.3,5.6c-0.2,0.7-0.7,1-1.5,1h-6.9c-0.6,0-0.9-0.3-0.6-1
		l1.8-4.4c0.2-0.5,0-0.7-0.5-0.7c-0.2,0-0.7,0-1.5,0.1c-0.7,0.1-1.4,0.2-2.2,0.3c-0.1,0.1-0.2,0.1-0.2,0.1l-6.2,15
		c-0.2,0.7-0.7,1-1.5,1h-6.6c-0.7,0-0.9-0.3-0.6-1L164,173.7z"/>
</g>
<g class="st17">
	<path class="st0" d="M183.2,189.4l3.8-9.3c0.1-0.2,0-0.3-0.1-0.3h-1.8c-0.6,0-0.8-0.3-0.6-1l2.1-5.1c0.2-0.7,0.7-1,1.4-1h1.8
		c0.2,0,0.3-0.1,0.4-0.3l2.1-5.1c0.3-0.7,0.8-1,1.4-1h6.9c0.6,0,0.8,0.3,0.6,1l-2.1,5.1c0,0.2,0,0.3,0.2,0.3h5.4
		c0.7,0,0.9,0.3,0.6,1l-2.1,5.1c-0.3,0.7-0.8,1-1.5,1h-5.4c-0.2,0-0.3,0.1-0.4,0.3l-3.3,8c-0.2,0.5,0,0.7,0.4,0.7h5.7
		c0.6,0,0.8,0.3,0.6,1l-2.1,5.2c-0.2,0.7-0.7,1-1.4,1h-8.6c-2,0-3.3-0.6-4.1-1.8C182.3,193,182.3,191.4,183.2,189.4z"/>
	<path class="st0" d="M208.7,173.7c0.3-0.7,0.8-1,1.5-1h6.6c0.7,0,0.9,0.3,0.6,1l-0.1,0.3c1.3-0.5,2.6-0.9,4.1-1.2
		c1.4-0.3,2.5-0.5,3.2-0.5c2.3,0,3.7,0.7,4.3,2c0.6,1.3,0.5,2.9-0.2,4.7l-2.3,5.6c-0.2,0.7-0.7,1-1.5,1H218c-0.6,0-0.9-0.3-0.6-1
		l1.8-4.4c0.2-0.5,0-0.7-0.5-0.7c-0.2,0-0.7,0-1.5,0.1c-0.7,0.1-1.4,0.2-2.2,0.3c-0.1,0.1-0.2,0.1-0.2,0.1l-6.2,15
		c-0.2,0.7-0.7,1-1.5,1h-6.6c-0.7,0-0.9-0.3-0.6-1L208.7,173.7z"/>
	<path class="st0" d="M225.9,190.5l5.1-12.3c0.9-2.1,1.9-3.5,3.1-4.3c1.2-0.8,2.8-1.2,4.9-1.2h13.7c1.7,0,2.9,0.5,3.5,1.5
		c0.6,1,0.6,2.3-0.1,4l-5.1,12.3c-0.8,2.1-1.8,3.5-3,4.3c-1.2,0.8-2.8,1.2-4.9,1.2h-5c-0.7,0-0.9-0.3-0.6-1l2.1-5.3
		c0.3-0.6,0.8-1,1.4-1h0.9c0.5,0,0.9-0.2,1-0.7l3.2-7.6c0.2-0.5,0-0.7-0.5-0.7h-5.9c-0.3,0-0.6,0.2-0.7,0.7l-3.2,7.6
		c-0.2,0.5,0,0.7,0.5,0.7h1c0.6,0,0.8,0.3,0.6,1l-2.1,5.3c-0.3,0.6-0.7,1-1.4,1h-5c-1.7,0-2.9-0.5-3.5-1.5
		C225.2,193.5,225.3,192.2,225.9,190.5z"/>
	<path class="st0" d="M255.4,195l6.2-14.9c0.1-0.2,0-0.3-0.2-0.3h-2.1c-0.7,0-0.9-0.3-0.6-1l2.1-5.1c0.2-0.7,0.7-1,1.4-1h2.1
		c0.2,0,0.3-0.1,0.4-0.3l2-4.7c1-2.5,2.2-4.2,3.6-5.2c1.4-1,3.4-1.5,5.9-1.5h8.6c0.6,0,0.8,0.3,0.6,1l-2,4.9c-0.3,0.7-0.8,1-1.4,1
		h-5.7c-0.5,0-0.8,0.2-1,0.7l-1.6,3.8c-0.1,0.2,0,0.3,0.2,0.3h3.7c0.6,0,0.8,0.3,0.6,1l-2.1,5.1c-0.3,0.7-0.8,1-1.4,1h-3.7
		c-0.2,0-0.3,0.1-0.4,0.3l-6.2,14.9c-0.3,0.7-0.8,1-1.4,1H256C255.3,196,255.1,195.7,255.4,195z"/>
	<path class="st0" d="M281.5,173.7c0.3-0.7,0.8-1,1.5-1h6.9c0.7,0,0.9,0.3,0.6,1l-8.8,21.4c-0.2,0.7-0.7,1-1.5,1h-6.9
		c-0.7,0-0.9-0.3-0.6-1L281.5,173.7z M285.3,164.6c0.2-0.7,0.7-1,1.5-1h6.9c0.7,0,0.9,0.3,0.6,1l-2,4.9c-0.2,0.7-0.7,1-1.5,1h-6.9
		c-0.7,0-0.9-0.3-0.6-1L285.3,164.6z"/>
	<path class="st0" d="M298.6,187.5c-0.5,0-0.8,0.1-0.9,0.2c-0.1,0.1-0.3,0.4-0.5,0.8c-0.3,0.6-0.1,1,0.6,1c0.2,0,0.7,0,1.5-0.1
		c0.8-0.1,1.5-0.2,2.3-0.3h0.2c0.4,0,0.5,0.2,0.3,0.7l-2,5c-0.2,0.5-0.6,0.8-1.2,0.9c-1.5,0.3-2.9,0.5-4.2,0.7
		c-1.3,0.2-2.3,0.3-3,0.3c-1.9,0-3.1-0.6-3.8-1.7c-0.7-1.1-0.6-2.6,0.1-4.4l1.4-3.4c0.9-2.2,2-3.8,3.4-4.8c1.4-1,3.2-1.5,5.4-1.5
		h9.5c0.2,0,0.4-0.1,0.5-0.4l0.2-0.4c0.2-0.4,0-0.6-0.7-0.6h-11.3c-0.5,0-0.7-0.3-0.5-0.8l2.1-5.2c0.2-0.5,0.6-0.8,1.1-0.8h14.2
		c1.9,0,3.2,0.6,3.9,1.9c0.8,1.3,0.8,2.8,0,4.6l-6.6,16c-0.2,0.5-0.6,0.8-1.1,0.8h-7c-0.5,0-0.7-0.3-0.5-0.8l3.1-7.5
		c0.1-0.2,0-0.4-0.2-0.4H298.6z"/>
</g>
<text transform="matrix(0.7725 0.6661 -0.653 0.7573 80.2005 274.0893)" class="st0 st2 st18">M</text>
<text transform="matrix(0.8317 0.5904 -0.5789 0.8154 91.8002 283.9199)" class="st0 st2 st18">e</text>
<text transform="matrix(0.8685 0.5291 -0.5291 0.8486 100.8896 290.2917)" class="st0 st2 st19">t</text>
<text transform="matrix(0.9021 0.4811 -0.4711 0.8821 107.1197 294.1796)" class="st0 st2 st20">o</text>
<text transform="matrix(0.927 0.4254 -0.4171 0.9089 116.5495 299.141)" class="st0 st2 st18">l</text>
<text transform="matrix(0.9517 0.3669 -0.3597 0.9331 122.8797 302.1006)" class="st0 st2 st18">o</text>
<text transform="matrix(0.9672 0.2892 -0.2892 0.9573 133.1302 306.0297)" class="st0 st2 st21">g</text>
<text transform="matrix(0.9931 0.2307 -0.2307 0.973 143.5808 309.0493)" class="st0 st2 st22">i</text>
<text transform="matrix(1.0048 0.1754 -0.1719 0.9851 148.7595 310.3411)" class="st0 st2 st18">a</text>
<text transform="matrix(1.0185 5.587143e-02 -5.477591e-02 0.9985 164.2597 312.7308)" class="st0 st2 st18">d</text>
<text transform="matrix(1.0197 -2.492082e-02 2.443218e-02 0.9997 174.7095 313.3103)" class="st0 st2 st18">e</text>
<text transform="matrix(1.0078 -0.1571 0.154 0.9881 190.88 312.631)" class="st0 st2 st18">H</text>
<text transform="matrix(0.9944 -0.227 0.2226 0.9749 204.2498 310.3806)" class="st0 st2 st18">i</text>
<text transform="matrix(0.9795 -0.2844 0.2788 0.9603 209.46 309.2597)" class="st0 st2 st18">p</text>
<text transform="matrix(0.9471 -0.3489 0.3489 0.9371 219.4094 306.3795)" class="st0 st2 st23">e</text>
<text transform="matrix(0.9314 -0.4158 0.4077 0.9131 229.5001 302.5902)" class="st0 st2 st18">r</text>
<text transform="matrix(0.9083 -0.4592 0.4592 0.8884 237.8603 298.8118)" class="st0 st2 st24">t</text>
<text transform="matrix(0.8842 -0.5085 0.4985 0.8669 244.3197 295.52)" class="st0 st2 st18">r</text>
<text transform="matrix(0.854 -0.5578 0.5468 0.8372 252.1098 291.0601)" class="st0 st2 st18">o</text>
<text transform="matrix(0.8183 -0.5987 0.5888 0.8083 261.0805 285.1411)" class="st0 st2 st25">f</text>
<text transform="matrix(0.8078 -0.6228 0.6106 0.792 266.5797 281.1305)" class="st0 st2 st18">i</text>
<text transform="matrix(0.7835 -0.653 0.6402 0.7682 270.6999 278.0108)" class="st0 st2 st18">a</text>
<rect x="56.2" y="212.4" class="st0" width="248.2" height="4.4"/>
<rect x="87.6" y="221.7" class="st0" width="185.5" height="4.4"/>
<polygon class="st0" points="107.8,236.9 111.9,245.4 121.3,246.7 114.5,253.3 116.1,262.6 107.8,258.2 99.4,262.6 101,253.3 
	94.2,246.7 103.6,245.4 "/>
<polygon class="st0" points="252.9,236.9 257.1,245.4 266.4,246.7 259.6,253.3 261.2,262.6 252.9,258.2 244.5,262.6 246.1,253.3 
	239.4,246.7 248.7,245.4 "/>
<polygon class="st0" points="142.4,263 145.9,270.1 153.7,271.2 148.1,276.7 149.4,284.5 142.4,280.8 135.5,284.5 136.8,276.7 
	131.2,271.2 139,270.1 "/>
<polygon class="st0" points="218.2,263 221.7,270.1 229.5,271.2 223.8,276.7 225.2,284.5 218.2,280.8 211.2,284.5 212.6,276.7 
	206.9,271.2 214.7,270.1 "/>
<polygon class="st0" points="180.3,268.6 184.2,276.5 193,277.8 186.7,284 188.2,292.8 180.3,288.6 172.5,292.8 174,284 
	167.6,277.8 176.4,276.5 "/>
<path class="st26" d="M166.3,89.8c0.5,8.1,1,16.2,1.4,24.3c3.7-2.4,8.1-3.6,12.5-3.4c4.4,0.3,8.6,1.7,12.2,4.2l0.7-0.7
	c3.7-4.2,8-7.2,13.7-8.1c4.9-0.7,10,0.3,14.3,2.8c1.2,0.6,2.3,1.3,3.4,2.1c1,0.7,1.2,1.6,0.6,2.4s-1.5,0.8-2.4,0.2
	c-3.7-2.8-8.3-4.4-13-4.5c-4.1,0-8,1.5-11,4.2c-1.4,1.2-2.6,2.4-3.8,3.5c1.2,1.8,2.3,3.4,3.2,5c0.5,0.9,0.8,2,0.9,3
	c0.2,0.8-0.3,1.5-1.1,1.7c-0.1,0-0.1,0-0.2,0c-0.8,0.1-1.6-0.5-1.7-1.3c0,0,0,0,0,0c-0.7-3.1-2.6-5.8-5.2-7.6
	c-6.7-5-15.9-5-22.5,0.1c-0.3,0.3-0.6,0.6-0.7,1c-0.6,1.4-1.1,3-1.8,4.3c-0.5,0.7-1.1,1.3-1.9,1.7c-0.7,0.4-1.6,0.1-2-0.6
	c0,0,0,0,0,0c-0.4-0.7-0.1-1.6,0.5-2.1c0.4-0.3,0.7-0.7,1-1.2c1-1.9,1.4-4,1.3-6.1c-0.6-7.5-0.9-15.1-1.4-22.6
	c-0.1-0.6-0.3-1.2-0.6-1.8c-0.2-0.4-0.7-0.7-0.8-1.1c-0.2-0.5-0.2-1.1-0.1-1.7c0.4-0.4,0.9-0.7,1.4-0.7c1.4-0.2,2.8-0.2,4.1-0.4
	c0.7-0.2,1.3-0.5,1.8-1c0.6-0.7,1.7-0.7,2.3-0.1c0,0,0.1,0.1,0.1,0.1c0.9,0.8,1.7,1.6,2.6,2.4c0.5,0.6,1.3,0.8,2,0.3
	c0.2-0.1,0.3-0.3,0.4-0.4c2.4-2.7,4.8-5.4,7.2-8c0.6-0.5,0.7-1.4,0.2-2c-2.5-3.3-5-6.5-7.6-9.9l-4.4,2c-6.3,2.9-12.6,5.7-18.9,8.6
	c-0.5,0.2-0.9,0.7-1,1.3c-2.7,9.9-5.5,19.7-8.2,29.6c-1.9,6.9-3.6,13.9-5.2,20.9c-0.2,1.5-0.3,3.1-0.2,4.6c0,0.2,0.3,0.4,0.4,0.6
	c0,0,0,0,0.1,0c4.6,1.3,7.9,4.6,11.7,7.2c4.1,3,8.5,5.5,13.1,7.4c5.7,2.2,11.7,2.6,17.7,2.4c5.7-0.3,11.4-1.1,17-2.4
	c0.5-0.1,1.1,0,1.6,0.2c6.7,3.3,14.2,4.9,21.6,4.5c0.6,0,1.3-0.1,1.9-0.2c0.9-0.2,1.7,0.4,1.8,1.3c0,0,0,0.1,0,0.1
	c0.1,0.8-0.5,1.6-1.4,1.7c-0.1,0-0.1,0-0.2,0c-2.4,0.1-4.7,0.3-7,0.1c-6.1-0.3-12.1-1.8-17.6-4.5c-0.5-0.2-1-0.2-1.5,0
	c-5.9,1.3-12,2.1-18.1,2.3c-10,0.4-19.9-2.6-28-8.5c-2.4-1.7-4.8-3.4-7.2-5.1c-1.9-1.5-4.1-2.6-6.3-3.5c-2.4-0.9-2.9-1.9-3.1-4.5
	c-0.2-4.1,0.9-7.9,2-11.8c3.9-14.7,8-29.3,12-43.9c0.3-1.2,1.1-2.1,2.2-2.7l24.4-11.2c0.7-0.5,1.7-0.3,2.2,0.4
	c0,0.1,0.1,0.1,0.1,0.2c2.7,3.6,5.5,7.1,8.2,10.7c1.4,1.7,1.3,4.2-0.2,5.8c-2.5,2.8-5,5.7-7.6,8.4c-1.5,1.8-4.2,2.1-6,0.6
	c-0.1-0.1-0.2-0.2-0.3-0.3c-1.2-1.2-2.3-1.8-3.9-0.8C167.7,89.6,167,89.7,166.3,89.8z"/>
<path class="st0" d="M219.2,81.5v3.9c0,1.5-0.5,2-2,2h-11.6c-1.4,0-1.9-0.6-2-2s0-2.6,0-4c-1.5,0-2.8,0-4.2,0c-0.8,0-1.6-0.1-2-0.9
	c-0.2-0.7-0.1-1.5,0.5-2l11.9-15.1c0.5-0.8,1.7-1.1,2.5-0.5c0.2,0.1,0.4,0.3,0.5,0.5l12,15.2c0.6,0.5,0.7,1.3,0.4,2
	c-0.4,0.7-1.1,1.1-1.9,0.9H219.2z M211.4,66.6l-9.1,11.6c0.1,0.1,0.2,0.1,0.2,0.1h2.4c1.4,0,1.9,0.5,1.9,1.9s0,2.6,0,4h9.3
	c0-1.3,0-2.6,0-3.9s0.5-2,2-2h2.6C217.5,74.4,214.5,70.6,211.4,66.6z"/>
<path class="st26" d="M179.8,147.5c-10.7-0.2-18.8-3.7-24.9-11.4c-0.3-0.4-0.6-0.8-0.8-1.2c-0.4-0.8-0.1-1.7,0.7-2.1
	c0.6-0.3,1.4-0.2,1.9,0.4c0.5,0.6,1,1.4,1.5,2c6.1,7,13.8,9.7,22.9,9.1c1.7-0.1,3.4-0.4,5-0.7c0.8-0.2,1.7,0.2,2,1.1
	c0,0,0,0.1,0,0.1c0.2,0.8-0.4,1.6-1.2,1.8c-0.1,0-0.1,0-0.2,0C184.1,146.9,181.4,147.3,179.8,147.5z"/>
<path class="st0" d="M211.4,96.8c-2,0-4,0-5.9,0c-1.3,0-1.8-0.6-1.8-1.8s0-2.8,0-4.2c0-1.2,0.6-1.8,1.9-1.8c4,0,7.9,0,11.9,0
	c1.2,0,1.8,0.6,1.8,1.8c0,1.4,0,2.8,0,4.2c0,1.2-0.6,1.8-1.8,1.8C215.4,96.8,213.4,96.8,211.4,96.8z M216.1,92.2h-9.2v1.4h9.2V92.2z
	"/>
<path class="st0" d="M211.5,101.4c-2,0-4,0-5.9,0c-1.2,0-1.9-0.6-1.9-1.6s0.7-1.5,1.9-1.5c3.9,0,7.9,0,11.9,0c1.1,0,1.8,0.6,1.8,1.5
	s-0.6,1.5-1.8,1.6C215.4,101.5,213.5,101.4,211.5,101.4z"/>
<path class="st26" d="M213,136c0-1,0.4-1.6,1.1-1.8c0.7-0.3,1.5,0.1,1.7,0.8c0,0,0,0,0,0c0.3,0.9,1.1,1.6,2,1.9
	c2,0.7,4.1,1.3,6.1,1.8c0.9,0.3,1.5,0.8,1.4,1.6c0,0.7-0.5,1.3-1.2,1.5c-0.2,0-0.4,0-0.6,0c-2.8-0.3-5.4-1.2-7.9-2.5
	c-0.9-0.7-1.8-1.5-2.5-2.4C213.2,136.6,213.1,136.3,213,136z"/>
</svg>
