<svg id="Capa_1" data-name="Capa 1" xmlns="http://www.w3.org/2000/svg" viewBox="0 0 360.63 360.65"><defs><style>.cls-1,.cls-3,.cls-4,.cls-8,.cls-9{fill:#700000;}.cls-2{fill:#fff;}.cls-3{font-size:47.19px;}.cls-3,.cls-4,.cls-8{font-family:PervitinaDex, Pervitina Dex;}.cls-4{font-size:45.44px;}.cls-5{letter-spacing:-0.04em;}.cls-6{letter-spacing:-0.02em;}.cls-7{letter-spacing:0.01em;}.cls-8{font-size:16px;}.cls-9{stroke:#700000;stroke-miterlimit:10;stroke-width:1.49px;}</style></defs><circle class="cls-1" cx="180.32" cy="180.32" r="163.39"/><circle class="cls-2" cx="180.32" cy="180.32" r="146.71"/><text class="cls-3" transform="translate(40.44 178.97) rotate(-86.92) scale(1.02 1)">.</text><text class="cls-3" transform="translate(41.05 167.09) rotate(-82.07) scale(1.02 1)">.</text><text class="cls-3" transform="translate(42.66 155.32) rotate(-77.18) scale(1.02 1)">.</text><text class="cls-3" transform="translate(45.26 143.73) rotate(-72.28) scale(1.02 1)">.</text><text class="cls-3" transform="translate(48.85 132.39) rotate(-67.37) scale(1.02 1)">.</text><text class="cls-3" transform="matrix(0.47, -0.9, 0.89, 0.46, 53.4, 121.41)">.</text><text class="cls-3" transform="translate(58.86 110.87) rotate(-57.61) scale(1.02 1)">.</text><text class="cls-3" transform="translate(65.22 100.79) rotate(-52.74) scale(1.02 1)">.</text><text class="cls-3" transform="matrix(0.68, -0.75, 0.74, 0.67, 72.38, 91.34)">.</text><text class="cls-3" transform="translate(80.33 82.49) rotate(-43.06) scale(1.02 1)">.</text><text class="cls-3" transform="translate(89.02 74.34) rotate(-38.2) scale(1.02 1)">.</text><text class="cls-3" transform="translate(98.33 66.97) rotate(-33.35) scale(1.02 1)">.</text><text class="cls-3" transform="matrix(0.89, -0.48, 0.48, 0.88, 108.25, 60.41)">.</text><text class="cls-3" transform="translate(118.67 54.72) rotate(-23.6) scale(1.02 1)">.</text><text class="cls-3" transform="translate(129.54 49.94) rotate(-18.7) scale(1.02 1)">.</text><text class="cls-3" transform="translate(140.81 46.09) rotate(-13.78) scale(1.02 1)">.</text><text class="cls-3" transform="translate(152.33 43.24) rotate(-8.89) scale(1.02 1)">.</text><text class="cls-3" transform="translate(164.07 41.37) rotate(-4.03) scale(1.02 1)">.</text><text class="cls-3" transform="translate(175.92 40.49) rotate(0.93) scale(1.02 1)">.</text><text class="cls-3" transform="translate(187.82 40.64) rotate(5.58) scale(1.02 1)">.</text><text class="cls-3" transform="matrix(1, 0.18, -0.18, 0.98, 199.65, 41.76)">.</text><text class="cls-3" transform="translate(211.34 43.89) rotate(15.35) scale(1.02 1)">.</text><text class="cls-3" transform="translate(222.82 47.01) rotate(20.26) scale(1.02 1)">.</text><text class="cls-3" transform="matrix(0.92, 0.43, -0.43, 0.91, 233.97, 51.09)">.</text><text class="cls-3" transform="translate(244.75 56.13) rotate(30.05) scale(1.02 1)">.</text><text class="cls-3" transform="matrix(0.83, 0.58, -0.57, 0.82, 255.05, 62.05)">.</text><text class="cls-3" transform="matrix(0.78, 0.65, -0.64, 0.77, 264.82, 68.84)">.</text><text class="cls-3" transform="translate(273.97 76.41) rotate(44.61) scale(1.02 1)">.</text><text class="cls-3" transform="matrix(0.66, 0.77, -0.76, 0.65, 282.46, 84.75)">.</text><text class="cls-3" transform="translate(290.21 93.77) rotate(54.3) scale(1.02 1)">.</text><text class="cls-3" transform="translate(297.16 103.39) rotate(59.16) scale(1.02 1)">.</text><text class="cls-3" transform="translate(303.29 113.58) rotate(64.04) scale(1.02 1)">.</text><text class="cls-3" transform="matrix(0.37, 0.95, -0.93, 0.36, 308.51, 124.26)">.</text><text class="cls-3" transform="translate(312.81 135.33) rotate(73.84) scale(1.02 1)">.</text><text class="cls-3" transform="translate(316.15 146.74) rotate(78.75) scale(1.02 1)">.</text><text class="cls-3" transform="matrix(0.11, 1.01, -0.99, 0.11, 318.49, 158.39)">.</text><text class="cls-3" transform="translate(320.19 181.68) rotate(93.08) scale(1.02 1)">.</text><text class="cls-3" transform="translate(319.58 193.56) rotate(97.93) scale(1.02 1)">.</text><text class="cls-3" transform="translate(317.97 205.33) rotate(102.82) scale(1.02 1)">.</text><text class="cls-3" transform="translate(315.37 216.92) rotate(107.72) scale(1.02 1)">.</text><text class="cls-3" transform="translate(311.78 228.25) rotate(112.63) scale(1.02 1)">.</text><text class="cls-3" transform="matrix(-0.47, 0.9, -0.89, -0.46, 307.23, 239.24)">.</text><text class="cls-3" transform="translate(301.77 249.78) rotate(122.4) scale(1.02 1)">.</text><text class="cls-3" transform="translate(295.41 259.85) rotate(127.26) scale(1.02 1)">.</text><text class="cls-3" transform="matrix(-0.68, 0.75, -0.74, -0.67, 288.25, 269.31)">.</text><text class="cls-3" transform="translate(280.3 278.16) rotate(136.94) scale(1.02 1)">.</text><text class="cls-3" transform="translate(271.61 286.31) rotate(141.8) scale(1.02 1)">.</text><text class="cls-3" transform="matrix(-0.85, 0.56, -0.55, -0.84, 262.3, 293.68)">.</text><text class="cls-3" transform="matrix(-0.89, 0.48, -0.48, -0.88, 252.38, 300.24)">.</text><text class="cls-3" transform="matrix(-0.93, 0.41, -0.4, -0.92, 241.96, 305.93)">.</text><text class="cls-3" transform="translate(231.09 310.71) rotate(161.3) scale(1.02 1)">.</text><text class="cls-3" transform="translate(219.82 314.55) rotate(166.22) scale(1.02 1)">.</text><text class="cls-3" transform="translate(208.3 317.41) rotate(171.11) scale(1.02 1)">.</text><text class="cls-3" transform="translate(196.56 319.28) rotate(175.97) scale(1.02 1)">.</text><text class="cls-3" transform="translate(184.71 320.16) rotate(-179.07) scale(1.02 1)">.</text><text class="cls-3" transform="translate(172.81 320.01) rotate(-174.42) scale(1.02 1)">.</text><text class="cls-3" transform="matrix(-1, -0.18, 0.18, -0.98, 160.98, 318.89)">.</text><text class="cls-3" transform="translate(149.29 316.76) rotate(-164.65) scale(1.02 1)">.</text><text class="cls-3" transform="translate(137.81 313.64) rotate(-159.74) scale(1.02 1)">.</text><text class="cls-3" transform="translate(126.66 309.55) rotate(-154.84) scale(1.02 1)">.</text><text class="cls-3" transform="translate(115.88 304.52) rotate(-149.95) scale(1.02 1)">.</text><text class="cls-3" transform="matrix(-0.83, -0.58, 0.57, -0.82, 105.58, 298.6)">.</text><text class="cls-3" transform="matrix(-0.78, -0.65, 0.64, -0.77, 95.81, 291.81)">.</text><text class="cls-3" transform="translate(86.66 284.24) rotate(-135.39) scale(1.02 1)">.</text><text class="cls-3" transform="translate(78.17 275.9) rotate(-130.55) scale(1.02 1)">.</text><text class="cls-3" transform="matrix(-0.59, -0.83, 0.81, -0.58, 70.42, 266.88)">.</text><text class="cls-3" transform="translate(63.47 257.26) rotate(-120.84) scale(1.02 1)">.</text><text class="cls-3" transform="translate(57.34 247.06) rotate(-115.96) scale(1.02 1)">.</text><text class="cls-3" transform="translate(52.12 236.39) rotate(-111.06) scale(1.02 1)">.</text><text class="cls-3" transform="translate(47.82 225.32) rotate(-106.16) scale(1.02 1)">.</text><text class="cls-3" transform="translate(44.49 213.91) rotate(-101.25) scale(1.02 1)">.</text><text class="cls-3" transform="matrix(-0.11, -1.01, 0.99, -0.11, 42.14, 202.26)">.</text><text class="cls-4" transform="translate(43.64 196.04) scale(1.02 1)">Hi<tspan class="cls-5" x="50.17" y="0">p</tspan><tspan class="cls-6" x="77.66" y="0">e</tspan><tspan class="cls-7" x="106.47" y="0">r</tspan><tspan x="131.05" y="0">trofia</tspan></text><text class="cls-8" transform="translate(80.2 274.09) rotate(40.77) scale(1.02 1)">M</text><text class="cls-8" transform="translate(91.8 283.92) rotate(35.37) scale(1.02 1)">e</text><text class="cls-8" transform="matrix(0.87, 0.53, -0.53, 0.85, 100.89, 290.29)">t</text><text class="cls-8" transform="matrix(0.9, 0.48, -0.47, 0.88, 107.12, 294.18)">o</text><text class="cls-8" transform="translate(116.55 299.14) rotate(24.65) scale(1.02 1)">l</text><text class="cls-8" transform="translate(122.88 302.1) rotate(21.08) scale(1.02 1)">o</text><text class="cls-8" transform="matrix(0.97, 0.29, -0.29, 0.96, 133.13, 306.03)">g</text><text class="cls-8" transform="matrix(0.99, 0.23, -0.23, 0.97, 143.58, 309.05)">i</text><text class="cls-8" transform="translate(148.76 310.34) rotate(9.9) scale(1.02 1)">a</text><text class="cls-8" transform="matrix(1.01, 0.12, -0.11, 0.99, 159.25, 312.08)"> </text><text class="cls-8" transform="translate(164.26 312.73) rotate(3.14) scale(1.02 1)">d</text><text class="cls-8" transform="translate(174.71 313.31) rotate(-1.4) scale(1.02 1)">e</text><text class="cls-8" transform="translate(185.77 312.93) rotate(-4.87) scale(1.02 1)"> </text><text class="cls-8" transform="translate(190.88 312.63) rotate(-8.86) scale(1.02 1)">H</text><text class="cls-8" transform="translate(204.25 310.38) rotate(-12.86) scale(1.02 1)">i</text><text class="cls-8" transform="translate(209.46 309.26) rotate(-16.19) scale(1.02 1)">p</text><text class="cls-8" transform="matrix(0.95, -0.35, 0.35, 0.94, 219.41, 306.38)">e</text><text class="cls-8" transform="translate(229.5 302.59) rotate(-24.06) scale(1.02 1)">r</text><text class="cls-8" transform="matrix(0.91, -0.46, 0.46, 0.89, 237.86, 298.81)">t</text><text class="cls-8" transform="translate(244.32 295.52) rotate(-29.9) scale(1.02 1)">r</text><text class="cls-8" transform="translate(252.11 291.06) rotate(-33.15) scale(1.02 1)">o</text><text class="cls-8" transform="matrix(0.82, -0.6, 0.59, 0.81, 261.08, 285.14)">f</text><text class="cls-8" transform="translate(266.58 281.13) rotate(-37.63) scale(1.02 1)">i</text><text class="cls-8" transform="translate(270.7 278.01) rotate(-39.81) scale(1.02 1)">a</text><rect class="cls-1" x="56.23" y="212.41" width="248.17" height="4.43"/><rect class="cls-1" x="87.55" y="221.67" width="185.53" height="4.43"/><polygon class="cls-1" points="107.75 236.89 111.93 245.36 121.28 246.72 114.52 253.31 116.11 262.62 107.75 258.23 99.39 262.62 100.99 253.31 94.22 246.72 103.57 245.36 107.75 236.89"/><polygon class="cls-1" points="252.88 236.89 257.06 245.36 266.41 246.72 259.64 253.31 261.24 262.62 252.88 258.23 244.52 262.62 246.11 253.31 239.35 246.72 248.7 245.36 252.88 236.89"/><polygon class="cls-1" points="142.44 263.04 145.92 270.09 153.7 271.22 148.07 276.71 149.4 284.46 142.44 280.81 135.48 284.46 136.81 276.71 131.17 271.22 138.96 270.09 142.44 263.04"/><polygon class="cls-1" points="218.19 263.04 221.68 270.09 229.46 271.22 223.83 276.71 225.16 284.46 218.19 280.81 211.23 284.46 212.56 276.71 206.93 271.22 214.71 270.09 218.19 263.04"/><polygon class="cls-1" points="180.32 268.58 184.24 276.54 193.03 277.81 186.67 284.01 188.17 292.76 180.32 288.63 172.46 292.76 173.96 284.01 167.6 277.81 176.39 276.54 180.32 268.58"/><path class="cls-9" d="M162.91,92.43c.48,8.12,1,16.16,1.44,24.35a21.75,21.75,0,0,1,12.53-3.45,24.49,24.49,0,0,1,12.22,4.15l.66-.73c3.67-4.2,8-7.24,13.66-8.11a22.84,22.84,0,0,1,14.32,2.77,32.83,32.83,0,0,1,3.37,2.12c1,.68,1.21,1.58.65,2.36s-1.46.85-2.45.16a22.3,22.3,0,0,0-13-4.52,16.69,16.69,0,0,0-11,4.21c-1.37,1.15-2.63,2.43-3.78,3.51,1.18,1.84,2.29,3.37,3.18,5a9.58,9.58,0,0,1,.89,3,1.43,1.43,0,0,1-1.3,1.71,1.51,1.51,0,0,1-1.71-1.32,12.69,12.69,0,0,0-5.2-7.56,18.57,18.57,0,0,0-22.48.14,2.46,2.46,0,0,0-.72,1c-.62,1.44-1.09,3-1.83,4.33a5,5,0,0,1-1.85,1.72,1.47,1.47,0,0,1-2-.67,1.6,1.6,0,0,1,.53-2.05,3.82,3.82,0,0,0,1-1.17,11.75,11.75,0,0,0,1.29-6.06c-.56-7.53-.92-15.07-1.4-22.61a5,5,0,0,0-.64-1.75c-.21-.4-.67-.71-.8-1.12a2.6,2.6,0,0,1-.08-1.71,2.1,2.1,0,0,1,1.43-.74c1.37-.2,2.78-.18,4.13-.43a4.06,4.06,0,0,0,1.78-1,1.64,1.64,0,0,1,2.4,0c.89.78,1.74,1.6,2.6,2.39a1.42,1.42,0,0,0,2.38-.12c2.39-2.67,4.77-5.36,7.17-8a1.44,1.44,0,0,0,.18-2c-2.49-3.27-5-6.53-7.56-9.86l-4.37,2q-9.45,4.31-18.9,8.6a1.78,1.78,0,0,0-1,1.3c-2.72,9.86-5.52,19.69-8.17,29.57-1.86,6.92-3.57,13.88-5.23,20.86a20.85,20.85,0,0,0-.17,4.62c0,.21.27.42.42.63,0,0,0,0,.08,0,4.57,1.31,7.94,4.57,11.7,7.2a63,63,0,0,0,13.12,7.43c5.72,2.21,11.68,2.61,17.72,2.35a87.57,87.57,0,0,0,17-2.43,2.51,2.51,0,0,1,1.59.22,44.31,44.31,0,0,0,21.65,4.51c.65,0,1.29-.13,1.94-.16a1.59,1.59,0,0,1,1.86,1.39,1.54,1.54,0,0,1-1.57,1.7c-2.35.11-4.71.27-7,.15a46.42,46.42,0,0,1-17.59-4.48,2.49,2.49,0,0,0-1.5,0,95.05,95.05,0,0,1-18.1,2.27,44.87,44.87,0,0,1-28-8.5c-2.41-1.69-4.84-3.35-7.16-5.14A22.9,22.9,0,0,0,134.9,141c-2.4-.88-2.94-1.92-3.07-4.48-.2-4.08.94-7.91,2-11.75,3.93-14.65,8-29.27,12-43.91A3.89,3.89,0,0,1,148,78.21l24.45-11.16a1.56,1.56,0,0,1,2.27.54c2.74,3.55,5.49,7.1,8.19,10.68a4.39,4.39,0,0,1-.21,5.8q-3.74,4.26-7.55,8.44a4.24,4.24,0,0,1-6.29.27c-1.22-1.21-2.27-1.85-3.91-.84A6.62,6.62,0,0,1,162.91,92.43Z" transform="translate(3.38 -2.66)"/><path class="cls-1" d="M215.83,84.17v3.92c0,1.5-.52,2-2,2h-11.6c-1.4,0-1.94-.56-2-2s0-2.58,0-4c-1.46,0-2.81,0-4.17,0-.81,0-1.57-.1-2-.93a1.87,1.87,0,0,1,.5-2l11.9-15.07a1.8,1.8,0,0,1,3,0l12,15.15a1.76,1.76,0,0,1,.44,2,1.8,1.8,0,0,1-1.87.93ZM208,69.3l-9.15,11.6c.14.09.17.12.19.12l2.41,0c1.37,0,1.89.54,1.9,1.91s0,2.64,0,4h9.34c0-1.35,0-2.64,0-3.94s.54-2,2-2h2.61C214.14,77.05,211.14,73.24,208,69.3Z" transform="translate(3.38 -2.66)"/><path class="cls-9" d="M176.45,150.14c-10.74-.21-18.82-3.72-24.9-11.42a7.72,7.72,0,0,1-.83-1.22,1.54,1.54,0,0,1,2.55-1.69c.53.65,1,1.37,1.51,2,6.07,7,13.84,9.68,22.9,9.06,1.69-.12,3.37-.45,5-.7a1.58,1.58,0,0,1,2,1.21,1.53,1.53,0,0,1-1.4,1.83C180.67,149.6,178,149.92,176.45,150.14Z" transform="translate(3.38 -2.66)"/><path class="cls-1" d="M208.05,99.44c-2,0-4,0-5.93,0-1.25,0-1.81-.55-1.83-1.81s0-2.78,0-4.17c0-1.23.6-1.79,1.85-1.79,4,0,7.91,0,11.87,0,1.24,0,1.8.58,1.81,1.82q0,2.08,0,4.17c0,1.23-.57,1.78-1.84,1.78C212,99.45,210,99.44,208.05,99.44Zm4.62-4.6h-9.23v1.43h9.23Z" transform="translate(3.38 -2.66)"/><path class="cls-1" d="M208.1,104.1c-2,0-4,0-5.94,0-1.18,0-1.88-.61-1.86-1.58s.7-1.51,1.85-1.51c3.95,0,7.91,0,11.86,0,1.15,0,1.81.6,1.81,1.54s-.65,1.54-1.79,1.55C212.05,104.11,210.07,104.1,208.1,104.1Z" transform="translate(3.38 -2.66)"/><path class="cls-9" d="M209.65,138.66c0-1,.36-1.6,1.13-1.82a1.36,1.36,0,0,1,1.76.83,3.08,3.08,0,0,0,2,1.93c2,.69,4.06,1.25,6.1,1.82.88.25,1.46.81,1.42,1.59a1.5,1.5,0,0,1-1.18,1.48,1.28,1.28,0,0,1-.55,0,21.21,21.21,0,0,1-7.88-2.54,13.19,13.19,0,0,1-2.48-2.42A2.08,2.08,0,0,1,209.65,138.66Z" transform="translate(3.38 -2.66)"/></svg>