<svg id="Capa_1" data-name="Capa 1" xmlns="http://www.w3.org/2000/svg" viewBox="0 0 360.63 360.65"><defs><style>.cls-1,.cls-3,.cls-4,.cls-8,.cls-9{fill:#700000;}.cls-2{fill:#fff;}.cls-3{font-size:47.19px;}.cls-3,.cls-4,.cls-8{font-family:PervitinaDex, Pervitina Dex;}.cls-4{font-size:45.44px;}.cls-5{letter-spacing:-0.01em;}.cls-6{letter-spacing:0em;}.cls-7{letter-spacing:-0.01em;}.cls-8{font-size:15px;}.cls-9{stroke:#700000;stroke-miterlimit:10;}</style></defs><circle class="cls-1" cx="180.32" cy="180.32" r="163.39"/><circle class="cls-2" cx="180.32" cy="180.32" r="146.71"/><text class="cls-3" transform="translate(40.44 178.97) rotate(-86.92) scale(1.02 1)">.</text><text class="cls-3" transform="translate(41.05 167.09) rotate(-82.07) scale(1.02 1)">.</text><text class="cls-3" transform="translate(42.66 155.32) rotate(-77.18) scale(1.02 1)">.</text><text class="cls-3" transform="translate(45.26 143.73) rotate(-72.28) scale(1.02 1)">.</text><text class="cls-3" transform="translate(48.85 132.39) rotate(-67.37) scale(1.02 1)">.</text><text class="cls-3" transform="matrix(0.47, -0.9, 0.89, 0.46, 53.4, 121.41)">.</text><text class="cls-3" transform="translate(58.86 110.87) rotate(-57.61) scale(1.02 1)">.</text><text class="cls-3" transform="translate(65.22 100.79) rotate(-52.74) scale(1.02 1)">.</text><text class="cls-3" transform="matrix(0.68, -0.75, 0.74, 0.67, 72.38, 91.34)">.</text><text class="cls-3" transform="translate(80.33 82.49) rotate(-43.06) scale(1.02 1)">.</text><text class="cls-3" transform="translate(89.02 74.34) rotate(-38.2) scale(1.02 1)">.</text><text class="cls-3" transform="translate(98.33 66.97) rotate(-33.35) scale(1.02 1)">.</text><text class="cls-3" transform="matrix(0.89, -0.48, 0.48, 0.88, 108.25, 60.41)">.</text><text class="cls-3" transform="translate(118.67 54.72) rotate(-23.6) scale(1.02 1)">.</text><text class="cls-3" transform="translate(129.54 49.94) rotate(-18.7) scale(1.02 1)">.</text><text class="cls-3" transform="translate(140.81 46.09) rotate(-13.78) scale(1.02 1)">.</text><text class="cls-3" transform="translate(152.33 43.24) rotate(-8.89) scale(1.02 1)">.</text><text class="cls-3" transform="translate(164.07 41.37) rotate(-4.03) scale(1.02 1)">.</text><text class="cls-3" transform="translate(175.92 40.49) rotate(0.93) scale(1.02 1)">.</text><text class="cls-3" transform="translate(187.82 40.64) rotate(5.58) scale(1.02 1)">.</text><text class="cls-3" transform="matrix(1, 0.18, -0.18, 0.98, 199.65, 41.76)">.</text><text class="cls-3" transform="translate(211.34 43.89) rotate(15.35) scale(1.02 1)">.</text><text class="cls-3" transform="translate(222.82 47.01) rotate(20.26) scale(1.02 1)">.</text><text class="cls-3" transform="matrix(0.92, 0.43, -0.43, 0.91, 233.97, 51.09)">.</text><text class="cls-3" transform="translate(244.75 56.13) rotate(30.05) scale(1.02 1)">.</text><text class="cls-3" transform="matrix(0.83, 0.58, -0.57, 0.82, 255.05, 62.05)">.</text><text class="cls-3" transform="matrix(0.78, 0.65, -0.64, 0.77, 264.82, 68.84)">.</text><text class="cls-3" transform="translate(273.97 76.41) rotate(44.61) scale(1.02 1)">.</text><text class="cls-3" transform="matrix(0.66, 0.77, -0.76, 0.65, 282.46, 84.75)">.</text><text class="cls-3" transform="translate(290.21 93.77) rotate(54.3) scale(1.02 1)">.</text><text class="cls-3" transform="translate(297.16 103.39) rotate(59.16) scale(1.02 1)">.</text><text class="cls-3" transform="translate(303.29 113.58) rotate(64.04) scale(1.02 1)">.</text><text class="cls-3" transform="matrix(0.37, 0.95, -0.93, 0.36, 308.51, 124.26)">.</text><text class="cls-3" transform="translate(312.81 135.33) rotate(73.84) scale(1.02 1)">.</text><text class="cls-3" transform="translate(316.15 146.74) rotate(78.75) scale(1.02 1)">.</text><text class="cls-3" transform="matrix(0.11, 1.01, -0.99, 0.11, 318.49, 158.39)">.</text><text class="cls-3" transform="translate(320.19 181.68) rotate(93.08) scale(1.02 1)">.</text><text class="cls-3" transform="translate(319.58 193.56) rotate(97.93) scale(1.02 1)">.</text><text class="cls-3" transform="translate(317.97 205.33) rotate(102.82) scale(1.02 1)">.</text><text class="cls-3" transform="translate(315.37 216.92) rotate(107.72) scale(1.02 1)">.</text><text class="cls-3" transform="translate(311.78 228.25) rotate(112.63) scale(1.02 1)">.</text><text class="cls-3" transform="matrix(-0.47, 0.9, -0.89, -0.46, 307.23, 239.24)">.</text><text class="cls-3" transform="translate(301.77 249.78) rotate(122.4) scale(1.02 1)">.</text><text class="cls-3" transform="translate(295.41 259.85) rotate(127.26) scale(1.02 1)">.</text><text class="cls-3" transform="matrix(-0.68, 0.75, -0.74, -0.67, 288.25, 269.31)">.</text><text class="cls-3" transform="translate(280.3 278.16) rotate(136.94) scale(1.02 1)">.</text><text class="cls-3" transform="translate(271.61 286.31) rotate(141.8) scale(1.02 1)">.</text><text class="cls-3" transform="matrix(-0.85, 0.56, -0.55, -0.84, 262.3, 293.68)">.</text><text class="cls-3" transform="matrix(-0.89, 0.48, -0.48, -0.88, 252.38, 300.24)">.</text><text class="cls-3" transform="matrix(-0.93, 0.41, -0.4, -0.92, 241.96, 305.93)">.</text><text class="cls-3" transform="translate(231.09 310.71) rotate(161.3) scale(1.02 1)">.</text><text class="cls-3" transform="translate(219.82 314.55) rotate(166.22) scale(1.02 1)">.</text><text class="cls-3" transform="translate(208.3 317.41) rotate(171.11) scale(1.02 1)">.</text><text class="cls-3" transform="translate(196.56 319.28) rotate(175.97) scale(1.02 1)">.</text><text class="cls-3" transform="translate(184.71 320.16) rotate(-179.07) scale(1.02 1)">.</text><text class="cls-3" transform="translate(172.81 320.01) rotate(-174.42) scale(1.02 1)">.</text><text class="cls-3" transform="matrix(-1, -0.18, 0.18, -0.98, 160.98, 318.89)">.</text><text class="cls-3" transform="translate(149.29 316.76) rotate(-164.65) scale(1.02 1)">.</text><text class="cls-3" transform="translate(137.81 313.64) rotate(-159.74) scale(1.02 1)">.</text><text class="cls-3" transform="translate(126.66 309.55) rotate(-154.84) scale(1.02 1)">.</text><text class="cls-3" transform="translate(115.88 304.52) rotate(-149.95) scale(1.02 1)">.</text><text class="cls-3" transform="matrix(-0.83, -0.58, 0.57, -0.82, 105.58, 298.6)">.</text><text class="cls-3" transform="matrix(-0.78, -0.65, 0.64, -0.77, 95.81, 291.81)">.</text><text class="cls-3" transform="translate(86.66 284.24) rotate(-135.39) scale(1.02 1)">.</text><text class="cls-3" transform="translate(78.17 275.9) rotate(-130.55) scale(1.02 1)">.</text><text class="cls-3" transform="matrix(-0.59, -0.83, 0.81, -0.58, 70.42, 266.88)">.</text><text class="cls-3" transform="translate(63.47 257.26) rotate(-120.84) scale(1.02 1)">.</text><text class="cls-3" transform="translate(57.34 247.06) rotate(-115.96) scale(1.02 1)">.</text><text class="cls-3" transform="translate(52.12 236.39) rotate(-111.06) scale(1.02 1)">.</text><text class="cls-3" transform="translate(47.82 225.32) rotate(-106.16) scale(1.02 1)">.</text><text class="cls-3" transform="translate(44.49 213.91) rotate(-101.25) scale(1.02 1)">.</text><text class="cls-3" transform="matrix(-0.11, -1.01, 0.99, -0.11, 42.14, 202.26)">.</text><text class="cls-4" transform="translate(43.64 196.04) scale(1.02 1)">Met<tspan class="cls-5" x="89.56" y="0">a</tspan><tspan class="cls-6" x="117.69" y="0">b</tspan><tspan class="cls-7" x="147.28" y="0">รณ</tspan><tspan x="175.95" y="0">lico</tspan></text><text class="cls-8" transform="translate(75.14 266.72) rotate(45.35) scale(1.02 1)">M</text><text class="cls-8" transform="translate(85.23 276.77) rotate(40.04) scale(1.02 1)">e</text><text class="cls-8" transform="translate(93.22 283.39) rotate(36.53) scale(1.02 1)">t</text><text class="cls-8" transform="matrix(0.85, 0.56, -0.55, 0.84, 98.7, 287.5)">o</text><text class="cls-8" transform="translate(107.06 292.89) rotate(29.91) scale(1.02 1)">l</text><text class="cls-8" transform="matrix(0.91, 0.46, -0.45, 0.89, 112.7, 296.18)">o</text><text class="cls-8" transform="matrix(0.94, 0.39, -0.38, 0.92, 121.88, 300.76)">g</text><text class="cls-8" transform="matrix(0.96, 0.34, -0.33, 0.94, 131.29, 304.58)">i</text><text class="cls-8" transform="translate(135.95 306.29) rotate(16.44) scale(1.02 1)">a</text><text class="cls-8" transform="translate(145.48 309.02) rotate(13.42) scale(1.02 1)"> </text><text class="cls-8" transform="matrix(1, 0.18, -0.18, 0.98, 150.02, 310.17)">p</text><text class="cls-8" transform="translate(160.1 311.98) rotate(6) scale(1.02 1)">a</text><text class="cls-8" transform="translate(170.11 312.99) rotate(2.02) scale(1.02 1)">r</text><text class="cls-8" transform="translate(178.59 313.3) rotate(-1.99) scale(1.02 1)">a</text><text class="cls-8" transform="translate(188.56 312.87) rotate(-5.15) scale(1.02 1)"> </text><text class="cls-8" transform="translate(193.23 312.52) rotate(-8.33) scale(1.02 1)">p</text><text class="cls-8" transform="translate(202.83 311.12) rotate(-12.46) scale(1.02 1)">e</text><text class="cls-8" transform="translate(212.69 308.9) rotate(-16.22) scale(1.02 1)">r</text><text class="cls-8" transform="translate(220.83 306.55) rotate(-19.96) scale(1.02 1)">d</text><text class="cls-8" transform="matrix(0.93, -0.41, 0.4, 0.92, 229.99, 303.23)">e</text><text class="cls-8" transform="translate(239.17 299.16) rotate(-27.02) scale(1.02 1)">r</text><text class="cls-8" transform="matrix(0.89, -0.5, 0.49, 0.87, 246.54, 295.36)"> </text><text class="cls-8" transform="translate(250.58 293.15) rotate(-31.73) scale(1.02 1)">g</text><text class="cls-8" transform="translate(259.21 287.78) rotate(-34.67) scale(1.02 1)">r</text><text class="cls-8" transform="translate(266.07 283.04) rotate(-37.39) scale(1.02 1)">a</text><text class="cls-8" transform="matrix(0.78, -0.65, 0.64, 0.77, 273.93, 277.01)">s</text><text class="cls-8" transform="matrix(0.75, -0.69, 0.68, 0.74, 280.82, 271.23)">a</text><rect class="cls-1" x="56.23" y="212.41" width="248.17" height="4.43"/><rect class="cls-1" x="87.55" y="221.67" width="185.53" height="4.43"/><polygon class="cls-1" points="105.74 236.89 109.92 245.36 119.27 246.72 112.51 253.31 114.11 262.62 105.74 258.23 97.38 262.62 98.98 253.31 92.22 246.72 101.56 245.36 105.74 236.89"/><polygon class="cls-1" points="250.87 236.89 255.05 245.36 264.4 246.72 257.64 253.31 259.23 262.62 250.87 258.23 242.51 262.62 244.11 253.31 237.34 246.72 246.69 245.36 250.87 236.89"/><polygon class="cls-1" points="140.43 263.04 143.91 270.09 151.69 271.22 146.06 276.71 147.39 284.46 140.43 280.81 133.47 284.46 134.8 276.71 129.17 271.22 136.95 270.09 140.43 263.04"/><polygon class="cls-1" points="216.19 263.04 219.67 270.09 227.45 271.22 221.82 276.71 223.15 284.46 216.19 280.81 209.23 284.46 210.56 276.71 204.92 271.22 212.71 270.09 216.19 263.04"/><polygon class="cls-1" points="178.31 268.58 182.24 276.54 191.02 277.81 184.66 284.01 186.16 292.76 178.31 288.63 170.45 292.76 171.95 284.01 165.6 277.81 174.38 276.54 178.31 268.58"/><path class="cls-9" d="M127.88,133.09c.19-1.79.33-3.59.57-5.38.55-4,1.39-7.94,3.64-11.39a2.25,2.25,0,0,0,.27-2.55,9.09,9.09,0,0,1,.28-8,2.12,2.12,0,0,0,.1-1.76,17,17,0,0,1,.37-12.16,11.65,11.65,0,0,1,4.17-5.29c2.3-1.61,2.39-2.37.52-4.46-2.29-2.58-3.07-5.73-3.54-9a19.26,19.26,0,0,1,0-6.2l3.32.5a28.33,28.33,0,0,0,0,4.33,38.2,38.2,0,0,0,1.5,6,9.37,9.37,0,0,0,1.78,2.59c2.44,3,2.26,6.11-.85,8.36a10.6,10.6,0,0,0-4.54,7.11,13.25,13.25,0,0,0,1.1,8.47,1.39,1.39,0,0,1-.06,1.38,18.62,18.62,0,0,0-1.36,3.36,5.83,5.83,0,0,0,1.94,5.75,39,39,0,0,0,8.5,5.28v-4.57l3.08,1a25.52,25.52,0,0,0,.78,3.42,5.27,5.27,0,0,0,3.48,3.33,76.66,76.66,0,0,0,26.6,4.08c6.62-.16,12.89-2,19.06-4.35a2.58,2.58,0,0,0,1.93-2.28c.19-1.51.42-3,.65-4.6h3.35l-.34,4.41a5.23,5.23,0,0,0,.76-.3c3.06-1.61,6.09-3.28,9.18-4.85a6.06,6.06,0,0,0,2.74-7.08,11.28,11.28,0,0,0-.8-1.89c-.51-.89-1-1.73-.27-2.8-.18.09-.36.16-.52.26a18.15,18.15,0,0,1-27.59-11.87,17.36,17.36,0,0,1,1.76-11.88,1.2,1.2,0,0,0-.1-1.49c-1.41-1.94-2.79-3.91-4.15-5.89a1.37,1.37,0,0,0-1.3-.69c-2.65,0-5.3,0-8,0a5.9,5.9,0,0,1-.84,0,1.71,1.71,0,0,1,0-3.42c3.5,0,7-.06,10.49,0a2.41,2.41,0,0,1,1.56,1c1.46,2,2.83,4,4.23,6,.17.25.37.49.59.78a18.25,18.25,0,0,1,22.6-3.63V67.45L218,67a4.76,4.76,0,0,1,.17,1c-.1,2.15-.24,4.29-.31,6.44a1.71,1.71,0,0,0,.38,1.12,18.07,18.07,0,0,1,2.56,23.06,3.5,3.5,0,0,0-.36,1.12c-.32,1.52-.64,3-.92,4.57a2.41,2.41,0,0,0,.06,1.31,9.92,9.92,0,0,1,.11,8.93,1.09,1.09,0,0,0,0,.85c2.07,4.21,2.7,8.74,3,13.34A121.88,121.88,0,0,1,221,155a3,3,0,0,1-.17.59l-3.24-.59c.54-4.51,1.06-8.93,1.59-13.44a4.58,4.58,0,0,0-.75,0c-8.72,2.07-17.34,4.43-25.55,8.07A36.57,36.57,0,0,0,181,157.32a4.12,4.12,0,0,1-5.86.12c-4.32-4.32-9.7-6.73-15.26-8.84a163.69,163.69,0,0,0-27.79-7.43,6.09,6.09,0,0,0-.76,0L132.65,155l-3.31.57c-.24-1.87-.53-3.67-.7-5.49-.25-2.58-.41-5.17-.62-7.75a7.62,7.62,0,0,0-.14-.81Zm89.05-15.25-.72.41A101.33,101.33,0,0,1,198,127a59,59,0,0,1-18,3.87,77.58,77.58,0,0,1-16-1.16,68.46,68.46,0,0,1-25.4-9.54c-1.12-.72-2.2-1.51-3.42-2.36-3.62,6.16-3.69,12.92-3.82,19.7l1.39.28a165.39,165.39,0,0,1,26.76,6.93c6.44,2.34,12.75,5,17.7,10a1,1,0,0,0,1.64-.07,35.75,35.75,0,0,1,10.46-7.13,126.08,126.08,0,0,1,23.82-8.21c2.05-.53,4.1-1,6.12-1.51C219.92,130.93,218.78,121,216.93,117.84ZM192.19,82.72A14.52,14.52,0,0,0,198,101.2a14.73,14.73,0,0,0,15.5-25,14.57,14.57,0,0,0-19.34,3.28c.54.78,1.11,1.55,1.63,2.36a1.72,1.72,0,1,1-2.83,2C192.71,83.46,192.49,83.12,192.19,82.72Z" transform="translate(3.38 -2.66)"/><path class="cls-1" d="M157.21,83.42a1.73,1.73,0,0,1-1.6-2.3,3.9,3.9,0,0,1,.5-.89q4.89-7.71,9.79-15.39a5.51,5.51,0,0,1,.59-.84,1.71,1.71,0,0,1,2.82,1.83,5.35,5.35,0,0,1-.41.74q-5,7.82-9.93,15.63A2.16,2.16,0,0,1,157.21,83.42Z" transform="translate(3.38 -2.66)"/><path class="cls-1" d="M159.75,69.91a4.35,4.35,0,0,1-4.41,4.36,4.39,4.39,0,1,1,4.41-4.36Zm-3.3.12v-.39c-.38-.21-.77-.62-1.13-.59s-.56.56-.83.87c.33.29.63.77,1,.81S156.12,70.29,156.45,70Z" transform="translate(3.38 -2.66)"/><path class="cls-1" d="M173.26,77.5a4.38,4.38,0,1,1-4.42-4.36A4.38,4.38,0,0,1,173.26,77.5Zm-4.57,1.06h.41c.24-.36.67-.74.65-1.08s-.6-.85-.85-.8a1.34,1.34,0,0,0-.87.89C168,77.85,168.45,78.23,168.69,78.56Z" transform="translate(3.38 -2.66)"/><path class="cls-1" d="M174.21,104.7V99.89h3.46c0,1.45,0,2.93,0,4.4a.65.65,0,0,1-.48.39C176.21,104.72,175.25,104.7,174.21,104.7Z" transform="translate(3.38 -2.66)"/><path class="cls-1" d="M210.06,87.78a10.5,10.5,0,0,0,.37-1.44,1.68,1.68,0,0,1,1.14-1.56,1.73,1.73,0,0,1,2,.54,6.76,6.76,0,0,1,1.27,7.09A9.79,9.79,0,0,1,207,99.15a9.14,9.14,0,0,1-10.5-11.58c.25-.83.61-1.63.94-2.44A1.81,1.81,0,0,1,199,83.79a1.75,1.75,0,0,1,1.8,1.22,4.44,4.44,0,0,0,1.39-6c-.53-.87-1.15-1.72-.36-2.72s1.88-.74,2.92-.42c4.13,1.25,5.94,4.37,5.28,9-.13.93-.21,1.87-.31,2.81Zm1.51,3.27-.64.22a3.4,3.4,0,0,1-4.54-3.08,12.85,12.85,0,0,1,.1-2.7c.31-2.34.33-3-.08-3.94-.77,3.81-2.29,6.93-6.71,7.49a5.59,5.59,0,0,0,4.25,6.7A6.76,6.76,0,0,0,211.57,91.05Z" transform="translate(3.38 -2.66)"/></svg>