<?xml version="1.0" encoding="utf-8"?>
<!-- Generator: Adobe Illustrator 24.2.0, SVG Export Plug-In . SVG Version: 6.00 Build 0)  -->
<svg version="1.1" id="Capa_1" xmlns="http://www.w3.org/2000/svg" xmlns:xlink="http://www.w3.org/1999/xlink" x="0px" y="0px"
	 viewBox="0 0 360.6 360.6" style="enable-background:new 0 0 360.6 360.6;" xml:space="preserve">
<style type="text/css">
	.st0{fill:#700000;}
	.st1{fill:#FFFFFF;}
	.st2{font-family:'PervitinaDex';}
	.st3{font-size:47.19px;}
	.st4{font-size:47.2772px;}
	.st5{font-size:47.1073px;}
	.st6{font-size:47.3031px;}
	.st7{font-size:47.0198px;}
	.st8{font-size:47.4957px;}
	.st9{font-size:47.1262px;}
	.st10{font-size:47.2489px;}
	.st11{font-size:47.1924px;}
	.st12{font-size:47.06px;}
	.st13{font-size:47.0056px;}
	.st14{font-size:47.3807px;}
	.st15{font-size:47.3408px;}
	.st16{font-size:47.0127px;}
	.st17{enable-background:new    ;}
	.st18{font-size:15px;}
	.st19{font-size:15.0606px;}
	.st20{font-size:14.9594px;}
	.st21{font-size:14.9308px;}
	.st22{font-size:14.9436px;}
	.st23{font-size:14.9459px;}
	.st24{font-size:15.0479px;}
	.st25{font-size:15.0187px;}
	.st26{font-size:15.0748px;}
	.st27{fill:#700000;stroke:#700000;stroke-miterlimit:10;}
</style>
<circle class="st0" cx="180.3" cy="180.3" r="163.4"/>
<circle class="st1" cx="180.3" cy="180.3" r="146.7"/>
<text transform="matrix(5.480489e-02 -1.0185 0.9986 5.373029e-02 40.44 178.9703)" class="st0 st2 st3">.</text>
<text transform="matrix(0.1407 -1.0102 0.9904 0.138 41.0492 167.0896)" class="st0 st2 st3">.</text>
<text transform="matrix(0.2263 -0.9946 0.9751 0.2219 42.6599 155.3206)" class="st0 st2 st3">.</text>
<text transform="matrix(0.3105 -0.9716 0.9526 0.3044 45.2598 143.7303)" class="st0 st2 st3">.</text>
<text transform="matrix(0.3925 -0.9415 0.923 0.3848 48.8503 132.3907)" class="st0 st2 st3">.</text>
<text transform="matrix(0.4691 -0.8983 0.8884 0.4592 53.4017 121.4108)" class="st0 st2 st4">.</text>
<text transform="matrix(0.5464 -0.8613 0.8444 0.5357 58.8606 110.8708)" class="st0 st2 st3">.</text>
<text transform="matrix(0.6175 -0.8118 0.7959 0.6054 65.22 100.7902)" class="st0 st2 st3">.</text>
<text transform="matrix(0.6812 -0.7513 0.7413 0.6712 72.3794 91.3405)" class="st0 st2 st5">.</text>
<text transform="matrix(0.7453 -0.6964 0.6828 0.7306 80.3292 82.4903)" class="st0 st2 st3">.</text>
<text transform="matrix(0.8016 -0.6308 0.6184 0.7859 89.0196 74.3409)" class="st0 st2 st3">.</text>
<text transform="matrix(0.852 -0.5607 0.5498 0.8353 98.3296 66.9707)" class="st0 st2 st3">.</text>
<text transform="matrix(0.8879 -0.4789 0.4789 0.8779 108.2492 60.4097)" class="st0 st2 st6">.</text>
<text transform="matrix(0.9347 -0.4084 0.4003 0.9164 118.67 54.7208)" class="st0 st2 st3">.</text>
<text transform="matrix(0.9662 -0.327 0.3206 0.9472 129.5394 49.94)" class="st0 st2 st3">.</text>
<text transform="matrix(0.9906 -0.243 0.2382 0.9712 140.8097 46.0903)" class="st0 st2 st3">.</text>
<text transform="matrix(1.0077 -0.1576 0.1545 0.988 152.33 43.2398)" class="st0 st2 st3">.</text>
<text transform="matrix(1.0175 -7.168437e-02 7.027879e-02 0.9975 164.0701 41.3699)" class="st0 st2 st3">.</text>
<text transform="matrix(1.0199 1.655547e-02 -1.623085e-02 0.9999 175.9196 40.4903)" class="st0 st2 st3">.</text>
<text transform="matrix(1.0152 9.918019e-02 -9.723549e-02 0.9953 187.8198 40.6404)" class="st0 st2 st3">.</text>
<text transform="matrix(1.0036 0.1807 -0.1807 0.9835 199.65 41.7604)" class="st0 st2 st7">.</text>
<text transform="matrix(0.9836 0.27 -0.2647 0.9643 211.34 43.8912)" class="st0 st2 st3">.</text>
<text transform="matrix(0.9569 0.3532 -0.3463 0.9381 222.82 47.0112)" class="st0 st2 st3">.</text>
<text transform="matrix(0.9141 0.4272 -0.4272 0.9041 233.9697 51.0894)" class="st0 st2 st8">.</text>
<text transform="matrix(0.8829 0.5108 -0.5008 0.8656 244.7495 56.131)" class="st0 st2 st3">.</text>
<text transform="matrix(0.8311 0.5808 -0.5708 0.8211 255.0495 62.0508)" class="st0 st2 st9">.</text>
<text transform="matrix(0.779 0.6492 -0.6392 0.769 264.8213 68.8398)" class="st0 st2 st10">.</text>
<text transform="matrix(0.7261 0.7163 -0.7023 0.7119 273.9701 76.4097)" class="st0 st2 st3">.</text>
<text transform="matrix(0.66 0.77 -0.76 0.65 282.4619 84.7493)" class="st0 st2 st11">.</text>
<text transform="matrix(0.5952 0.8283 -0.8121 0.5835 290.2094 93.7706)" class="st0 st2 st3">.</text>
<text transform="matrix(0.5229 0.8758 -0.8586 0.5126 297.1595 103.39)" class="st0 st2 st3">.</text>
<text transform="matrix(0.4465 0.9171 -0.8991 0.4377 303.2903 113.5799)" class="st0 st2 st3">.</text>
<text transform="matrix(0.371 0.9526 -0.9326 0.361 308.5107 124.2606)" class="st0 st2 st12">.</text>
<text transform="matrix(0.2839 0.9797 -0.9605 0.2783 312.8116 135.3304)" class="st0 st2 st3">.</text>
<text transform="matrix(0.199 1.0004 -0.9808 0.1951 316.1506 146.7396)" class="st0 st2 st3">.</text>
<text transform="matrix(0.1104 1.014 -0.9939 0.1104 318.4879 158.39)" class="st0 st2 st13">.</text>
<text transform="matrix(-5.480489e-02 1.0185 -0.9986 -5.373029e-02 320.1887 181.68)" class="st0 st2 st3">.</text>
<text transform="matrix(-0.1407 1.0102 -0.9904 -0.138 319.5802 193.5607)" class="st0 st2 st3">.</text>
<text transform="matrix(-0.2263 0.9946 -0.9751 -0.2219 317.9703 205.3299)" class="st0 st2 st3">.</text>
<text transform="matrix(-0.3105 0.9716 -0.9526 -0.3044 315.37 216.9198)" class="st0 st2 st3">.</text>
<text transform="matrix(-0.3925 0.9415 -0.923 -0.3848 311.7794 228.2496)" class="st0 st2 st3">.</text>
<text transform="matrix(-0.4691 0.8983 -0.8884 -0.4592 307.2281 239.2402)" class="st0 st2 st4">.</text>
<text transform="matrix(-0.5465 0.8612 -0.8443 -0.5358 301.771 249.7807)" class="st0 st2 st3">.</text>
<text transform="matrix(-0.6175 0.8118 -0.7959 -0.6054 295.4108 259.8502)" class="st0 st2 st3">.</text>
<text transform="matrix(-0.6812 0.7513 -0.7413 -0.6712 288.2504 269.3104)" class="st0 st2 st5">.</text>
<text transform="matrix(-0.7453 0.6964 -0.6828 -0.7306 280.3004 278.1605)" class="st0 st2 st3">.</text>
<text transform="matrix(-0.8016 0.6308 -0.6184 -0.7859 271.6093 286.311)" class="st0 st2 st3">.</text>
<text transform="matrix(-0.8466 0.5577 -0.5478 -0.8366 262.3008 293.6817)" class="st0 st2 st14">.</text>
<text transform="matrix(-0.8879 0.4789 -0.4789 -0.8779 252.3793 300.2402)" class="st0 st2 st6">.</text>
<text transform="matrix(-0.927 0.4087 -0.3987 -0.9171 241.959 305.9301)" class="st0 st2 st15">.</text>
<text transform="matrix(-0.9662 0.327 -0.3206 -0.9472 231.0901 310.7108)" class="st0 st2 st3">.</text>
<text transform="matrix(-0.9906 0.243 -0.2382 -0.9712 219.8194 314.5504)" class="st0 st2 st3">.</text>
<text transform="matrix(-1.0077 0.1576 -0.1545 -0.988 208.3002 317.4094)" class="st0 st2 st3">.</text>
<text transform="matrix(-1.0175 7.168435e-02 -7.027876e-02 -0.9975 196.5595 319.2807)" class="st0 st2 st3">.</text>
<text transform="matrix(-1.0199 -1.655534e-02 1.623072e-02 -0.9999 184.7107 320.1621)" class="st0 st2 st3">.</text>
<text transform="matrix(-1.0152 -9.918023e-02 9.723552e-02 -0.9953 172.8097 320.0109)" class="st0 st2 st3">.</text>
<text transform="matrix(-1.0036 -0.1807 0.1807 -0.9835 160.9796 318.89)" class="st0 st2 st7">.</text>
<text transform="matrix(-0.9836 -0.27 0.2647 -0.9643 149.2899 316.76)" class="st0 st2 st3">.</text>
<text transform="matrix(-0.9569 -0.3532 0.3463 -0.9381 137.81 313.6404)" class="st0 st2 st3">.</text>
<text transform="matrix(-0.9232 -0.4337 0.4251 -0.9051 126.6605 309.5507)" class="st0 st2 st3">.</text>
<text transform="matrix(-0.8829 -0.5108 0.5008 -0.8656 115.8802 304.5204)" class="st0 st2 st3">.</text>
<text transform="matrix(-0.8311 -0.5808 0.5708 -0.8211 105.5794 298.6)" class="st0 st2 st9">.</text>
<text transform="matrix(-0.779 -0.6492 0.6392 -0.769 95.8092 291.8108)" class="st0 st2 st10">.</text>
<text transform="matrix(-0.7261 -0.7163 0.7023 -0.7119 86.6599 284.2403)" class="st0 st2 st3">.</text>
<text transform="matrix(-0.6631 -0.775 0.7598 -0.6501 78.1701 275.8991)" class="st0 st2 st3">.</text>
<text transform="matrix(-0.5922 -0.8331 0.8131 -0.5822 70.4199 266.8804)" class="st0 st2 st16">.</text>
<text transform="matrix(-0.5229 -0.8758 0.8586 -0.5126 63.4696 257.26)" class="st0 st2 st3">.</text>
<text transform="matrix(-0.4465 -0.9171 0.8991 -0.4377 57.3398 247.061)" class="st0 st2 st3">.</text>
<text transform="matrix(-0.3665 -0.9519 0.9332 -0.3593 52.1201 236.39)" class="st0 st2 st3">.</text>
<text transform="matrix(-0.2839 -0.9797 0.9605 -0.2783 47.8201 225.3208)" class="st0 st2 st3">.</text>
<text transform="matrix(-0.199 -1.0004 0.9808 -0.1951 44.4903 213.9109)" class="st0 st2 st3">.</text>
<text transform="matrix(-0.1104 -1.014 0.9939 -0.1104 42.1403 202.2608)" class="st0 st2 st13">.</text>
<g class="st17">
	<path class="st0" d="M46.9,194.9l12.5-30.4c0.3-0.8,0.9-1.2,1.7-1.2h6.6c0.7,0,1.1,0.3,1.2,0.9l1.7,15.5c0.1,0.2,0.1,0.3,0.1,0.3
		c0.1,0,0.1,0,0.2-0.1l14.5-15.7c0.6-0.6,1.2-0.9,1.8-0.9h7.3c0.8,0,1,0.4,0.7,1.2l-12.5,30.4c-0.3,0.8-0.9,1.2-1.7,1.2h-7.3
		c-0.8,0-1.1-0.4-0.7-1.2l4.2-10.2l-7,7c-0.6,0.6-1.2,0.9-1.8,0.9h-5.4c-0.7,0-1.1-0.3-1.2-0.9l-1-7l-4.2,10.1
		c-0.3,0.8-0.9,1.2-1.8,1.2h-7.3C46.9,196,46.6,195.6,46.9,194.9z"/>
	<path class="st0" d="M106.2,181c1.1,0.2,2,0.3,2.7,0.3c0.7,0.1,1.2,0.1,1.3,0.1c0.5,0,0.8-0.1,1-0.2c0.2-0.1,0.3-0.3,0.5-0.7l0-0.1
		c0.2-0.4,0.2-0.7,0.2-0.8c0-0.1-0.3-0.2-0.7-0.2h-6.3c-0.7,0-1.1,0.3-1.4,1l-3.2,7.9c-0.2,0.6,0,1,0.6,1H112c0.5,0,0.7,0.3,0.5,0.8
		l-2.2,5.3c-0.2,0.5-0.6,0.8-1.1,0.8H95c-1.9,0-3.2-0.6-3.9-1.9c-0.8-1.3-0.8-2.8,0-4.6l4.3-10.3c1-2.3,2.2-4,3.6-5
		c1.4-1,3.4-1.5,5.8-1.5h12c2,0,3.4,0.5,4.2,1.6c0.8,1.1,0.7,2.6-0.1,4.7l-1.6,3.9c-0.9,2.1-1.9,3.6-3,4.5c-1.1,0.9-2.5,1.3-4.2,1.3
		c-0.6,0-1.8-0.1-3.4-0.3c-1.6-0.2-3.3-0.4-5.1-0.8c-0.5-0.1-0.7-0.4-0.4-0.9l2-5c0.2-0.5,0.5-0.7,0.7-0.7c0.1,0,0.1,0,0.2,0
		C106,180.9,106.1,181,106.2,181z"/>
	<path class="st0" d="M121.2,189.4l3.8-9.3c0.1-0.2,0-0.3-0.1-0.3h-1.8c-0.6,0-0.9-0.3-0.6-1l2.1-5.1c0.2-0.7,0.7-1,1.4-1h1.8
		c0.2,0,0.3-0.1,0.4-0.3l2.1-5.1c0.3-0.7,0.8-1,1.4-1h6.9c0.6,0,0.8,0.3,0.6,1l-2.1,5.1c0,0.2,0,0.3,0.2,0.3h5.4
		c0.7,0,0.9,0.3,0.6,1l-2.1,5.1c-0.3,0.7-0.8,1-1.5,1h-5.4c-0.2,0-0.3,0.1-0.4,0.3l-3.3,8c-0.2,0.5,0,0.7,0.4,0.7h5.7
		c0.6,0,0.8,0.3,0.6,1l-2.1,5.2c-0.2,0.7-0.7,1-1.4,1h-8.6c-2,0-3.3-0.6-4.1-1.8C120.4,193,120.4,191.4,121.2,189.4z"/>
</g>
<g class="st17">
	<path class="st0" d="M149.8,187.5c-0.5,0-0.8,0.1-0.9,0.2s-0.3,0.4-0.5,0.8c-0.3,0.6-0.1,1,0.6,1c0.2,0,0.7,0,1.5-0.1
		c0.8-0.1,1.5-0.2,2.3-0.3h0.2c0.4,0,0.5,0.2,0.3,0.7l-2,5c-0.2,0.5-0.6,0.8-1.2,0.9c-1.5,0.3-2.9,0.5-4.2,0.7
		c-1.3,0.2-2.3,0.3-3,0.3c-1.9,0-3.1-0.6-3.8-1.7c-0.7-1.1-0.6-2.6,0.1-4.4l1.4-3.4c0.9-2.2,2-3.8,3.4-4.8c1.4-1,3.2-1.5,5.4-1.5
		h9.5c0.2,0,0.4-0.1,0.5-0.4l0.2-0.4c0.2-0.4,0-0.6-0.7-0.6h-11.3c-0.5,0-0.7-0.3-0.5-0.8l2.1-5.2c0.2-0.5,0.6-0.8,1.1-0.8h14.2
		c1.9,0,3.2,0.6,3.9,1.9c0.8,1.3,0.8,2.8,0,4.6l-6.6,16c-0.2,0.5-0.6,0.8-1.1,0.8h-7c-0.5,0-0.7-0.3-0.5-0.8l3.1-7.5
		c0.1-0.2,0-0.4-0.2-0.4H149.8z"/>
</g>
<g class="st17">
	<path class="st0" d="M184.9,188.9c0.5,0,0.8-0.2,1-0.7l3.3-8c0.2-0.5,0.1-0.7-0.2-0.7h-0.1l-4.1,0.4h-0.1c-0.6,0-0.7-0.3-0.4-1
		l1.9-4.7c0.2-0.6,0.7-1,1.4-1.2c1.8-0.3,3.2-0.5,4.3-0.6c1.1-0.1,2.1-0.1,3-0.1c1.7,0,3,0.7,3.7,2c0.8,1.3,0.8,2.9,0,4.7l-4.3,10.5
		c-1,2.5-2.2,4.2-3.6,5.2s-3.4,1.5-5.9,1.5h-17.1c-0.7,0-0.9-0.3-0.6-1l13.6-32.9c0.2-0.7,0.7-1,1.5-1h6.9c0.6,0,0.8,0.3,0.6,1
		l-10.9,26.5c-0.1,0.2,0,0.3,0.2,0.3H184.9z"/>
</g>
<g class="st17">
	<path class="st0" d="M199.9,190.5l5.1-12.3c0.9-2.1,1.9-3.5,3.1-4.3c1.2-0.8,2.8-1.2,4.9-1.2h13.7c1.7,0,2.9,0.5,3.5,1.5
		c0.6,1,0.6,2.3-0.1,4l-5.1,12.3c-0.8,2.1-1.8,3.5-3,4.3c-1.2,0.8-2.8,1.2-4.9,1.2h-5c-0.7,0-0.9-0.3-0.6-1l2.1-5.3
		c0.3-0.6,0.8-1,1.4-1h0.9c0.5,0,0.9-0.2,1-0.7l3.2-7.6c0.2-0.5,0-0.7-0.5-0.7h-5.9c-0.3,0-0.6,0.2-0.7,0.7l-3.2,7.6
		c-0.2,0.5,0,0.7,0.5,0.7h1c0.6,0,0.8,0.3,0.6,1l-2.1,5.3c-0.3,0.6-0.7,1-1.4,1h-5c-1.7,0-2.9-0.5-3.5-1.5
		C199.2,193.5,199.2,192.2,199.9,190.5z M231.4,163.3c0.5,0,0.5,0.2,0,0.6l-7.4,5.5c-0.5,0.4-1,0.6-1.5,0.6h-5.1
		c-0.5,0-0.6-0.2-0.1-0.7l5.2-5.4c0.4-0.5,0.9-0.7,1.4-0.7H231.4z"/>
</g>
<g class="st17">
	<path class="st0" d="M232.3,196c-1.9,0-3.2-0.6-4-1.9c-0.8-1.3-0.8-2.9,0-4.7l11.3-27.4c0.3-0.7,0.8-1,1.4-1h6.9
		c0.7,0,0.9,0.3,0.6,1l-10.8,26.1c-0.2,0.5,0,0.7,0.4,0.7h5.7c0.7,0,0.9,0.3,0.6,1l-2.1,5.2c-0.2,0.7-0.7,1-1.4,1H232.3z"/>
	<path class="st0" d="M253.6,173.7c0.3-0.7,0.8-1,1.5-1h6.9c0.7,0,0.9,0.3,0.6,1l-8.8,21.4c-0.2,0.7-0.7,1-1.5,1h-6.9
		c-0.7,0-0.9-0.3-0.6-1L253.6,173.7z M257.3,164.6c0.2-0.7,0.7-1,1.5-1h6.9c0.7,0,0.9,0.3,0.6,1l-2,4.9c-0.2,0.7-0.7,1-1.5,1h-6.9
		c-0.7,0-0.9-0.3-0.6-1L257.3,164.6z"/>
	<path class="st0" d="M263.8,196c-1.7,0-2.9-0.5-3.5-1.5c-0.6-1-0.6-2.4,0.1-4l5.1-12.3c0.9-2.1,1.9-3.5,3.1-4.3
		c1.2-0.8,2.8-1.2,4.9-1.2h15.3c0.7,0,0.9,0.3,0.6,1l-2.1,5.1c-0.3,0.7-0.8,1-1.5,1h-11.3c-0.4,0-0.7,0.2-0.9,0.6l-3.2,7.7
		c-0.2,0.5-0.1,0.7,0.4,0.7H282c0.7,0,0.9,0.3,0.6,1l-2.1,5.2c-0.3,0.7-0.8,1-1.5,1H263.8z"/>
	<path class="st0" d="M286,190.5l5.1-12.3c0.9-2.1,1.9-3.5,3.1-4.3s2.8-1.2,4.9-1.2h13.7c1.7,0,2.9,0.5,3.5,1.5c0.6,1,0.6,2.3-0.1,4
		l-5.1,12.3c-0.8,2.1-1.8,3.5-3,4.3c-1.2,0.8-2.8,1.2-4.9,1.2h-5c-0.7,0-0.9-0.3-0.6-1l2.1-5.3c0.3-0.6,0.8-1,1.4-1h0.9
		c0.5,0,0.9-0.2,1-0.7l3.2-7.6c0.2-0.5,0-0.7-0.5-0.7h-5.9c-0.3,0-0.6,0.2-0.7,0.7l-3.2,7.6c-0.2,0.5,0,0.7,0.5,0.7h1
		c0.6,0,0.8,0.3,0.6,1l-2.1,5.3c-0.3,0.6-0.7,1-1.4,1h-5c-1.7,0-2.9-0.5-3.5-1.5C285.3,193.5,285.4,192.2,286,190.5z"/>
</g>
<text transform="matrix(0.7168 0.7256 -0.7114 0.7028 75.1391 266.7202)" class="st0 st2 st18">M</text>
<text transform="matrix(0.7809 0.6562 -0.6433 0.7656 85.23 276.7692)" class="st0 st2 st18">e</text>
<text transform="matrix(0.8196 0.6071 -0.5952 0.8035 93.22 283.3901)" class="st0 st2 st18">t</text>
<text transform="matrix(0.8466 0.5577 -0.5478 0.8366 98.7007 287.4995)" class="st0 st2 st19">o</text>
<text transform="matrix(0.8841 0.5086 -0.4986 0.8668 107.0596 292.8903)" class="st0 st2 st18">l</text>
<text transform="matrix(0.9125 0.4612 -0.4512 0.8924 112.6999 296.1794)" class="st0 st2 st20">o</text>
<text transform="matrix(0.9444 0.3918 -0.3818 0.9243 121.8801 300.7598)" class="st0 st2 st21">g</text>
<text transform="matrix(0.9636 0.3413 -0.3312 0.9435 131.2902 304.5799)" class="st0 st2 st22">i</text>
<text transform="matrix(0.9783 0.2887 -0.283 0.9591 135.9496 306.2904)" class="st0 st2 st18">a</text>
<text transform="matrix(1.0036 0.1807 -0.1807 0.9835 150.0199 310.1709)" class="st0 st2 st23">p</text>
<text transform="matrix(1.0144 0.1066 -0.1045 0.9945 160.1001 311.9802)" class="st0 st2 st18">a</text>
<text transform="matrix(1.0194 3.595331e-02 -3.524835e-02 0.9994 170.1095 312.9901)" class="st0 st2 st18">r</text>
<text transform="matrix(1.0194 -3.541957e-02 3.472507e-02 0.9994 178.5894 313.2997)" class="st0 st2 st18">a</text>
<text transform="matrix(1.0092 -0.1478 0.1449 0.9895 193.23 312.5205)" class="st0 st2 st18">p</text>
<text transform="matrix(0.996 -0.2201 0.2158 0.9764 202.8299 311.1203)" class="st0 st2 st18">e</text>
<text transform="matrix(0.9794 -0.2849 0.2793 0.9602 212.6897 308.9002)" class="st0 st2 st18">r</text>
<text transform="matrix(0.9587 -0.3482 0.3414 0.9399 220.8298 306.5501)" class="st0 st2 st18">d</text>
<text transform="matrix(0.927 -0.4087 0.3987 0.9171 229.9904 303.231)" class="st0 st2 st24">e</text>
<text transform="matrix(0.9087 -0.4634 0.4543 0.8908 239.1696 299.1605)" class="st0 st2 st18">r</text>
<text transform="matrix(0.8675 -0.5364 0.5259 0.8505 250.58 293.1502)" class="st0 st2 st18">g</text>
<text transform="matrix(0.8389 -0.5802 0.5688 0.8224 259.2097 287.7805)" class="st0 st2 st18">r</text>
<text transform="matrix(0.8104 -0.6194 0.6072 0.7945 266.0695 283.0404)" class="st0 st2 st18">a</text>
<text transform="matrix(0.779 -0.6492 0.6392 0.769 273.9302 277.0098)" class="st0 st2 st25">s</text>
<text transform="matrix(0.7463 -0.6866 0.6766 0.7363 280.821 271.2303)" class="st0 st2 st26">a</text>
<rect x="56.2" y="212.4" class="st0" width="248.2" height="4.4"/>
<rect x="87.6" y="221.7" class="st0" width="185.5" height="4.4"/>
<polygon class="st0" points="105.7,236.9 109.9,245.4 119.3,246.7 112.5,253.3 114.1,262.6 105.7,258.2 97.4,262.6 99,253.3 
	92.2,246.7 101.6,245.4 "/>
<polygon class="st0" points="250.9,236.9 255.1,245.4 264.4,246.7 257.6,253.3 259.2,262.6 250.9,258.2 242.5,262.6 244.1,253.3 
	237.3,246.7 246.7,245.4 "/>
<polygon class="st0" points="140.4,263 143.9,270.1 151.7,271.2 146.1,276.7 147.4,284.5 140.4,280.8 133.5,284.5 134.8,276.7 
	129.2,271.2 136.9,270.1 "/>
<polygon class="st0" points="216.2,263 219.7,270.1 227.4,271.2 221.8,276.7 223.1,284.5 216.2,280.8 209.2,284.5 210.6,276.7 
	204.9,271.2 212.7,270.1 "/>
<polygon class="st0" points="178.3,268.6 182.2,276.5 191,277.8 184.7,284 186.2,292.8 178.3,288.6 170.4,292.8 171.9,284 
	165.6,277.8 174.4,276.5 "/>
<path class="st27" d="M131.3,130.4c0.2-1.8,0.3-3.6,0.6-5.4c0.6-4,1.4-7.9,3.6-11.4c0.6-0.7,0.7-1.7,0.3-2.6c-1.1-2.6-1-5.5,0.3-8
	c0.3-0.5,0.3-1.2,0.1-1.8c-1.4-4-1.2-8.3,0.4-12.2c0.8-2.1,2.3-4,4.2-5.3c2.3-1.6,2.4-2.4,0.5-4.5c-2.3-2.6-3.1-5.7-3.5-9
	c-0.3-2.1-0.3-4.1,0-6.2l3.3,0.5c-0.1,1.4-0.1,2.9,0,4.3c0.3,2,0.8,4,1.5,6c0.4,1,1,1.8,1.8,2.6c2.4,3,2.3,6.1-0.9,8.4
	c-2.4,1.6-4.1,4.2-4.5,7.1c-0.6,2.9-0.2,5.8,1.1,8.5c0.2,0.4,0.2,1-0.1,1.4c-0.6,1.1-1,2.2-1.4,3.4c-0.5,2.1,0.3,4.3,1.9,5.8
	c2.6,2.1,5.5,3.9,8.5,5.3v-4.6l3.1,1c0.2,1.2,0.4,2.3,0.8,3.4c0.6,1.6,1.9,2.8,3.5,3.3c8.6,2.9,17.6,4.3,26.6,4.1
	c6.6-0.2,12.9-2,19.1-4.3c1.1-0.3,1.8-1.2,1.9-2.3c0.2-1.5,0.4-3,0.6-4.6h3.4l-0.3,4.4c0.3-0.1,0.5-0.2,0.8-0.3
	c3.1-1.6,6.1-3.3,9.2-4.8c2.5-1.4,3.6-4.4,2.7-7.1c-0.2-0.7-0.5-1.3-0.8-1.9c-0.5-0.9-1-1.7-0.3-2.8c-0.2,0.1-0.4,0.2-0.5,0.3
	c-8.4,5.4-19.7,2.9-25.1-5.5c-1.2-1.9-2.1-4.1-2.5-6.3c-0.8-4-0.2-8.3,1.8-11.9c0.3-0.5,0.3-1.1-0.1-1.5c-1.4-1.9-2.8-3.9-4.1-5.9
	c-0.3-0.5-0.8-0.7-1.3-0.7c-2.6,0-5.3,0-8,0c-0.3,0-0.6,0-0.8,0c-0.9,0-1.7-0.8-1.7-1.7c0-0.9,0.8-1.7,1.7-1.7c3.5,0,7-0.1,10.5,0
	c0.6,0.1,1.2,0.5,1.6,1c1.5,2,2.8,4,4.2,6c0.2,0.3,0.4,0.5,0.6,0.8c5.7-6.4,15.1-7.9,22.6-3.6v-5.3l3.5-0.4c0.1,0.3,0.1,0.7,0.2,1
	c-0.1,2.2-0.2,4.3-0.3,6.4c0,0.4,0.1,0.8,0.4,1.1c6.3,6.1,7.4,15.8,2.6,23.1c-0.2,0.4-0.3,0.7-0.4,1.1c-0.3,1.5-0.6,3-0.9,4.6
	c-0.1,0.4-0.1,0.9,0.1,1.3c1.5,2.8,1.5,6.1,0.1,8.9c-0.1,0.3-0.1,0.6,0,0.8c2.1,4.2,2.7,8.7,3,13.3c0.4,8.8-0.2,17.6-1.7,26.3
	c0,0.2-0.1,0.4-0.2,0.6l-3.2-0.6c0.5-4.5,1.1-8.9,1.6-13.4c-0.2,0-0.5,0-0.8,0c-8.7,2.1-17.3,4.4-25.6,8.1
	c-4.4,1.8-8.5,4.4-11.9,7.7c-1.6,1.7-4.2,1.7-5.8,0.2c0,0,0,0,0,0c-4.3-4.3-9.7-6.7-15.3-8.8c-9-3.3-18.3-5.8-27.8-7.4
	c-0.3,0-0.5,0-0.8,0l1.3,13.8l-3.3,0.6c-0.2-1.9-0.5-3.7-0.7-5.5c-0.3-2.6-0.4-5.2-0.6-7.8c0-0.3-0.1-0.5-0.1-0.8L131.3,130.4z
	 M220.3,115.2l-0.7,0.4c-5.8,3.5-11.9,6.4-18.2,8.8c-5.8,2.2-11.8,3.5-18,3.9c-5.4,0.2-10.7-0.2-16-1.2c-9-1.5-17.7-4.7-25.4-9.5
	c-1.1-0.7-2.2-1.5-3.4-2.4c-3.6,6.2-3.7,12.9-3.8,19.7l1.4,0.3c9.1,1.6,18,3.9,26.8,6.9c6.4,2.3,12.8,5,17.7,10
	c0.3,0.4,1,0.5,1.4,0.2c0.1-0.1,0.2-0.2,0.2-0.3c3-3,6.6-5.4,10.5-7.1c7.6-3.5,15.6-6.3,23.8-8.2c2.1-0.5,4.1-1,6.1-1.5
	C223.3,128.3,222.2,118.3,220.3,115.2z M195.6,80.1c-3.1,6.7-0.6,14.7,5.8,18.5c7.1,3.9,16.1,1.3,20-5.9c3.6-6.6,1.7-14.8-4.5-19.1
	c-6.3-4.1-14.7-2.6-19.3,3.3c0.5,0.8,1.1,1.6,1.6,2.4c0.6,0.8,0.4,1.9-0.4,2.4c-0.8,0.6-1.9,0.4-2.4-0.4l0,0
	C196.1,80.8,195.9,80.5,195.6,80.1z"/>
<path class="st0" d="M160.6,80.8c-1,0-1.7-0.8-1.7-1.8c0-0.2,0-0.4,0.1-0.5c0.1-0.3,0.3-0.6,0.5-0.9c3.3-5.1,6.5-10.3,9.8-15.4
	c0.2-0.3,0.4-0.6,0.6-0.8c0.7-0.7,1.7-0.7,2.4-0.1c0.5,0.5,0.7,1.2,0.4,1.9c-0.1,0.3-0.3,0.5-0.4,0.7c-3.3,5.2-6.6,10.4-9.9,15.6
	C162,80.2,161.4,80.7,160.6,80.8z"/>
<path class="st0" d="M163.1,67.3c0,2.4-1.9,4.4-4.3,4.4c0,0,0,0-0.1,0c-2.4,0-4.4-2-4.4-4.4c0-2.4,2-4.4,4.4-4.4
	C161.2,62.8,163.1,64.8,163.1,67.3C163.1,67.2,163.1,67.2,163.1,67.3z M159.8,67.4V67c-0.4-0.2-0.8-0.6-1.1-0.6s-0.6,0.6-0.8,0.9
	c0.3,0.3,0.6,0.8,1,0.8S159.5,67.6,159.8,67.4L159.8,67.4z"/>
<path class="st0" d="M176.6,74.8c0,2.4-1.9,4.4-4.4,4.4c-2.4,0-4.4-1.9-4.4-4.4c0-2.4,1.9-4.4,4.3-4.4
	C174.6,70.5,176.6,72.4,176.6,74.8C176.6,74.8,176.6,74.8,176.6,74.8z M172.1,75.9h0.4c0.2-0.4,0.7-0.7,0.6-1.1s-0.6-0.8-0.9-0.8
	c-0.4,0.1-0.7,0.5-0.9,0.9C171.4,75.2,171.8,75.6,172.1,75.9L172.1,75.9z"/>
<path class="st0" d="M177.6,102v-4.8h3.5c0,1.4,0,2.9,0,4.4c-0.1,0.2-0.3,0.3-0.5,0.4C179.6,102.1,178.6,102,177.6,102z"/>
<path class="st0" d="M213.4,85.1c0.2-0.5,0.3-1,0.4-1.4c0-0.7,0.5-1.3,1.1-1.6c0.7-0.3,1.5-0.1,2,0.5c1.8,1.9,2.2,4.7,1.3,7.1
	c-1.1,3.6-4.2,6.2-7.8,6.7c-5,1-9.8-2.3-10.7-7.2c-0.3-1.4-0.2-2.9,0.2-4.3c0.3-0.8,0.6-1.6,0.9-2.4c0.2-0.7,0.8-1.3,1.6-1.3
	c0.8-0.1,1.6,0.4,1.8,1.2c2-1.3,2.6-4,1.4-6c-0.5-0.9-1.1-1.7-0.4-2.7s1.9-0.7,2.9-0.4c4.1,1.3,5.9,4.4,5.3,9
	c-0.1,0.9-0.2,1.9-0.3,2.8L213.4,85.1z M214.9,88.4l-0.6,0.2c-1.8,0.6-3.7-0.3-4.3-2.1c-0.1-0.3-0.2-0.7-0.2-1
	c-0.1-0.9,0-1.8,0.1-2.7c0.3-2.3,0.3-3-0.1-3.9c-0.8,3.8-2.3,6.9-6.7,7.5c-0.7,3,1.2,6,4.2,6.7c0,0,0,0,0,0
	C210.7,93.7,214,91.7,214.9,88.4L214.9,88.4z"/>
</svg>
