<?xml version="1.0" encoding="utf-8"?>
<!-- Generator: Adobe Illustrator 24.2.0, SVG Export Plug-In . SVG Version: 6.00 Build 0)  -->
<svg version="1.1" id="Capa_1" xmlns="http://www.w3.org/2000/svg" xmlns:xlink="http://www.w3.org/1999/xlink" x="0px" y="0px"
	 viewBox="0 0 360.6 360.6" style="enable-background:new 0 0 360.6 360.6;" xml:space="preserve">
<style type="text/css">
	.st0{fill:#700000;}
	.st1{fill:#FFFFFF;}
	.st2{font-family:'PervitinaDex';}
	.st3{font-size:47.19px;}
	.st4{font-size:47.2772px;}
	.st5{font-size:47.1073px;}
	.st6{font-size:47.3031px;}
	.st7{font-size:47.0198px;}
	.st8{font-size:47.4957px;}
	.st9{font-size:47.1262px;}
	.st10{font-size:47.2489px;}
	.st11{font-size:47.1924px;}
	.st12{font-size:47.06px;}
	.st13{font-size:47.0056px;}
	.st14{font-size:47.3807px;}
	.st15{font-size:47.3408px;}
	.st16{font-size:47.0127px;}
	.st17{enable-background:new    ;}
	.st18{font-size:14.9715px;}
	.st19{font-size:14.979px;}
	.st20{font-size:14.9775px;}
	.st21{font-size:15.027px;}
	.st22{font-size:15px;}
	.st23{font-size:14.9436px;}
	.st24{font-size:15.0673px;}
	.st25{font-size:15.0659px;}
</style>
<circle class="st0" cx="180.3" cy="180.3" r="163.4"/>
<circle class="st1" cx="180.3" cy="180.3" r="146.7"/>
<text transform="matrix(5.480489e-02 -1.0185 0.9986 5.373029e-02 40.44 178.9703)" class="st0 st2 st3">.</text>
<text transform="matrix(0.1407 -1.0102 0.9904 0.138 41.0492 167.0896)" class="st0 st2 st3">.</text>
<text transform="matrix(0.2263 -0.9946 0.9751 0.2219 42.6599 155.3206)" class="st0 st2 st3">.</text>
<text transform="matrix(0.3105 -0.9716 0.9526 0.3044 45.2598 143.7303)" class="st0 st2 st3">.</text>
<text transform="matrix(0.3925 -0.9415 0.923 0.3848 48.8503 132.4008)" class="st0 st2 st3">.</text>
<text transform="matrix(0.4691 -0.8983 0.8884 0.4592 53.4017 121.4108)" class="st0 st2 st4">.</text>
<text transform="matrix(0.5464 -0.8613 0.8444 0.5357 58.8606 110.8708)" class="st0 st2 st3">.</text>
<text transform="matrix(0.6175 -0.8118 0.7959 0.6054 65.2198 100.8001)" class="st0 st2 st3">.</text>
<text transform="matrix(0.6812 -0.7513 0.7413 0.6712 72.3794 91.3405)" class="st0 st2 st5">.</text>
<text transform="matrix(0.7453 -0.6964 0.6828 0.7306 80.3292 82.4903)" class="st0 st2 st3">.</text>
<text transform="matrix(0.8016 -0.6308 0.6184 0.7859 89.0196 74.3409)" class="st0 st2 st3">.</text>
<text transform="matrix(0.852 -0.5607 0.5498 0.8353 98.3296 66.9707)" class="st0 st2 st3">.</text>
<text transform="matrix(0.8879 -0.4789 0.4789 0.8779 108.2492 60.4097)" class="st0 st2 st6">.</text>
<text transform="matrix(0.9347 -0.4084 0.4003 0.9164 118.67 54.7208)" class="st0 st2 st3">.</text>
<text transform="matrix(0.9662 -0.327 0.3206 0.9472 129.5394 49.94)" class="st0 st2 st3">.</text>
<text transform="matrix(0.9906 -0.243 0.2382 0.9712 140.8097 46.0903)" class="st0 st2 st3">.</text>
<text transform="matrix(1.0077 -0.1576 0.1545 0.988 152.33 43.2398)" class="st0 st2 st3">.</text>
<text transform="matrix(1.0175 -7.168437e-02 7.027879e-02 0.9975 164.0701 41.3699)" class="st0 st2 st3">.</text>
<text transform="matrix(1.0199 1.655547e-02 -1.623085e-02 0.9999 175.9196 40.4903)" class="st0 st2 st3">.</text>
<text transform="matrix(1.0152 9.918019e-02 -9.723549e-02 0.9953 187.8198 40.6404)" class="st0 st2 st3">.</text>
<text transform="matrix(1.0036 0.1807 -0.1807 0.9835 199.65 41.7604)" class="st0 st2 st7">.</text>
<text transform="matrix(0.9836 0.27 -0.2647 0.9643 211.34 43.8912)" class="st0 st2 st3">.</text>
<text transform="matrix(0.9569 0.3532 -0.3463 0.9381 222.82 47.0112)" class="st0 st2 st3">.</text>
<text transform="matrix(0.9141 0.4272 -0.4272 0.9041 233.9697 51.0894)" class="st0 st2 st8">.</text>
<text transform="matrix(0.8829 0.5108 -0.5008 0.8656 244.7495 56.131)" class="st0 st2 st3">.</text>
<text transform="matrix(0.8311 0.5808 -0.5708 0.8211 255.0495 62.0508)" class="st0 st2 st9">.</text>
<text transform="matrix(0.779 0.6492 -0.6392 0.769 264.8213 68.8398)" class="st0 st2 st10">.</text>
<text transform="matrix(0.7261 0.7163 -0.7023 0.7119 273.9701 76.4097)" class="st0 st2 st3">.</text>
<text transform="matrix(0.66 0.77 -0.76 0.65 282.4619 84.7493)" class="st0 st2 st11">.</text>
<text transform="matrix(0.5952 0.8283 -0.8121 0.5835 290.2094 93.7706)" class="st0 st2 st3">.</text>
<text transform="matrix(0.5229 0.8758 -0.8586 0.5126 297.1595 103.39)" class="st0 st2 st3">.</text>
<text transform="matrix(0.4465 0.9171 -0.8991 0.4377 303.2888 113.5904)" class="st0 st2 st3">.</text>
<text transform="matrix(0.371 0.9526 -0.9326 0.361 308.5107 124.2606)" class="st0 st2 st12">.</text>
<text transform="matrix(0.2839 0.9797 -0.9605 0.2783 312.8116 135.3304)" class="st0 st2 st3">.</text>
<text transform="matrix(0.199 1.0004 -0.9808 0.1951 316.1506 146.7396)" class="st0 st2 st3">.</text>
<text transform="matrix(0.1104 1.014 -0.9939 0.1104 318.4879 158.39)" class="st0 st2 st13">.</text>
<text transform="matrix(-5.480489e-02 1.0185 -0.9986 -5.373029e-02 320.1887 181.68)" class="st0 st2 st3">.</text>
<text transform="matrix(-0.1407 1.0102 -0.9904 -0.138 319.5802 193.5607)" class="st0 st2 st3">.</text>
<text transform="matrix(-0.2263 0.9946 -0.9751 -0.2219 317.9703 205.3299)" class="st0 st2 st3">.</text>
<text transform="matrix(-0.3105 0.9716 -0.9526 -0.3044 315.37 216.9198)" class="st0 st2 st3">.</text>
<text transform="matrix(-0.3925 0.9415 -0.923 -0.3848 311.7794 228.2496)" class="st0 st2 st3">.</text>
<text transform="matrix(-0.4691 0.8983 -0.8884 -0.4592 307.2281 239.2402)" class="st0 st2 st4">.</text>
<text transform="matrix(-0.5465 0.8612 -0.8443 -0.5358 301.771 249.7807)" class="st0 st2 st3">.</text>
<text transform="matrix(-0.6175 0.8118 -0.7959 -0.6054 295.4108 259.8502)" class="st0 st2 st3">.</text>
<text transform="matrix(-0.6812 0.7513 -0.7413 -0.6712 288.2504 269.3104)" class="st0 st2 st5">.</text>
<text transform="matrix(-0.7453 0.6964 -0.6828 -0.7306 280.3004 278.1605)" class="st0 st2 st3">.</text>
<text transform="matrix(-0.8016 0.6308 -0.6184 -0.7859 271.6093 286.311)" class="st0 st2 st3">.</text>
<text transform="matrix(-0.8466 0.5577 -0.5478 -0.8366 262.3008 293.6817)" class="st0 st2 st14">.</text>
<text transform="matrix(-0.8879 0.4789 -0.4789 -0.8779 252.3793 300.2402)" class="st0 st2 st6">.</text>
<text transform="matrix(-0.927 0.4087 -0.3987 -0.9171 241.959 305.9301)" class="st0 st2 st15">.</text>
<text transform="matrix(-0.9662 0.327 -0.3206 -0.9472 231.0901 310.7108)" class="st0 st2 st3">.</text>
<text transform="matrix(-0.9906 0.243 -0.2382 -0.9712 219.8194 314.5504)" class="st0 st2 st3">.</text>
<text transform="matrix(-1.0077 0.1576 -0.1545 -0.988 208.3002 317.4094)" class="st0 st2 st3">.</text>
<text transform="matrix(-1.0175 7.168435e-02 -7.027876e-02 -0.9975 196.5595 319.2807)" class="st0 st2 st3">.</text>
<text transform="matrix(-1.0199 -1.655534e-02 1.623072e-02 -0.9999 184.7107 320.1621)" class="st0 st2 st3">.</text>
<text transform="matrix(-1.0152 -9.918023e-02 9.723552e-02 -0.9953 172.8097 320.0109)" class="st0 st2 st3">.</text>
<text transform="matrix(-1.0036 -0.1807 0.1807 -0.9835 160.9796 318.89)" class="st0 st2 st7">.</text>
<text transform="matrix(-0.9836 -0.27 0.2647 -0.9643 149.2899 316.76)" class="st0 st2 st3">.</text>
<text transform="matrix(-0.9569 -0.3532 0.3463 -0.9381 137.81 313.6404)" class="st0 st2 st3">.</text>
<text transform="matrix(-0.9232 -0.4337 0.4251 -0.9051 126.6605 309.5507)" class="st0 st2 st3">.</text>
<text transform="matrix(-0.8829 -0.5108 0.5008 -0.8656 115.8802 304.5204)" class="st0 st2 st3">.</text>
<text transform="matrix(-0.8311 -0.5808 0.5708 -0.8211 105.5794 298.6)" class="st0 st2 st9">.</text>
<text transform="matrix(-0.779 -0.6492 0.6392 -0.769 95.8092 291.8108)" class="st0 st2 st10">.</text>
<text transform="matrix(-0.7261 -0.7163 0.7023 -0.7119 86.6599 284.2403)" class="st0 st2 st3">.</text>
<text transform="matrix(-0.6631 -0.775 0.7598 -0.6501 78.1701 275.8991)" class="st0 st2 st3">.</text>
<text transform="matrix(-0.5922 -0.8331 0.8131 -0.5822 70.4199 266.8804)" class="st0 st2 st16">.</text>
<text transform="matrix(-0.5229 -0.8758 0.8586 -0.5126 63.4696 257.26)" class="st0 st2 st3">.</text>
<text transform="matrix(-0.4465 -0.9171 0.8991 -0.4377 57.3398 247.061)" class="st0 st2 st3">.</text>
<text transform="matrix(-0.3665 -0.9519 0.9332 -0.3593 52.1201 236.39)" class="st0 st2 st3">.</text>
<text transform="matrix(-0.2839 -0.9797 0.9605 -0.2783 47.8201 225.3208)" class="st0 st2 st3">.</text>
<text transform="matrix(-0.199 -1.0004 0.9808 -0.1951 44.4903 213.9109)" class="st0 st2 st3">.</text>
<text transform="matrix(-0.1104 -1.014 0.9939 -0.1104 42.1403 202.2608)" class="st0 st2 st13">.</text>
<g class="st17">
	<path class="st0" d="M54.4,174.3c-0.7,0-1-0.4-0.7-1.1l2.4-5.7c0.3-0.8,0.9-1.1,1.6-1.1h27c0.8,0,1,0.4,0.7,1.1l-2.4,5.7
		c-0.3,0.7-0.8,1.1-1.6,1.1H54.4z M70.5,176.1c0.7,0,1,0.4,0.7,1.1l-7.6,18.3c-0.3,0.8-0.9,1.1-1.6,1.1h-6.8c-0.8,0-1-0.4-0.7-1.1
		l7.6-18.3c0.3-0.7,0.8-1.1,1.6-1.1H70.5z"/>
</g>
<g class="st17">
	<path class="st0" d="M74.7,191.5l4.7-11.4c0.8-1.9,1.8-3.2,2.9-4c1.1-0.8,2.6-1.1,4.5-1.1h12.7c1.6,0,2.7,0.5,3.2,1.4
		s0.5,2.2-0.1,3.8l-4.7,11.4c-0.8,1.9-1.7,3.2-2.8,4c-1.1,0.8-2.6,1.1-4.6,1.1H86c-0.6,0-0.8-0.3-0.6-0.9l2-4.9
		c0.3-0.6,0.7-0.9,1.3-0.9h0.9c0.5,0,0.8-0.2,0.9-0.7l2.9-7c0.1-0.4,0-0.6-0.4-0.6h-5.5c-0.3,0-0.5,0.2-0.7,0.6l-2.9,7
		c-0.1,0.5,0,0.7,0.4,0.7h0.9c0.6,0,0.8,0.3,0.5,0.9l-2,4.9c-0.3,0.6-0.7,0.9-1.3,0.9h-4.6c-1.6,0-2.7-0.5-3.2-1.4
		C74,194.3,74.1,193.1,74.7,191.5z"/>
	<path class="st0" d="M100.7,195.7l8.2-19.8c0.3-0.6,0.7-0.9,1.4-0.9h6.4c0.6,0,0.8,0.3,0.6,0.9l-8.2,19.8c-0.3,0.6-0.7,0.9-1.3,0.9
		h-6.4C100.7,196.7,100.5,196.4,100.7,195.7z M115.6,195.7l5.7-13.8c0.1-0.4,0.1-0.6-0.2-0.6H121l-4,0.5h-0.2
		c-0.4,0-0.4-0.3-0.2-0.9l1.8-4.3c0.3-0.6,0.7-1,1.3-1.1c3.4-0.6,5.7-0.9,6.9-0.9c1.6,0,2.7,0.6,3.4,1.8s0.7,2.7,0,4.3l-6.2,14.9
		c-0.2,0.6-0.7,0.9-1.3,0.9h-6.4C115.6,196.7,115.4,196.4,115.6,195.7z"/>
	<path class="st0" d="M136.6,175.9c0.3-0.6,0.7-0.9,1.4-0.9h6.4c0.7,0,0.9,0.3,0.6,0.9l-8.2,19.8c-0.2,0.6-0.7,0.9-1.4,0.9H129
		c-0.6,0-0.8-0.3-0.6-0.9L136.6,175.9z M140.1,167.5c0.2-0.6,0.7-0.9,1.4-0.9h6.4c0.6,0,0.8,0.3,0.6,0.9l-1.9,4.5
		c-0.2,0.6-0.7,1-1.4,1h-6.4c-0.6,0-0.8-0.3-0.6-1L140.1,167.5z"/>
	<path class="st0" d="M142.7,195.7l5.7-13.8c0.1-0.2,0-0.3-0.2-0.3h-2c-0.7,0-0.8-0.3-0.6-1l2-4.8c0.2-0.6,0.7-0.9,1.3-0.9h1.9
		c0.1,0,0.3-0.1,0.3-0.3l1.9-4.4c0.9-2.3,2.1-3.9,3.4-4.8c1.3-0.9,3.1-1.4,5.5-1.4h8c0.6,0,0.8,0.3,0.6,0.9l-1.9,4.6
		c-0.3,0.6-0.7,0.9-1.3,0.9H162c-0.4,0-0.7,0.2-0.9,0.6l-1.5,3.5c-0.1,0.2,0,0.3,0.2,0.3h3.4c0.6,0,0.8,0.3,0.6,0.9l-2,4.8
		c-0.3,0.6-0.7,1-1.3,1h-3.4c-0.1,0-0.3,0.1-0.3,0.3l-5.7,13.8c-0.3,0.6-0.7,0.9-1.3,0.9h-6.4C142.7,196.7,142.5,196.4,142.7,195.7z
		"/>
	<path class="st0" d="M167,175.9c0.3-0.6,0.7-0.9,1.4-0.9h6.4c0.7,0,0.9,0.3,0.6,0.9l-8.2,19.8c-0.2,0.6-0.7,0.9-1.4,0.9h-6.4
		c-0.6,0-0.8-0.3-0.6-0.9L167,175.9z M170.5,167.5c0.2-0.6,0.7-0.9,1.4-0.9h6.4c0.6,0,0.8,0.3,0.6,0.9L177,172c-0.2,0.6-0.7,1-1.4,1
		h-6.4c-0.6,0-0.8-0.3-0.6-1L170.5,167.5z"/>
	<path class="st0" d="M176.5,196.7c-1.6,0-2.7-0.5-3.2-1.4c-0.6-0.9-0.5-2.2,0.1-3.7l4.7-11.4c0.8-1.9,1.7-3.2,2.8-4
		c1.1-0.8,2.6-1.1,4.6-1.1h14.2c0.7,0,0.9,0.3,0.6,0.9l-2,4.8c-0.3,0.6-0.7,1-1.4,1h-10.5c-0.4,0-0.7,0.2-0.9,0.6l-2.9,7.1
		c-0.2,0.4-0.1,0.6,0.3,0.6h10.5c0.6,0,0.8,0.3,0.6,0.9l-2,4.8c-0.3,0.6-0.7,0.9-1.4,0.9H176.5z"/>
</g>
<g class="st17">
	<path class="st0" d="M206.7,188.7c-0.4,0-0.7,0-0.8,0.1s-0.3,0.4-0.5,0.8c-0.3,0.6-0.1,0.9,0.6,0.9c0.2,0,0.7,0,1.4-0.1
		c0.7-0.1,1.4-0.1,2.1-0.2h0.2c0.3,0,0.4,0.2,0.3,0.6l-1.9,4.6c-0.2,0.5-0.6,0.7-1.1,0.8c-1.4,0.3-2.7,0.5-3.9,0.6s-2.1,0.3-2.8,0.3
		c-1.7,0-2.9-0.5-3.5-1.6c-0.6-1-0.6-2.4,0.1-4.1l1.3-3.2c0.8-2,1.9-3.5,3.2-4.4c1.3-0.9,2.9-1.4,5-1.4h8.8c0.2,0,0.4-0.1,0.5-0.3
		l0.2-0.3c0.2-0.4,0-0.6-0.7-0.6h-10.5c-0.5,0-0.6-0.2-0.4-0.7l2-4.8c0.2-0.5,0.5-0.7,1-0.7h13.2c1.7,0,2.9,0.6,3.7,1.8
		c0.7,1.2,0.7,2.6,0,4.3l-6.2,14.9c-0.2,0.5-0.5,0.7-1,0.7h-6.5c-0.5,0-0.6-0.2-0.4-0.7l2.9-6.9c0.1-0.2,0-0.3-0.2-0.3H206.7z"/>
</g>
<g class="st17">
	<path class="st0" d="M226.5,196.7c-1.6,0-2.7-0.5-3.2-1.4c-0.6-0.9-0.5-2.2,0.1-3.7l4.7-11.4c0.8-1.9,1.7-3.2,2.8-4
		c1.1-0.8,2.6-1.1,4.6-1.1h14.2c0.7,0,0.9,0.3,0.6,0.9l-2,4.8c-0.3,0.6-0.7,1-1.4,1h-10.5c-0.4,0-0.7,0.2-0.9,0.6l-2.9,7.1
		c-0.2,0.4-0.1,0.6,0.3,0.6h10.5c0.6,0,0.8,0.3,0.6,0.9l-2,4.8c-0.3,0.6-0.7,0.9-1.4,0.9H226.5z"/>
	<path class="st0" d="M253.9,175.9c0.3-0.6,0.7-0.9,1.4-0.9h6.4c0.7,0,0.9,0.3,0.6,0.9l-8.2,19.8c-0.2,0.6-0.7,0.9-1.4,0.9h-6.4
		c-0.6,0-0.8-0.3-0.6-0.9L253.9,175.9z M257.4,167.5c0.2-0.6,0.7-0.9,1.4-0.9h6.4c0.6,0,0.8,0.3,0.6,0.9l-1.9,4.5
		c-0.2,0.6-0.7,1-1.4,1h-6.4c-0.6,0-0.8-0.3-0.6-1L257.4,167.5z"/>
	<path class="st0" d="M261.5,191.5l4.7-11.4c0.8-1.9,1.8-3.2,2.9-4c1.1-0.8,2.6-1.1,4.5-1.1h12.7c1.6,0,2.7,0.5,3.2,1.4
		s0.5,2.2-0.1,3.8l-4.7,11.4c-0.8,1.9-1.7,3.2-2.8,4c-1.1,0.8-2.6,1.1-4.6,1.1h-4.6c-0.6,0-0.8-0.3-0.6-0.9l2-4.9
		c0.3-0.6,0.7-0.9,1.3-0.9h0.9c0.5,0,0.8-0.2,0.9-0.7l2.9-7c0.1-0.4,0-0.6-0.4-0.6h-5.5c-0.3,0-0.5,0.2-0.7,0.6l-2.9,7
		c-0.1,0.5,0,0.7,0.4,0.7h0.9c0.6,0,0.8,0.3,0.5,0.9l-2,4.9c-0.3,0.6-0.7,0.9-1.3,0.9h-4.6c-1.6,0-2.7-0.5-3.2-1.4
		C260.9,194.3,260.9,193.1,261.5,191.5z M290.8,166.3c0.5,0,0.5,0.2,0,0.5L284,172c-0.5,0.4-0.9,0.5-1.4,0.5h-4.7
		c-0.5,0-0.5-0.2-0.1-0.6l4.9-5c0.4-0.4,0.8-0.6,1.3-0.6H290.8z"/>
	<path class="st0" d="M286.4,195.7l8.2-19.8c0.3-0.6,0.7-0.9,1.4-0.9h6.4c0.6,0,0.8,0.3,0.6,0.9l-8.2,19.8c-0.3,0.6-0.7,0.9-1.3,0.9
		H287C286.3,196.7,286.1,196.4,286.4,195.7z M301.3,195.7l5.7-13.8c0.1-0.4,0.1-0.6-0.2-0.6h-0.1l-4,0.5h-0.2
		c-0.4,0-0.4-0.3-0.2-0.9l1.8-4.3c0.3-0.6,0.7-1,1.3-1.1c3.4-0.6,5.7-0.9,6.9-0.9c1.6,0,2.7,0.6,3.4,1.8s0.7,2.7,0,4.3l-6.2,14.9
		c-0.2,0.6-0.7,0.9-1.3,0.9h-6.4C301.2,196.7,301,196.4,301.3,195.7z"/>
</g>
<text transform="matrix(0.8015 0.6212 -0.6112 0.7915 85.8995 279.2197)" class="st0 st2 st18">M</text>
<text transform="matrix(0.8512 0.5508 -0.5408 0.8412 97.1907 287.8406)" class="st0 st2 st19">e</text>
<text transform="matrix(0.8913 0.5008 -0.4907 0.8713 105.9508 293.4299)" class="st0 st2 st20">t</text>
<text transform="matrix(0.9084 0.4492 -0.4392 0.8984 111.8797 296.8219)" class="st0 st2 st21">o</text>
<text transform="matrix(0.94 0.3959 -0.3882 0.9216 120.8497 301.1408)" class="st0 st2 st22">l</text>
<text transform="matrix(0.9636 0.3413 -0.3312 0.9435 126.8603 303.7196)" class="st0 st2 st23">o</text>
<text transform="matrix(0.9839 0.2688 -0.2635 0.9646 136.51 307.1206)" class="st0 st2 st22">g</text>
<text transform="matrix(0.9972 0.2143 -0.2101 0.9777 146.34 309.7198)" class="st0 st2 st22">i</text>
<text transform="matrix(1.0075 0.1594 -0.1563 0.9877 151.1898 310.8198)" class="st0 st2 st22">a</text>
<text transform="matrix(1.0189 4.769292e-02 -4.675777e-02 0.9989 165.6896 312.8409)" class="st0 st2 st22">p</text>
<text transform="matrix(1.0196 -3.025957e-02 2.966624e-02 0.9996 175.9297 313.3004)" class="st0 st2 st22">a</text>
<text transform="matrix(1.015 -0.1013 9.931975e-02 0.9951 185.9895 312.9604)" class="st0 st2 st22">r</text>
<text transform="matrix(0.9955 -0.1692 0.1692 0.9856 194.4195 312.1294)" class="st0 st2 st24">a</text>
<text transform="matrix(0.9818 -0.2765 0.2711 0.9625 208.8095 309.4099)" class="st0 st2 st22">T</text>
<text transform="matrix(0.9613 -0.3412 0.3345 0.9424 217.85 306.8704)" class="st0 st2 st22">o</text>
<text transform="matrix(0.9356 -0.4062 0.3983 0.9173 227.4697 303.4306)" class="st0 st2 st22">n</text>
<text transform="matrix(0.9149 -0.451 0.4421 0.8969 236.7497 299.3304)" class="st0 st2 st22">i</text>
<text transform="matrix(0.8987 -0.4825 0.473 0.8811 241.0903 297.2003)" class="st0 st2 st22">f</text>
<text transform="matrix(0.8819 -0.5125 0.5024 0.8646 246.7201 294.151)" class="st0 st2 st22">i</text>
<text transform="matrix(0.8613 -0.5464 0.5357 0.8444 250.9296 291.7406)" class="st0 st2 st22">c</text>
<text transform="matrix(0.8264 -0.5874 0.5775 0.8164 258.3605 287.0308)" class="st0 st2 st25">a</text>
<text transform="matrix(0.8037 -0.6281 0.6158 0.7879 266.43 281.2808)" class="st0 st2 st22">r</text>
<rect x="56.2" y="212.4" class="st0" width="248.2" height="4.4"/>
<rect x="87.6" y="221.7" class="st0" width="185.5" height="4.4"/>
<polygon class="st0" points="107.8,236.9 111.9,245.4 121.3,246.7 114.5,253.3 116.1,262.6 107.8,258.2 99.4,262.6 101,253.3 
	94.2,246.7 103.6,245.4 "/>
<polygon class="st0" points="252.9,236.9 257.1,245.4 266.4,246.7 259.6,253.3 261.2,262.6 252.9,258.2 244.5,262.6 246.1,253.3 
	239.4,246.7 248.7,245.4 "/>
<polygon class="st0" points="142.4,263 145.9,270.1 153.7,271.2 148.1,276.7 149.4,284.5 142.4,280.8 135.5,284.5 136.8,276.7 
	131.2,271.2 139,270.1 "/>
<polygon class="st0" points="218.2,263 221.7,270.1 229.5,271.2 223.8,276.7 225.2,284.5 218.2,280.8 211.2,284.5 212.6,276.7 
	206.9,271.2 214.7,270.1 "/>
<polygon class="st0" points="180.3,268.6 184.2,276.5 193,277.8 186.7,284 188.2,292.8 180.3,288.6 172.5,292.8 174,284 
	167.6,277.8 176.4,276.5 "/>
<path class="st0" d="M141.8,100.8c2.7-1.2,5.4-0.8,8.1,0.3c0.4,0,0.8-0.1,1.1-0.4c3.8-3.7,8.3-4.2,12.9-1.5c2,1.2,2.2,1.2,3.9-0.6
	l0.5-0.5c2.4-2.8,2.3-2.7,0.8-5.9c-0.5-1.1-0.9-2.3-1.3-3.5c-1.3-4.2-2-8.6-2.9-12.9c-1-4.2-0.1-8.7,2.5-12.2
	c4.1-5.8,10.4-7.9,17.4-6.2c6.4,1.7,11.1,7.2,11.7,13.9c0,1.8-0.2,3.7-0.7,5.4c-0.1,1-0.4,2-0.6,3c-0.2,1.2-0.4,2.4-0.6,3.6
	c-0.3,1.8-0.8,3.5-1.3,5.3c-0.6,1.7-1.3,3.3-2.2,4.9c-0.6,0.7-0.6,1.7,0,2.4c1,1.2,2.1,2.5,3.2,3.6c0.7,0.7,1.4,0.7,2.2,0.1
	c4-3.2,9.9-2.8,13.4,1c0.3,0.3,0.8,0.4,1.2,0.4c2.6-1.1,5.4-1.2,8.1-0.3c0.4-4.4,0.9-8.7,1.2-12.9c0.1-2-0.4-4-1.4-5.8
	c-0.4-1-1.5-1.5-2.6-1.2c-1.1,0.2-2.1,0.2-3.2,0.1c-2.7-0.2-4.9-2.4-5.1-5.1c-0.2-1.5-0.1-3,0.3-4.4c1.2-4,4.9-5.7,8.8-4
	c2.6,1.1,4.8,3.1,6.3,5.6c3.7,5.8,7.2,11.7,10.8,17.6c0.8,1.4,1.5,2.9,2,4.4c1.4,4,1.8,8.3,1.3,12.5c-0.2,1.6,0.1,3.2,0.9,4.7
	c1.5,2.7,1,5-1.5,6.8c-0.8,0.5-1.7,1-2.5,1.4c-2.5,1.2-5,2.4-7.4,3.7c-4.1,2.2-8.4,3.3-13,2.5c-1.8-0.4-3.5-1-5.3-1.6
	c-0.1,0.1-0.2,0.2-0.2,0.4c-1.8,4.9-4.2,9.6-7,14c-1.8,2.8-3.5,5.7-3.9,9c-0.3,2.2-0.2,4.4-0.4,6.6c0,0.9-0.2,1.8-0.6,2.6
	c-0.8,1.7-2.3,2.3-4.1,2.3c-8.4-0.1-16.8-0.1-25.2-0.1c-1.4,0-2.9-1.8-3.1-3.6c-0.1-1.3-0.1-2.6-0.1-3.9c0-4.3-1.3-8.5-3.6-12.1
	c-3.3-4.8-6-9.9-7.9-15.4c-0.3,0.1-0.6,0.2-0.9,0.3c-5.2,2.5-11.4,2.3-16.4-0.5c-2.9-1.6-6-3-9-4.4c-1-0.5-1.9-1-2.7-1.7
	c-1.8-1.5-2.2-4-1-6c0.9-1.4,1.2-3.1,1-4.7c-0.8-6.9,0.9-13.8,4.7-19.6c2.8-4.4,5.3-8.9,8.1-13.3c1.3-1.9,2.8-3.7,4.4-5.4
	c0.7-0.6,1.4-1.2,2.3-1.6c5-2.7,9.7-0.1,10.1,5.6c0.3,5.3-3.2,8.5-8.5,7.7c-1.6-0.2-2.1,0-2.8,1.5c-1.1,2.4-1.4,5.2-1,7.8
	C140.8,93.8,141.3,97.2,141.8,100.8z M173.1,97.7c-0.6,0.9-1.2,1.7-1.9,2.5c-0.6,0.8-1.4,1.5-2.1,2.1c-3,2.4-4.4,2.3-6.8,0.4
	c-3.3-2.6-7-1.6-9.1,1.9c-0.5,1.1-1.8,1.6-2.9,1.1c-0.1-0.1-0.3-0.1-0.4-0.2c-0.3-0.2-0.6-0.4-1-0.6c-2.2-1.7-5.4-1.5-7.3,0.6
	c-0.7,0.8-1.4,1.7-2,2.6c-0.5,0.7-1,1.3-1.6,1.9c-0.9,0.8-2.2,0.8-3.1,0c0,0,0,0-0.1-0.1c-0.7-0.8-0.5-1.9,0.6-2.8
	c1.1-0.8,1.8-2,2-3.4c0.3-2.1,0.4-4.2,0.4-6.3c-0.3-3.5-1.3-7-1-10.5c0.2-2.9,1.3-5.7,3.2-8c1.2-1.6,3.3-2.3,5.2-1.5
	c1.9,0.7,3.3,0.1,3.9-1.5c0.8-1.9,0.1-4.5-1.4-5.3c-0.4-0.2-0.9-0.3-1.4-0.2c-1.2,0.4-2.3,1-3.3,1.8c-1.5,1.5-2.7,3.1-3.9,4.9
	c-2.8,4.4-5.4,8.8-8,13.2c-1.8,2.9-3.4,6-3.7,9.4c-0.3,2.9-0.2,5.9-0.2,8.9c0.2,1.6-0.2,3.2-1,4.6c-0.9,1.3-0.8,2.1,0.6,3.1
	c0.6,0.4,1.3,0.8,2,1.1c1.6,0.8,3.3,1.5,4.9,2.3c1.3,0.6,2.5,1.4,3.8,2c4.8,2.2,9.4,2.1,14-0.7c1.9-1.2,3-0.8,3.8,1.2
	c2.3,6,5.2,11.8,8.8,17.2c2.3,3.6,3.5,7.8,3.6,12.1c0,1.4,0,2.9,0,4.4c0.6,0,0.9,0.1,1.2,0.1c7.5,0,15.1,0,22.6,0
	c1.8,0,2.1-0.3,2-2.1c-0.2-5.6,1.3-11.1,4.3-15.8c2-3.2,3.8-6.5,5.5-9.9c1-1.9,1.6-4.1,2.5-6.1s2-2.5,4-1.3c1.2,0.7,2.4,1.3,3.8,1.7
	c4.2,1.1,8.1,0.3,11.9-1.8c2.5-1.3,5.1-2.5,7.6-3.8c0.7-0.4,1.4-0.9,2.1-1.4c0.3-0.3,0.4-0.8,0.2-1.2c-1.4-2.6-1.5-5.4-1.4-8.3
	c0.2-4.3,0-8.7-2.2-12.5c-3.7-6.4-7.5-12.6-11.4-18.8c-1-1.7-2.5-3.1-4.2-4c-2-1-3.4-0.4-4.1,1.8c-0.2,0.5-0.2,1-0.3,1.6
	c0,2.5,1.4,3.7,3.8,3.2c3.1-0.7,4.6,0,6.4,2.6c1.6,2.2,2.3,4.9,2.2,7.6c-0.1,3.2-0.7,6.4-1,9.6c-0.4,3.8-0.6,7.7,2.9,10.5
	c0.6,0.5,0.7,1.5,0.2,2.1c-0.1,0.2-0.3,0.3-0.5,0.4c-1,0.7-2.3,0.5-3-0.5c-0.9-1-1.6-2.1-2.3-3.2c-0.8-1.3-2-2.2-3.4-2.7
	c-1.9-0.5-3.9-0.1-5.4,1.2c-1.9,1.4-3.4,0.8-4.3-1.3c-0.3-0.8-0.9-1.4-1.6-1.8c-2.4-1.3-5.3-1-7.4,0.8c-2.3,1.8-4,1.4-6.2-0.2
	c-0.8-0.6-1.5-1.3-2.1-2c-0.8-0.9-1.5-1.9-2.3-2.9C182.2,101.5,177.8,101.3,173.1,97.7L173.1,97.7z M169.3,79.2l-0.3,0.1
	c0.9,3.1,1.6,6.3,2.6,9.4c0.6,1.8,1.5,3.4,2.7,4.9c3.4,4.2,8.5,4.3,11.9,0.3c1.3-1.6,2.4-3.5,3.1-5.4c0.9-2.3,1.6-4.8,2-7.2
	c0.6-3-0.2-6.2-2.1-8.6c-0.4-0.7-1.3-1-2.1-0.6c-4.5,1.9-9.5,2.3-14.2,1c-0.8-0.3-1.7,0.1-2.1,0.8C169.7,75.4,169.2,77.3,169.3,79.2
	L169.3,79.2z M167.9,71.5c3-2.5,3-2.4,6.8-1.7s7.9,0.7,11.5-1.5c1-0.7,2.4-0.7,3.3,0.2c1.1,0.9,2.2,1.9,3.2,2.8
	c-0.4-5.6-5.8-10.4-12-10.6C174.3,60.3,168.7,65.1,167.9,71.5L167.9,71.5z"/>
<path class="st0" d="M205.8,116.1c-1,1.7-1.8,3.3-2.8,4.9c-2.6,4-5.9,7.3-10.6,8.9c-3.1,1-6.1,0.8-9.3,0.4c-2.1-0.3-4.2-0.3-6.3,0
	c-8.5,1.5-14.4-2.2-18.9-9c-1.1-1.7-2-3.4-3.1-5.3c-3.1,1.8-6.5,1.9-10,1.7c-1.3-0.1-2.5-0.3-3.7-0.7c-0.9-0.2-1.5-1.1-1.3-2
	c0,0,0-0.1,0-0.1c0.3-1,1.1-1.1,2-1.1c2.2,0.1,4.4,0.3,6.6,0.3c2,0,4-0.7,5.6-1.9c1.6-1.1,2.6-0.9,3.6,0.9c1.1,2,2,4.1,3.2,6
	c2,3.4,4.7,6.1,8.6,7.3c2.7,0.8,5.5,0.8,8.2,0.1c2.1-0.5,4.3-0.5,6.4,0.1c4.5,1.3,9.3,0,12.5-3.4c2.4-2.4,4.3-5.2,5.7-8.3
	c0.4-0.8,0.8-1.6,1.3-2.4c0.4-0.8,1.4-1.1,2.2-0.7c0.1,0.1,0.2,0.1,0.3,0.2c3.3,2.5,7.1,2.5,10.9,2c0.7-0.1,1.4-0.2,2.1-0.2
	s1.6,0.2,1.6,1.1c0,0.6-0.3,1.6-0.7,1.8c-1.2,0.6-2.4,0.9-3.7,1.1C212.7,118.1,209.1,117.5,205.8,116.1z"/>
<path class="st0" d="M180.1,141.8h-6.7c-2.1,0-3.9-1.3-4.7-3.2c-0.6-0.8-0.4-1.8,0.4-2.4c0.1,0,0.1-0.1,0.2-0.1
	c0.7-0.6,1.8-0.4,2.4,0.3c0.1,0.1,0.1,0.2,0.2,0.3c0.6,1,1.7,1.5,2.8,1.4c3.9-0.1,7.8-0.1,11.6,0c1,0.1,2-0.4,2.5-1.3
	c0.4-0.9,1.5-1.3,2.4-0.9c0.1,0,0.1,0.1,0.2,0.1c0.9,0.5,1.1,1.7,0.6,2.5c0,0,0,0,0,0c-0.8,2-2.8,3.3-4.9,3.2
	C184.8,141.9,182.4,141.8,180.1,141.8L180.1,141.8z"/>
<path class="st0" d="M180.6,152.9c-1.9,0-3.9,0.1-5.8,0c-2,0-3.8-1-4.8-2.7c-0.3-0.7-0.4-1.5-0.1-2.3c0.1-0.4,1-0.8,1.5-0.7
	c0.6,0.1,1.1,0.4,1.5,0.9c0.6,0.8,1.5,1.2,2.5,1.1c3.2,0,6.5,0,9.7,0c1,0.1,2-0.3,2.7-1.1c0.3-0.3,0.5-0.7,0.9-0.8
	c0.6-0.2,1.4-0.4,1.8-0.1c0.5,0.4,0.7,1,0.7,1.6c-0.2,2-1.8,3.5-3.7,3.7c-2.2,0.2-4.5,0-6.8,0L180.6,152.9z"/>
</svg>
