<svg id="Capa_1" data-name="Capa 1" xmlns="http://www.w3.org/2000/svg" viewBox="0 0 360.63 360.65"><defs><style>.cls-1,.cls-3,.cls-4,.cls-8{fill:#700000;}.cls-2{fill:#fff;}.cls-3{font-size:47.19px;}.cls-3,.cls-4,.cls-8{font-family:PervitinaDex, Pervitina Dex;}.cls-4{font-size:42.18px;letter-spacing:-0.04em;}.cls-5{letter-spacing:0em;}.cls-6{letter-spacing:-0.02em;}.cls-7{letter-spacing:0em;}.cls-8{font-size:15px;}</style></defs><circle class="cls-1" cx="180.32" cy="180.32" r="163.39"/><circle class="cls-2" cx="180.32" cy="180.32" r="146.71"/><text class="cls-3" transform="translate(40.44 178.97) rotate(-86.92) scale(1.02 1)">.</text><text class="cls-3" transform="translate(41.05 167.09) rotate(-82.07) scale(1.02 1)">.</text><text class="cls-3" transform="translate(42.66 155.32) rotate(-77.18) scale(1.02 1)">.</text><text class="cls-3" transform="translate(45.26 143.73) rotate(-72.28) scale(1.02 1)">.</text><text class="cls-3" transform="translate(48.85 132.4) rotate(-67.37) scale(1.02 1)">.</text><text class="cls-3" transform="matrix(0.47, -0.9, 0.89, 0.46, 53.4, 121.41)">.</text><text class="cls-3" transform="translate(58.86 110.87) rotate(-57.61) scale(1.02 1)">.</text><text class="cls-3" transform="translate(65.22 100.8) rotate(-52.74) scale(1.02 1)">.</text><text class="cls-3" transform="matrix(0.68, -0.75, 0.74, 0.67, 72.38, 91.34)">.</text><text class="cls-3" transform="translate(80.33 82.49) rotate(-43.06) scale(1.02 1)">.</text><text class="cls-3" transform="translate(89.02 74.34) rotate(-38.2) scale(1.02 1)">.</text><text class="cls-3" transform="translate(98.33 66.97) rotate(-33.35) scale(1.02 1)">.</text><text class="cls-3" transform="matrix(0.89, -0.48, 0.48, 0.88, 108.25, 60.41)">.</text><text class="cls-3" transform="translate(118.67 54.72) rotate(-23.6) scale(1.02 1)">.</text><text class="cls-3" transform="translate(129.54 49.94) rotate(-18.7) scale(1.02 1)">.</text><text class="cls-3" transform="translate(140.81 46.09) rotate(-13.78) scale(1.02 1)">.</text><text class="cls-3" transform="translate(152.33 43.24) rotate(-8.89) scale(1.02 1)">.</text><text class="cls-3" transform="translate(164.07 41.37) rotate(-4.03) scale(1.02 1)">.</text><text class="cls-3" transform="translate(175.92 40.49) rotate(0.93) scale(1.02 1)">.</text><text class="cls-3" transform="translate(187.82 40.64) rotate(5.58) scale(1.02 1)">.</text><text class="cls-3" transform="matrix(1, 0.18, -0.18, 0.98, 199.65, 41.76)">.</text><text class="cls-3" transform="translate(211.34 43.89) rotate(15.35) scale(1.02 1)">.</text><text class="cls-3" transform="translate(222.82 47.01) rotate(20.26) scale(1.02 1)">.</text><text class="cls-3" transform="matrix(0.92, 0.43, -0.43, 0.91, 233.97, 51.09)">.</text><text class="cls-3" transform="translate(244.75 56.13) rotate(30.05) scale(1.02 1)">.</text><text class="cls-3" transform="matrix(0.83, 0.58, -0.57, 0.82, 255.05, 62.05)">.</text><text class="cls-3" transform="matrix(0.78, 0.65, -0.64, 0.77, 264.82, 68.84)">.</text><text class="cls-3" transform="translate(273.97 76.41) rotate(44.61) scale(1.02 1)">.</text><text class="cls-3" transform="matrix(0.66, 0.77, -0.76, 0.65, 282.46, 84.75)">.</text><text class="cls-3" transform="translate(290.21 93.77) rotate(54.3) scale(1.02 1)">.</text><text class="cls-3" transform="translate(297.16 103.39) rotate(59.16) scale(1.02 1)">.</text><text class="cls-3" transform="translate(303.29 113.59) rotate(64.04) scale(1.02 1)">.</text><text class="cls-3" transform="matrix(0.37, 0.95, -0.93, 0.36, 308.51, 124.26)">.</text><text class="cls-3" transform="translate(312.81 135.33) rotate(73.84) scale(1.02 1)">.</text><text class="cls-3" transform="translate(316.15 146.74) rotate(78.75) scale(1.02 1)">.</text><text class="cls-3" transform="matrix(0.11, 1.01, -0.99, 0.11, 318.49, 158.39)">.</text><text class="cls-3" transform="translate(320.19 181.68) rotate(93.08) scale(1.02 1)">.</text><text class="cls-3" transform="translate(319.58 193.56) rotate(97.93) scale(1.02 1)">.</text><text class="cls-3" transform="translate(317.97 205.33) rotate(102.82) scale(1.02 1)">.</text><text class="cls-3" transform="translate(315.37 216.92) rotate(107.72) scale(1.02 1)">.</text><text class="cls-3" transform="translate(311.78 228.25) rotate(112.63) scale(1.02 1)">.</text><text class="cls-3" transform="matrix(-0.47, 0.9, -0.89, -0.46, 307.23, 239.24)">.</text><text class="cls-3" transform="translate(301.77 249.78) rotate(122.4) scale(1.02 1)">.</text><text class="cls-3" transform="translate(295.41 259.85) rotate(127.26) scale(1.02 1)">.</text><text class="cls-3" transform="matrix(-0.68, 0.75, -0.74, -0.67, 288.25, 269.31)">.</text><text class="cls-3" transform="translate(280.3 278.16) rotate(136.94) scale(1.02 1)">.</text><text class="cls-3" transform="translate(271.61 286.31) rotate(141.8) scale(1.02 1)">.</text><text class="cls-3" transform="matrix(-0.85, 0.56, -0.55, -0.84, 262.3, 293.68)">.</text><text class="cls-3" transform="matrix(-0.89, 0.48, -0.48, -0.88, 252.38, 300.24)">.</text><text class="cls-3" transform="matrix(-0.93, 0.41, -0.4, -0.92, 241.96, 305.93)">.</text><text class="cls-3" transform="translate(231.09 310.71) rotate(161.3) scale(1.02 1)">.</text><text class="cls-3" transform="translate(219.82 314.55) rotate(166.22) scale(1.02 1)">.</text><text class="cls-3" transform="translate(208.3 317.41) rotate(171.11) scale(1.02 1)">.</text><text class="cls-3" transform="translate(196.56 319.28) rotate(175.97) scale(1.02 1)">.</text><text class="cls-3" transform="translate(184.71 320.16) rotate(-179.07) scale(1.02 1)">.</text><text class="cls-3" transform="translate(172.81 320.01) rotate(-174.42) scale(1.02 1)">.</text><text class="cls-3" transform="matrix(-1, -0.18, 0.18, -0.98, 160.98, 318.89)">.</text><text class="cls-3" transform="translate(149.29 316.76) rotate(-164.65) scale(1.02 1)">.</text><text class="cls-3" transform="translate(137.81 313.64) rotate(-159.74) scale(1.02 1)">.</text><text class="cls-3" transform="translate(126.66 309.55) rotate(-154.84) scale(1.02 1)">.</text><text class="cls-3" transform="translate(115.88 304.52) rotate(-149.95) scale(1.02 1)">.</text><text class="cls-3" transform="matrix(-0.83, -0.58, 0.57, -0.82, 105.58, 298.6)">.</text><text class="cls-3" transform="matrix(-0.78, -0.65, 0.64, -0.77, 95.81, 291.81)">.</text><text class="cls-3" transform="translate(86.66 284.24) rotate(-135.39) scale(1.02 1)">.</text><text class="cls-3" transform="translate(78.17 275.9) rotate(-130.55) scale(1.02 1)">.</text><text class="cls-3" transform="matrix(-0.59, -0.83, 0.81, -0.58, 70.42, 266.88)">.</text><text class="cls-3" transform="translate(63.47 257.26) rotate(-120.84) scale(1.02 1)">.</text><text class="cls-3" transform="translate(57.34 247.06) rotate(-115.96) scale(1.02 1)">.</text><text class="cls-3" transform="translate(52.12 236.39) rotate(-111.06) scale(1.02 1)">.</text><text class="cls-3" transform="translate(47.82 225.32) rotate(-106.16) scale(1.02 1)">.</text><text class="cls-3" transform="translate(44.49 213.91) rotate(-101.25) scale(1.02 1)">.</text><text class="cls-3" transform="matrix(-0.11, -1.01, 0.99, -0.11, 42.14, 202.26)">.</text><text class="cls-4" transform="translate(45.17 196.67) scale(1.02 1)">T<tspan class="cls-5" x="24.76" y="0">onific</tspan><tspan class="cls-6" x="144.85" y="0">a</tspan><tspan class="cls-7" x="170.54" y="0">ción</tspan></text><text class="cls-8" transform="matrix(0.8, 0.62, -0.61, 0.79, 85.9, 279.22)">M</text><text class="cls-8" transform="matrix(0.85, 0.55, -0.54, 0.84, 97.19, 287.84)">e</text><text class="cls-8" transform="matrix(0.89, 0.5, -0.49, 0.87, 105.95, 293.43)">t</text><text class="cls-8" transform="matrix(0.91, 0.45, -0.44, 0.9, 111.88, 296.82)">o</text><text class="cls-8" transform="translate(120.85 301.14) rotate(22.84) scale(1.02 1)">l</text><text class="cls-8" transform="matrix(0.96, 0.34, -0.33, 0.94, 126.86, 303.72)">o</text><text class="cls-8" transform="translate(136.51 307.12) rotate(15.28) scale(1.02 1)">g</text><text class="cls-8" transform="translate(146.34 309.72) rotate(12.13) scale(1.02 1)">i</text><text class="cls-8" transform="translate(151.19 310.82) rotate(8.99) scale(1.02 1)">a</text><text class="cls-8" transform="matrix(1.01, 0.1, -0.1, 0.99, 161.04, 312.3)"> </text><text class="cls-8" transform="translate(165.69 312.84) rotate(2.68) scale(1.02 1)">p</text><text class="cls-8" transform="translate(175.93 313.3) rotate(-1.7) scale(1.02 1)">a</text><text class="cls-8" transform="translate(185.99 312.96) rotate(-5.7) scale(1.02 1)">r</text><text class="cls-8" transform="matrix(1, -0.17, 0.17, 0.99, 194.42, 312.13)">a</text><text class="cls-8" transform="translate(204.23 310.38) rotate(-12.72) scale(1.02 1)"> </text><text class="cls-8" transform="translate(208.81 309.41) rotate(-15.73) scale(1.02 1)">T</text><text class="cls-8" transform="translate(217.85 306.87) rotate(-19.54) scale(1.02 1)">o</text><text class="cls-8" transform="translate(227.47 303.43) rotate(-23.47) scale(1.02 1)">n</text><text class="cls-8" transform="translate(236.75 299.33) rotate(-26.24) scale(1.02 1)">i</text><text class="cls-8" transform="translate(241.09 297.2) rotate(-28.23) scale(1.02 1)">f</text><text class="cls-8" transform="translate(246.72 294.15) rotate(-30.16) scale(1.02 1)">i</text><text class="cls-8" transform="translate(250.93 291.74) rotate(-32.39) scale(1.02 1)">c</text><text class="cls-8" transform="matrix(0.83, -0.59, 0.58, 0.82, 258.36, 287.03)">a</text><text class="cls-8" transform="translate(266.43 281.28) rotate(-38.01) scale(1.02 1)">r</text><rect class="cls-1" x="56.23" y="212.41" width="248.17" height="4.43"/><rect class="cls-1" x="87.55" y="221.67" width="185.53" height="4.43"/><polygon class="cls-1" points="107.75 236.89 111.93 245.36 121.28 246.72 114.52 253.31 116.11 262.62 107.75 258.23 99.39 262.62 100.99 253.31 94.22 246.72 103.57 245.36 107.75 236.89"/><polygon class="cls-1" points="252.88 236.89 257.06 245.36 266.41 246.72 259.64 253.31 261.24 262.62 252.88 258.23 244.52 262.62 246.11 253.31 239.35 246.72 248.7 245.36 252.88 236.89"/><polygon class="cls-1" points="142.44 263.04 145.92 270.09 153.7 271.23 148.07 276.71 149.4 284.46 142.44 280.81 135.48 284.46 136.81 276.71 131.17 271.23 138.96 270.09 142.44 263.04"/><polygon class="cls-1" points="218.19 263.04 221.68 270.09 229.46 271.23 223.83 276.71 225.16 284.46 218.19 280.81 211.23 284.46 212.56 276.71 206.93 271.23 214.71 270.09 218.19 263.04"/><polygon class="cls-1" points="180.32 268.58 184.24 276.54 193.03 277.81 186.67 284.01 188.17 292.76 180.32 288.63 172.46 292.76 173.96 284.01 167.6 277.81 176.39 276.54 180.32 268.58"/><path class="cls-1" d="M138.38,103.43c2.72-1.18,5.43-.81,8.14.27a1.33,1.33,0,0,0,1.06-.36c3.8-3.66,8.3-4.19,12.87-1.48,2,1.2,2.18,1.18,3.85-.56l.47-.51c2.37-2.75,2.33-2.73.76-5.93a20.67,20.67,0,0,1-1.25-3.46c-1.26-4.24-2-8.59-2.88-12.92a14.84,14.84,0,0,1,2.46-12.16c4.12-5.77,10.43-7.92,17.44-6.18A15.83,15.83,0,0,1,193,74a24.45,24.45,0,0,1-.66,5.45c-.15,1-.41,2-.6,3-.22,1.2-.36,2.43-.63,3.62a46.4,46.4,0,0,1-1.34,5.25,32.65,32.65,0,0,1-2.21,4.9,1.92,1.92,0,0,0,0,2.41q1.53,1.86,3.16,3.63c.67.73,1.37.68,2.22.06a9.9,9.9,0,0,1,13.42,1,1.45,1.45,0,0,0,1.24.37,11.38,11.38,0,0,1,8.09-.32c.41-4.38.89-8.65,1.2-12.93a10.6,10.6,0,0,0-1.43-5.76,2.08,2.08,0,0,0-2.56-1.18,10.15,10.15,0,0,1-3.21.11,5.64,5.64,0,0,1-5.15-5.13,11,11,0,0,1,.29-4.43c1.18-4,4.87-5.65,8.78-4a13.47,13.47,0,0,1,6.29,5.59q5.48,8.75,10.75,17.64a27.7,27.7,0,0,1,2,4.41,27.22,27.22,0,0,1,1.28,12.53,7.57,7.57,0,0,0,.91,4.65c1.53,2.72,1,5-1.53,6.83a18.62,18.62,0,0,1-2.53,1.37c-2.47,1.24-5,2.38-7.41,3.7-4.09,2.22-8.37,3.34-13,2.46a48.33,48.33,0,0,1-5.27-1.6,1.81,1.81,0,0,0-.21.38,71.08,71.08,0,0,1-7,14c-1.79,2.8-3.47,5.68-3.89,9-.27,2.17-.22,4.38-.4,6.56a7.86,7.86,0,0,1-.58,2.65c-.8,1.71-2.25,2.32-4.14,2.31-8.4-.07-16.79-.06-25.19-.08-1.35,0-2.95-1.79-3.12-3.61-.12-1.3-.13-2.62-.14-3.92a21.92,21.92,0,0,0-3.65-12.11,62.48,62.48,0,0,1-7.9-15.43c-.34.14-.61.23-.87.35a17.75,17.75,0,0,1-16.42-.51c-2.95-1.57-6-3-9-4.45a14.14,14.14,0,0,1-2.73-1.69,4.58,4.58,0,0,1-1-6,6.88,6.88,0,0,0,1-4.72,29.55,29.55,0,0,1,4.67-19.59c2.75-4.41,5.32-8.93,8.13-13.29a44.21,44.21,0,0,1,4.44-5.43,8.26,8.26,0,0,1,2.26-1.58c5-2.74,9.7-.12,10.05,5.59.32,5.32-3.18,8.49-8.48,7.68-1.55-.24-2.08,0-2.83,1.5a13.81,13.81,0,0,0-1,7.79C137.46,96.45,137.94,99.84,138.38,103.43Zm31.32-3.11c-.65.87-1.21,1.71-1.86,2.46a17,17,0,0,1-2.13,2.11c-3,2.36-4.43,2.29-6.84.4-3.3-2.57-7-1.63-9.11,1.91a2.21,2.21,0,0,1-3.33.87c-.33-.19-.65-.42-1-.64a5.4,5.4,0,0,0-7.33.64,28,28,0,0,0-2,2.63,14.49,14.49,0,0,1-1.62,1.94,2.17,2.17,0,0,1-3.12-.09c-.68-.81-.53-1.93.57-2.82a5.22,5.22,0,0,0,2-3.39,31.62,31.62,0,0,0,.35-6.29c-.25-3.51-1.33-7-1-10.54a13.75,13.75,0,0,1,3.17-8A4.32,4.32,0,0,1,141.61,80c1.93.69,3.28.1,3.93-1.49.76-1.86.1-4.54-1.37-5.28a1.89,1.89,0,0,0-1.42-.17,10.36,10.36,0,0,0-3.25,1.84,29.07,29.07,0,0,0-3.85,4.86c-2.76,4.36-5.38,8.8-8,13.22-1.75,2.92-3.36,6-3.71,9.37-.29,2.94-.22,5.92-.24,8.88a7.68,7.68,0,0,1-1,4.64c-.89,1.3-.75,2.14.56,3.06a13.59,13.59,0,0,0,2,1.06c1.63.77,3.28,1.51,4.89,2.31,1.28.63,2.49,1.39,3.79,2,4.77,2.15,9.45,2.13,14-.71,1.87-1.17,3-.85,3.77,1.23A85,85,0,0,0,160.5,142a22.81,22.81,0,0,1,3.55,12.14c0,1.45,0,2.91,0,4.4.56,0,.86.08,1.16.08q11.32,0,22.64,0c1.81,0,2.08-.28,2-2.09a27.52,27.52,0,0,1,4.27-15.79c2-3.17,3.81-6.5,5.53-9.85,1-1.94,1.64-4.06,2.46-6.09s2-2.47,4-1.26a15.48,15.48,0,0,0,3.76,1.69c4.2,1.14,8.12.25,11.88-1.81,2.5-1.35,5.1-2.51,7.63-3.8a10.09,10.09,0,0,0,2.07-1.41,1.25,1.25,0,0,0,.23-1.17c-1.45-2.61-1.54-5.39-1.38-8.29.23-4.31,0-8.65-2.21-12.46-3.66-6.37-7.54-12.61-11.41-18.85a10.48,10.48,0,0,0-4.24-4c-2-1-3.42-.39-4.08,1.78a5.61,5.61,0,0,0-.25,1.58c0,2.53,1.39,3.68,3.84,3.17,3.06-.65,4.62,0,6.39,2.57a12.38,12.38,0,0,1,2.21,7.64c-.14,3.22-.68,6.42-1,9.63-.36,3.84-.6,7.66,2.87,10.51a1.49,1.49,0,0,1-.36,2.51,2.19,2.19,0,0,1-3-.49c-.85-1-1.55-2.1-2.32-3.15a6.4,6.4,0,0,0-3.36-2.68,5.85,5.85,0,0,0-5.4,1.2c-1.85,1.39-3.39.79-4.25-1.32a3.66,3.66,0,0,0-1.6-1.8,6.51,6.51,0,0,0-7.35.8c-2.34,1.83-4,1.42-6.17-.17a14.51,14.51,0,0,1-2.11-2c-.81-.92-1.53-1.92-2.28-2.89C178.83,104.19,174.39,104,169.7,100.32Zm-3.83-18.43-.31.09c.85,3.14,1.56,6.32,2.62,9.39a16.3,16.3,0,0,0,2.68,4.91c3.35,4.17,8.47,4.3,11.92.25a19.37,19.37,0,0,0,3.13-5.44,40.48,40.48,0,0,0,2-7.21,10.38,10.38,0,0,0-2.15-8.56,1.57,1.57,0,0,0-2.09-.61,21.85,21.85,0,0,1-14.22,1,1.71,1.71,0,0,0-2.06.78A9.42,9.42,0,0,0,165.87,81.89Zm-1.33-7.75c3-2.51,3-2.44,6.82-1.71s7.89.68,11.51-1.5a2.72,2.72,0,0,1,3.33.15c1.13.9,2.17,1.92,3.19,2.83-.4-5.55-5.82-10.42-12-10.64A12.4,12.4,0,0,0,164.54,74.14Z" transform="translate(3.38 -2.66)"/><path class="cls-1" d="M202.44,118.75c-1,1.71-1.84,3.35-2.83,4.9-2.59,4-5.85,7.33-10.55,8.89-3.05,1-6.12.78-9.25.4a21.73,21.73,0,0,0-6.29,0c-8.53,1.54-14.43-2.24-18.94-9-1.1-1.65-2-3.43-3.11-5.28-3.12,1.76-6.53,1.9-10,1.69a16.81,16.81,0,0,1-3.71-.73,1.71,1.71,0,0,1-1.28-2.16c.26-1,1.13-1.14,2-1.09,2.19.11,4.38.32,6.56.31a9.58,9.58,0,0,0,5.61-1.86c1.6-1.14,2.6-.89,3.56.86,1.09,2,2,4.07,3.19,6,2,3.36,4.68,6.11,8.61,7.28a15.16,15.16,0,0,0,8.21.05,12.51,12.51,0,0,1,6.37.1,12.67,12.67,0,0,0,12.54-3.4,29.34,29.34,0,0,0,5.72-8.34,19.56,19.56,0,0,1,1.33-2.42,1.63,1.63,0,0,1,2.52-.45c3.31,2.47,7.06,2.51,10.92,2,.69-.08,1.38-.16,2.07-.2s1.6.21,1.65,1.06c0,.62-.26,1.63-.7,1.84a11.77,11.77,0,0,1-3.7,1.09A19.81,19.81,0,0,1,202.44,118.75Z" transform="translate(3.38 -2.66)"/><path class="cls-1" d="M176.75,144.47h-6.69a5.13,5.13,0,0,1-4.71-3.16,1.72,1.72,0,0,1,.58-2.51,1.69,1.69,0,0,1,2.57.63,2.85,2.85,0,0,0,2.8,1.36c3.88-.06,7.77-.05,11.65,0a2.67,2.67,0,0,0,2.52-1.27,1.8,1.8,0,0,1,2.55-.8,1.84,1.84,0,0,1,.58,2.54,5.11,5.11,0,0,1-4.92,3.19c-2.31.07-4.62,0-6.93,0Z" transform="translate(3.38 -2.66)"/><path class="cls-1" d="M177.2,155.56c-1.92,0-3.85.1-5.76,0a5.47,5.47,0,0,1-4.8-2.72,3.19,3.19,0,0,1-.13-2.26c.11-.38,1-.75,1.51-.72a2.41,2.41,0,0,1,1.49.89A2.9,2.9,0,0,0,172,151.9c3.23,0,6.46,0,9.69,0a3.21,3.21,0,0,0,2.67-1.1c.25-.29.52-.66.85-.75.58-.17,1.37-.39,1.79-.13a2,2,0,0,1,.71,1.63,4.24,4.24,0,0,1-3.71,3.73c-2.24.2-4.52,0-6.78,0Z" transform="translate(3.38 -2.66)"/></svg>