<?xml version="1.0" encoding="utf-8"?>
<!-- Generator: Adobe Illustrator 24.2.0, SVG Export Plug-In . SVG Version: 6.00 Build 0)  -->
<svg version="1.1" xmlns="http://www.w3.org/2000/svg" xmlns:xlink="http://www.w3.org/1999/xlink" x="0px" y="0px"
	 viewBox="0 0 262 172.5" style="enable-background:new 0 0 262 172.5;" xml:space="preserve">
<style type="text/css">
	.st0{fill:#6B6B6B;}
	.st1{opacity:0.2;}
	.st2{fill:#4E4E4E;}
	.st3{fill:#CACACA;}
	.st4{fill:#EEBD42;}
	.st5{fill:#F1F1F1;}
	.st6{opacity:0.1;fill:#363636;}
	.st7{fill:#FFFFFF;}
	.st8{fill:#E4AC35;}
	.st9{fill:#F2CF7B;}
	.st10{fill:#202020;}
	.st11{fill:#363636;}
	.st12{opacity:0.1;}
	.st13{font-family:'PaybAck';}
	.st14{font-size:6.2411px;}
	.st15{font-size:12px;}
	.st16{fill:#EBE235;}
	.st17{fill:#FFFFFF;stroke:#FFFFFF;stroke-width:0.4475;stroke-miterlimit:10;}
</style>
<g id="BACKGROUND">
</g>
<g id="OBJECTS">
	<g>
		<g>
			<path class="st0" d="M257,162H5c-2.8,0-5-2.3-5-5l0,0c0-2.8,2.2-5,5-5h252c2.8,0,5,2.3,5,5l0,0C262,159.8,259.8,162,257,162z"/>
			<path class="st1" d="M232.8,157.5H24.2c-0.7,0-1.2-0.5-1.2-1.2l0,0c0-0.7,0.5-1.2,1.2-1.2h208.6c0.7,0,1.2,0.5,1.2,1.2l0,0
				C234,156.9,233.5,157.5,232.8,157.5z"/>
			<g>
				<g>
					<g>
						<path class="st2" d="M82.8,156L60.3,6c0-0.2,0.2-0.5,0.4-0.5h3.7c0.2,0,0.4,0.1,0.4,0.3l22.5,150"/>
						<path class="st2" d="M59.7,156L37.2,6c0-0.2,0.2-0.5,0.4-0.5h3.7c0.2,0,0.4,0.1,0.4,0.3l22.5,150"/>
						<path class="st2" d="M59.5,133.5h21.2c1.2,0,2.1-0.9,2.1-2.1l0,0c0-1.2-0.9-2.1-2.1-2.1H59.5c-1.2,0-2.1,0.9-2.1,2.1l0,0
							C57.4,132.6,58.3,133.5,59.5,133.5z"/>
						<path class="st2" d="M56.4,113.7h21.2c1.2,0,2.1-0.9,2.1-2.1l0,0c0-1.2-0.9-2.1-2.1-2.1H56.4c-1.2,0-2.1,0.9-2.1,2.1l0,0
							C54.3,112.8,55.2,113.7,56.4,113.7z"/>
						<path class="st2" d="M53.3,93.9h21.2c1.2,0,2.1-0.9,2.1-2.1l0,0c0-1.2-0.9-2.1-2.1-2.1H53.3c-1.2,0-2.1,0.9-2.1,2.1l0,0
							C51.2,93,52.2,93.9,53.3,93.9z"/>
						<path class="st2" d="M50.3,74.1h21.2c1.2,0,2.1-0.9,2.1-2.1l0,0c0-1.2-0.9-2.1-2.1-2.1H50.3c-1.2,0-2.1,0.9-2.1,2.1l0,0
							C48.2,73.2,49.1,74.1,50.3,74.1z"/>
						<path class="st2" d="M47.9,56.2h21.2c1.2,0,2.1-0.9,2.1-2.1l0,0c0-1.2-0.9-2.1-2.1-2.1H47.9c-1.2,0-2.1,0.9-2.1,2.1l0,0
							C45.8,55.3,46.8,56.2,47.9,56.2z"/>
						<path class="st2" d="M44.9,36.4h21.2c1.2,0,2.1-0.9,2.1-2.1l0,0c0-1.2-0.9-2.1-2.1-2.1H44.9c-1.2,0-2.1,0.9-2.1,2.1l0,0
							C42.7,35.5,43.7,36.4,44.9,36.4z"/>
						<path class="st2" d="M42.5,18.5h21.2c1.2,0,2.1-0.9,2.1-2.1l0,0c0-1.2-0.9-2.1-2.1-2.1H42.5c-1.2,0-2.1,0.9-2.1,2.1l0,0
							C40.4,17.6,41.3,18.5,42.5,18.5z"/>
					</g>
					<g>
						<path class="st3" d="M19.1,156L41.6,6c0-0.2-0.2-0.5-0.4-0.5h-3.7c-0.2,0-0.4,0.1-0.4,0.3l-22.5,150"/>
						<path class="st3" d="M42.2,156L64.7,6c0-0.2-0.2-0.5-0.4-0.5h-3.7c-0.2,0-0.4,0.1-0.4,0.3l-22.5,150"/>
						<path class="st3" d="M42.4,133.5H21.2c-1.2,0-2.1-0.9-2.1-2.1l0,0c0-1.2,0.9-2.1,2.1-2.1h21.2c1.2,0,2.1,0.9,2.1,2.1l0,0
							C44.5,132.6,43.6,133.5,42.4,133.5z"/>
						<path class="st3" d="M45.5,113.7H24.3c-1.2,0-2.1-0.9-2.1-2.1l0,0c0-1.2,0.9-2.1,2.1-2.1h21.2c1.2,0,2.1,0.9,2.1,2.1l0,0
							C47.6,112.8,46.6,113.7,45.5,113.7z"/>
						<path class="st3" d="M48.5,93.9H27.3c-1.2,0-2.1-0.9-2.1-2.1l0,0c0-1.2,0.9-2.1,2.1-2.1h21.2c1.2,0,2.1,0.9,2.1,2.1l0,0
							C50.7,93,49.7,93.9,48.5,93.9z"/>
						<path class="st3" d="M51.6,74.1H30.4c-1.2,0-2.1-0.9-2.1-2.1l0,0c0-1.2,0.9-2.1,2.1-2.1h21.2c1.2,0,2.1,0.9,2.1,2.1l0,0
							C53.7,73.2,52.8,74.1,51.6,74.1z"/>
						<path class="st3" d="M54,56.2H32.7c-1.2,0-2.1-0.9-2.1-2.1l0,0c0-1.2,0.9-2.1,2.1-2.1H54c1.2,0,2.1,0.9,2.1,2.1l0,0
							C56.1,55.3,55.1,56.2,54,56.2z"/>
						<path class="st3" d="M57,36.4H35.8c-1.2,0-2.1-0.9-2.1-2.1l0,0c0-1.2,0.9-2.1,2.1-2.1H57c1.2,0,2.1,0.9,2.1,2.1l0,0
							C59.1,35.5,58.2,36.4,57,36.4z"/>
						<path class="st3" d="M59.4,18.5H38.2c-1.2,0-2.1-0.9-2.1-2.1l0,0c0-1.2,0.9-2.1,2.1-2.1h21.2c1.2,0,2.1,0.9,2.1,2.1l0,0
							C61.5,17.6,60.6,18.5,59.4,18.5z"/>
					</g>
					<path class="st4" d="M64.5,6.3H37.2c-0.7,0-1.3-0.7-1.1-1.4l0.3-1.5c0.1-0.5,0.6-0.9,1.1-0.9h27.3c0.7,0,1.3,0.7,1.1,1.4
						l-0.3,1.5C65.5,5.9,65,6.3,64.5,6.3z"/>
				</g>
				<path class="st2" d="M181.3,138.3l-1-4.8l0,0l-0.4-1.8l0,0l-0.4-1.9l-2.2-10.8c-0.1-0.6-0.7-1.1-1.3-1.1h-5.7H170l-1.1-7.6h0.7
					h5.1c0.8,0,1.5-0.8,1.3-1.6l-1-4.8l0,0l-0.4-1.8l0,0l-0.4-1.9L172,89.5c-0.1-0.6-0.7-1.1-1.3-1.1h-5.1l-0.6-4.2
					c0-0.2-0.2-0.3-0.4-0.3h-3.7c-0.2,0-0.4,0.2-0.4,0.5l0.6,4.1h-3.7h-13.6h-5.3h-10.3h-5.3h-10.5h-2l-0.6-4.2
					c0-0.2-0.2-0.3-0.4-0.3h-3.7c-0.2,0-0.4,0.2-0.4,0.5l0.6,4.1H102h-2.9c-0.8,0-1.5,0.8-1.3,1.6l2.1,9.9l0,0l0.8,3.7l1.2,5.7
					c0.1,0.6,0.7,1.1,1.3,1.1h5.9l1.1,7.6h-2.8h-2.8c-0.8,0-1.5,0.8-1.3,1.6l2.1,9.9l0,0l0.8,3.7l1.2,5.7c0.1,0.6,0.7,1.1,1.3,1.1
					h4.9l2.3,15.6c0,0.2,0.2,0.3,0.4,0.3h3.7c0.2,0,0.4-0.2,0.4-0.5l-2.3-15.5h2.1h10.3h5.3h13.6h7.5h11.9l2.3,15.6
					c0,0.2,0.2,0.3,0.4,0.3h3.7c0.2,0,0.4-0.2,0.4-0.5l-2.3-15.5h1.6h5.1C180.9,139.9,181.5,139.2,181.3,138.3z M165.5,118h-2.7
					h-13.6h-5.3h-10.3h-5.3h-10.5h-2.9l-1.1-7.6h1.1H125h5.3H144h7.5h12.8h0.1L165.5,118z"/>
				<g>
					<path class="st3" d="M147.3,155.8h3.7c0.2,0,0.4-0.1,0.4-0.3l10.5-71.2c0-0.2-0.2-0.5-0.4-0.5h-3.7c-0.2,0-0.4,0.1-0.4,0.3
						l-10.5,71.2C146.8,155.6,147,155.8,147.3,155.8z"/>
					<path class="st3" d="M92,155.8h3.7c0.2,0,0.4-0.1,0.4-0.3l10.5-71.2c0-0.2-0.2-0.5-0.4-0.5h-3.7c-0.2,0-0.4,0.1-0.4,0.3
						l-10.5,71.2C91.5,155.6,91.7,155.8,92,155.8z"/>
					<g>
						<path class="st5" d="M92.4,110.4h71.5c0.6,0,1.2-0.4,1.3-1.1l4-19.3c0.2-0.8-0.5-1.6-1.3-1.6H96.4c-0.6,0-1.2,0.4-1.3,1.1
							l-4,19.3C90.9,109.6,91.5,110.4,92.4,110.4z"/>
						<g>
							<polygon class="st4" points="102.1,88.4 115.6,110.4 123.1,110.4 109.7,88.4 							"/>
							<polygon class="st4" points="92.4,102.2 97.5,110.4 102.8,110.4 93.8,95.7 							"/>
							<polygon class="st4" points="123.3,88.4 136.8,110.4 142.1,110.4 128.6,88.4 							"/>
							<polygon class="st4" points="138.9,88.4 152.4,110.4 157.7,110.4 144.2,88.4 							"/>
							<polygon class="st4" points="160.1,88.4 154.7,88.4 165.8,106.4 167.1,99.9 							"/>
						</g>
						<path class="st5" d="M87.1,139.9h71.5c0.6,0,1.2-0.4,1.3-1.1l4-19.3c0.2-0.8-0.5-1.6-1.3-1.6H91.1c-0.6,0-1.2,0.4-1.3,1.1
							l-4,19.3C85.6,139.2,86.2,139.9,87.1,139.9z"/>
						<g>
							<polygon class="st4" points="96.8,118 110.3,139.9 117.8,139.9 104.3,118 							"/>
							<polygon class="st4" points="87.1,131.7 92.2,139.9 97.5,139.9 88.5,125.2 							"/>
							<polygon class="st4" points="118,118 131.5,139.9 136.8,139.9 123.3,118 							"/>
							<polygon class="st4" points="133.6,118 147.1,139.9 152.4,139.9 138.9,118 							"/>
							<polygon class="st4" points="154.8,118 149.4,118 160.5,136 161.8,129.5 							"/>
						</g>
					</g>
					<path class="st6" d="M167.9,88.4h-2.9l-3.1,15.1c-0.1,0.6-0.6,1-1.2,1H93.1c-0.4,0-0.8-0.2-1-0.5l-1,4.8
						c-0.2,0.8,0.5,1.6,1.3,1.6h71.5c0.6,0,1.2-0.4,1.3-1.1l4-19.3C169.4,89.2,168.7,88.4,167.9,88.4z"/>
					<path class="st6" d="M162.6,118h-2.9l-3.1,15.1c-0.1,0.6-0.6,1-1.2,1H87.8c-0.4,0-0.8-0.2-1-0.5l-1,4.8
						c-0.2,0.8,0.5,1.6,1.3,1.6h71.5c0.6,0,1.2-0.4,1.3-1.1l4-19.3C164.1,118.7,163.4,118,162.6,118z"/>
					<g>
						<path class="st7" d="M95.3,122.5h3.8c0.8,0,1.5-0.7,1.5-1.5l0,0c0-0.8-0.7-1.5-1.5-1.5h-3.8c-0.8,0-1.5,0.7-1.5,1.5l0,0
							C93.8,121.8,94.5,122.5,95.3,122.5z"/>
						<path class="st7" d="M150.1,131.1h2.5c0.6,0,1-0.5,1-1l0,0c0-0.6-0.5-1-1-1h-2.5c-0.6,0-1,0.5-1,1l0,0
							C149.1,130.6,149.5,131.1,150.1,131.1z"/>
						<path class="st7" d="M111.2,93h3.8c0.8,0,1.5-0.7,1.5-1.5l0,0c0-0.8-0.7-1.5-1.5-1.5h-3.8c-0.8,0-1.5,0.7-1.5,1.5l0,0
							C109.7,92.3,110.4,93,111.2,93z"/>
						<path class="st7" d="M102.1,102.8h4.5c0.8,0,1.5-0.7,1.5-1.5l0,0c0-0.8-0.7-1.5-1.5-1.5h-4.5c-0.8,0-1.5,0.7-1.5,1.5l0,0
							C100.6,102.1,101.3,102.8,102.1,102.8z"/>
						<path class="st7" d="M154.4,94.5h4.5c0.8,0,1.5-0.7,1.5-1.5l0,0c0-0.8-0.7-1.5-1.5-1.5h-4.5c-0.8,0-1.5,0.7-1.5,1.5l0,0
							C152.9,93.8,153.5,94.5,154.4,94.5z"/>
					</g>
				</g>
			</g>
			<g>
				<path class="st3" d="M189.7,155.8h-3.2c-0.2,0-0.4-0.2-0.4-0.4V51.3c0-0.2,0.2-0.4,0.4-0.4h3.2c0.2,0,0.4,0.2,0.4,0.4v104.2
					C190.1,155.7,189.9,155.8,189.7,155.8z"/>
				<path class="st4" d="M157.2,39.6l28.7,28.7c1.3,1.3,3.3,1.3,4.6,0L219,39.6c1.3-1.3,1.3-3.3,0-4.6L190.4,6.4
					c-1.3-1.3-3.3-1.3-4.6,0L157.2,35C155.9,36.3,155.9,38.4,157.2,39.6z"/>
				<path class="st7" d="M162.3,38.7l23.9,23.9c1.1,1.1,2.8,1.1,3.8,0l23.9-23.9c1.1-1.1,1.1-2.8,0-3.8L190,11
					c-1.1-1.1-2.8-1.1-3.8,0l-23.9,23.9C161.2,36,161.2,37.7,162.3,38.7z"/>
			</g>
			<g>
				<g>
					<path class="st4" d="M207.2,126.2c-0.2-0.4-0.8-0.4-0.9,0l-3.5,9.7h7.8L207.2,126.2z"/>
					<path class="st4" d="M216.9,154.1l-2.8-8.2h-14.8l-2.9,8.2c-0.1,0.3,0.1,0.7,0.5,0.7h19.6C216.8,154.7,217,154.4,216.9,154.1z"
						/>
					<polygon class="st5" points="210.6,135.9 202.8,135.9 199.2,145.9 214,145.9 					"/>
				</g>
				<path class="st8" d="M194,155.8h25.3c0.4,0,0.6-0.3,0.6-0.6v-1.5c0-0.4-0.3-0.6-0.6-0.6H194c-0.4,0-0.6,0.3-0.6,0.6v1.5
					C193.3,155.5,193.6,155.8,194,155.8z"/>
				<path class="st6" d="M219.4,153.1h-2.8l-2.5-7.2l-3.4-10l-3.4-9.7c-0.2-0.4-0.8-0.4-0.9,0l-0.5,1.3l7.8,24h-16.3l-0.6,1.7h-2.8
					c-0.3,0-0.6,0.3-0.6,0.6v1.6c0,0.3,0.3,0.6,0.6,0.6h25.4c0.3,0,0.6-0.3,0.6-0.6v-1.6C219.9,153.3,219.7,153.1,219.4,153.1z"/>
				<g>
					<path class="st7" d="M206.7,137h1.1c0.5,0,0.8-0.4,0.8-0.8l0,0c0-0.5-0.4-0.8-0.8-0.8h-1.1c-0.5,0-0.8,0.4-0.8,0.8l0,0
						C205.9,136.6,206.3,137,206.7,137z"/>
					<path class="st7" d="M204.2,145.9H202c-0.3,0-0.6-0.2-0.6-0.6l0,0c0-0.3,0.2-0.6,0.6-0.6h2.2c0.3,0,0.6,0.2,0.6,0.6l0,0
						C204.8,145.6,204.6,145.9,204.2,145.9z"/>
					<path class="st9" d="M209.5,150.9h1.7c0.5,0,0.8-0.4,0.8-0.8l0,0c0-0.5-0.4-0.8-0.8-0.8h-1.7c-0.5,0-0.8,0.4-0.8,0.8l0,0
						C208.7,150.5,209,150.9,209.5,150.9z"/>
				</g>
				<path class="st9" d="M205.9,133.1h-0.6c-0.3,0-0.6-0.2-0.6-0.6l0,0c0-0.3,0.2-0.6,0.6-0.6h0.6c0.3,0,0.6,0.2,0.6,0.6l0,0
					C206.5,132.9,206.2,133.1,205.9,133.1z"/>
			</g>
			<g>
				<g>
					<path class="st10" d="M83.4,155.6l0.8,0.7c0.2,0.2,0.5,0.3,0.8,0.2l1-0.4c3.6-1.3,6.1-4.2,6.8-7.8l1.6-8.4
						c0.1-0.3-0.1-0.6-0.4-0.8l-1.4-0.7c-1.4-0.7-2.8-1.1-4.3-1.4l0,0c-1.4-0.3-2.9-0.4-4.4-0.3l-1.8,0.1c-0.3,0-0.6,0.3-0.7,0.6
						l-1.6,8.3C79.2,149.3,80.5,153,83.4,155.6z"/>
					<path class="st3" d="M87.1,143.3L87.1,143.3c-0.5-0.1-0.8-0.5-0.7-1l10.6-55c0.1-0.5,0.5-0.8,1-0.7l0,0c0.5,0.1,0.8,0.5,0.7,1
						l-10.6,55C88,143.1,87.6,143.4,87.1,143.3z"/>
					<path class="st11" d="M87.1,144L87.1,144c-0.6-0.1-1.1-0.8-0.9-1.4l3.1-16c0-0.1,0.2-0.2,0.3-0.2l1.8,0.4
						c0.1,0,0.2,0.2,0.2,0.3l-3.1,16C88.3,143.7,87.7,144.1,87.1,144z"/>
					<path class="st12" d="M94.1,139.2l-0.6-0.3l-1.5,7.6c-0.7,3.5-3.2,6.4-6.8,7.8l-1,0.4c-0.3,0.1-0.6,0-0.8-0.2l-0.8-0.7
						c-0.9-0.8-1.7-1.7-2.2-2.7c0.6,1.7,1.7,3.3,3.1,4.6l0.8,0.7c0.2,0.2,0.5,0.3,0.8,0.2l1-0.4c3.6-1.3,6.1-4.2,6.8-7.8l1.6-8.4
						C94.6,139.7,94.4,139.3,94.1,139.2z"/>
				</g>
				<g>
					
						<rect x="97" y="85.6" transform="matrix(0.9819 0.1894 -0.1894 0.9819 18.3173 -16.9669)" class="st4" width="1.9" height="3.5"/>
					<path class="st4" d="M95.9,79.3L95,84c-0.2,1,0.4,1.9,1.4,2.1l3.2,0.6c1,0.2,1.9-0.4,2.1-1.4l0.9-4.7c0.1-0.5-0.2-0.9-0.7-1
						l-5.1-1C96.5,78.6,96,78.9,95.9,79.3z M98.6,85l-0.5-0.1c-1-0.2-1.6-1.1-1.4-2.1l0.5-2.6l4,0.8l-0.5,2.6
						C100.5,84.5,99.5,85.2,98.6,85z"/>
					
						<rect x="97.9" y="79" transform="matrix(0.9819 0.1894 -0.1894 0.9819 16.9353 -17.3587)" class="st11" width="2.8" height="1.8"/>
				</g>
			</g>
			<g>
				<path class="st1" d="M201.6,166.1h39.8c0.5,0,0.8-0.4,0.8-0.8l0,0c0-0.5-0.4-0.8-0.8-0.8h-39.8c-0.5,0-0.8,0.4-0.8,0.8l0,0
					C200.8,165.7,201.1,166.1,201.6,166.1z"/>
				<path class="st1" d="M29.3,165.6h39.8c0.5,0,0.8-0.4,0.8-0.8l0,0c0-0.5-0.4-0.8-0.8-0.8H29.3c-0.5,0-0.8,0.4-0.8,0.8l0,0
					C28.5,165.3,28.8,165.6,29.3,165.6z"/>
				<path class="st1" d="M54.7,172.5h92.1c0.5,0,0.8-0.4,0.8-0.8l0,0c0-0.5-0.4-0.8-0.8-0.8H54.7c-0.5,0-0.8,0.4-0.8,0.8l0,0
					C53.9,172.1,54.3,172.5,54.7,172.5z"/>
			</g>
			<g>
				<g>
					<path class="st4" d="M49.8,126.9c-0.2-0.4-0.8-0.4-0.9,0l-3.5,9.7h7.8L49.8,126.9z"/>
					<path class="st4" d="M59.4,154.8l-2.8-8.2H41.8l-2.9,8.2c-0.1,0.3,0.1,0.7,0.5,0.7H59C59.3,155.5,59.6,155.1,59.4,154.8z"/>
					<polygon class="st5" points="53.1,136.6 45.3,136.6 41.8,146.6 56.6,146.6 					"/>
				</g>
				<path class="st8" d="M36.6,156.6h25.3c0.4,0,0.6-0.3,0.6-0.6v-1.5c0-0.4-0.3-0.6-0.6-0.6H36.6c-0.4,0-0.6,0.3-0.6,0.6v1.5
					C35.9,156.3,36.2,156.6,36.6,156.6z"/>
				<path class="st6" d="M61.9,153.8h-2.8l-2.5-7.2l-3.4-10l-3.4-9.7c-0.2-0.4-0.8-0.4-0.9,0l-0.5,1.3l7.8,24H39.9l-0.6,1.7h-2.8
					c-0.3,0-0.6,0.3-0.6,0.6v1.6c0,0.3,0.3,0.6,0.6,0.6h25.4c0.3,0,0.6-0.3,0.6-0.6v-1.6C62.5,154.1,62.2,153.8,61.9,153.8z"/>
				<g>
					<path class="st7" d="M49.3,137.7h1.1c0.5,0,0.8-0.4,0.8-0.8v0c0-0.5-0.4-0.8-0.8-0.8h-1.1c-0.5,0-0.8,0.4-0.8,0.8v0
						C48.5,137.4,48.8,137.7,49.3,137.7z"/>
					<path class="st7" d="M46.8,146.6h-2.2c-0.3,0-0.6-0.2-0.6-0.6l0,0c0-0.3,0.2-0.6,0.6-0.6h2.2c0.3,0,0.6,0.2,0.6,0.6l0,0
						C47.4,146.3,47.1,146.6,46.8,146.6z"/>
					<path class="st9" d="M52.1,151.6h1.7c0.5,0,0.8-0.4,0.8-0.8l0,0c0-0.5-0.4-0.8-0.8-0.8h-1.7c-0.5,0-0.8,0.4-0.8,0.8l0,0
						C51.2,151.2,51.6,151.6,52.1,151.6z"/>
				</g>
				<path class="st9" d="M48.5,133.9h-0.6c-0.3,0-0.6-0.2-0.6-0.6l0,0c0-0.3,0.2-0.6,0.6-0.6h0.6c0.3,0,0.6,0.2,0.6,0.6l0,0
					C49,133.6,48.8,133.9,48.5,133.9z"/>
			</g>
			<g>
				<path class="st2" d="M188.5,41.6h-2.3c-0.3,0-0.5-0.2-0.5-0.5l-0.4-18c0-0.3,0.2-0.5,0.5-0.5h3.1c0.3,0,0.5,0.2,0.5,0.5l-0.4,18
					C189,41.4,188.8,41.6,188.5,41.6z M188.9,47.9h-3.1c-0.3,0-0.5-0.2-0.5-0.5v-3.1c0-0.3,0.2-0.5,0.5-0.5h3.1
					c0.3,0,0.5,0.2,0.5,0.5v3.1C189.4,47.7,189.2,47.9,188.9,47.9z"/>
			</g>
		</g>
		<text transform="matrix(1 0 0 1 94.2453 130.6371)" class="st13 st14">under construction </text>
		<text transform="matrix(1 0 0 1 102.3403 103.4087)" class="st13 st15">CEC - FGI</text>
		<g>
			<g>
				<circle cx="239.4" cy="15.1" r="15.1"/>
				<path class="st16" d="M241.1,23c0,0,1.1-2.3-1.6-2.3c-2.8,0-1.6,2.3-1.6,2.3c-0.2,0.3-0.3,0.5-0.3,0.9c0,0.9,0.9,1.7,1.9,1.7
					c1.1,0,1.9-0.8,1.9-1.7C241.4,23.5,241.3,23.2,241.1,23z M240.3,22.3c-0.9-0.5-1.8,0-1.8,0s-0.9-1,0.9-1
					C241.3,21.4,240.3,22.3,240.3,22.3z"/>
				<g>
					<path class="st16" d="M235.5,17.9C235.5,17.9,235.4,17.9,235.5,17.9l-0.1,0l0,0.2h0c0,0,0,0,0,0c0,0,0,0,0,0L235.5,17.9z"/>
					<path class="st16" d="M237.5,19.1L237.5,19.1l0,0.2h0c0,0,0,0,0,0c0,0,0,0,0,0L237.5,19.1C237.6,19.1,237.5,19.1,237.5,19.1z"
						/>
					<path class="st16" d="M241.8,19.1L241.8,19.1C241.8,19.1,241.7,19.1,241.8,19.1l-0.1,0.5c0,0,0,0,0,0c0,0,0.1,0,0.1,0V19.1
						C241.9,19.1,241.9,19.1,241.8,19.1z"/>
					<path class="st16" d="M240.3,17.6L240.3,17.6l0,0.2h0c0,0,0,0,0,0c0,0,0,0,0,0L240.3,17.6C240.3,17.6,240.3,17.6,240.3,17.6z"
						/>
					<polygon class="st16" points="236.9,19.5 237,19.5 236.9,19.3 					"/>
					<polygon class="st16" points="242.1,17.9 242.1,18.1 242.1,18.1 					"/>
					<polygon class="st16" points="238,19.4 238.2,19.4 238.1,19.2 					"/>
					<path class="st16" d="M236.1,18.3C236.2,18.3,236.2,18.3,236.1,18.3l0-0.5c0,0,0,0-0.1,0l0,0c0,0,0,0,0,0L236.1,18.3
						C236.1,18.3,236.1,18.3,236.1,18.3z"/>
					<polygon class="st16" points="240.2,19.4 240.3,19.4 240.2,19.1 					"/>
					<path class="st16" d="M237,18.2C237.1,18.2,237.1,18.2,237,18.2v-0.5c0,0,0,0-0.1,0h0L237,18.2L237,18.2z"/>
					<path class="st16" d="M245.8,18.5L245.8,18.5C245.7,18.5,245.7,18.5,245.8,18.5l-0.2,0.5c0,0,0,0,0,0c0,0,0.1,0,0.1,0
						L245.8,18.5C245.8,18.5,245.8,18.5,245.8,18.5z"/>
					<path class="st16" d="M239.4,16.8c-5.2,0-7.7,1.3-7.7,1.3s0.9,1.5,2.7,2.9c0,0,2.8-0.6,4.9-0.6s5.1,0.6,5.1,0.6
						c2.3-1.8,2.7-2.9,2.7-2.9S244.5,16.8,239.4,16.8z M238.7,17.5v0.1h-0.3v0.2h0.2v0.1h-0.2v0.2h0.3v0.1h-0.5l0-0.7L238.7,17.5z
						 M237.8,17.5v0.1l-0.3,0v0.2h0.2V18h-0.2v0.2l0.3,0v0.1l-0.5,0l0-0.7L237.8,17.5z M237,17.6c0.2,0,0.2,0,0.2,0.1l0,0.4
						c0,0.1-0.1,0.2-0.2,0.2l-0.3,0l-0.1-0.7L237,17.6z M233.2,19.1c-0.2,0-0.3,0-0.3-0.1l-0.1-0.4c0-0.1,0-0.2,0.2-0.2
						c0.2,0,0.3,0,0.3,0.1l0,0.1l-0.2,0l0-0.1c0,0,0,0-0.1,0l0,0c0,0,0,0,0,0l0.1,0.4c0,0,0,0,0.1,0s0,0,0,0l0-0.1l0.2,0l0,0.1
						C233.5,19,233.4,19,233.2,19.1z M233.6,19l-0.2-0.7l0.4-0.1l0,0.1l-0.3,0.1l0,0.2l0.2,0l0,0.1l-0.2,0l0,0.2l0.3-0.1l0,0.1
						L233.6,19z M234.4,18.7l-0.2-0.3l0.1,0.4l-0.2,0l-0.2-0.7l0.2,0l0.2,0.3l-0.1-0.4l0.2,0l0.2,0.7L234.4,18.7z M234.9,18.6
						l-0.1-0.6l-0.2,0l0-0.1l0.5-0.1l0,0.1l-0.2,0l0.1,0.6L234.9,18.6z M235.6,20l-0.2,0l0-0.3l0,0l-0.3-0.4l0.2,0l0.2,0.3l0-0.3
						l0.2,0l-0.1,0.4l0,0L235.6,20z M235.6,18.5l-0.2-0.3l0,0l0,0.3l-0.2,0l-0.1-0.7l0.2,0c0.2,0,0.2,0,0.3,0.1V18
						c0,0.1,0,0.1-0.1,0.2l0.2,0.3L235.6,18.5z M235.9,18.3l-0.1-0.4c0-0.1,0.1-0.2,0.2-0.2c0.2,0,0.3,0,0.3,0.1l0.1,0.4
						c0,0.1-0.1,0.2-0.2,0.2C236,18.4,235.9,18.4,235.9,18.3z M236.3,19.8c-0.2,0-0.3,0-0.3-0.1l-0.1-0.4c0-0.1,0.1-0.2,0.2-0.2
						s0.3,0,0.3,0.1v0.1l-0.2,0v-0.1c0,0,0,0-0.1,0l0,0c0,0,0,0,0,0l0.1,0.4c0,0,0,0,0.1,0c0,0,0,0,0,0v-0.1l0.2,0v0.1
						C236.6,19.8,236.5,19.8,236.3,19.8z M237.1,19.7l0-0.2h-0.2v0.2l-0.2,0l0-0.3l0.1-0.5l0.2,0l0.2,0.5l0.1,0.3H237.1z
						 M237.6,19.4c0,0-0.1,0-0.1,0l0,0l0,0.3h-0.2l-0.1-0.7l0.3,0c0.2,0,0.2,0,0.2,0.2v0.1C237.8,19.3,237.7,19.3,237.6,19.4z
						 M238.2,19.7l0-0.2H238l0,0.2h-0.2l0-0.3l0.1-0.5h0.2l0.2,0.5l0.1,0.3H238.2z M238.7,19.7c-0.2,0-0.2,0-0.3-0.2v-0.4
						c0-0.1,0.1-0.2,0.2-0.2s0.2,0,0.3,0.2v0.1h-0.2v-0.1c0,0,0,0,0,0l0,0c0,0,0,0,0,0v0.4c0,0,0,0,0,0c0,0,0,0,0,0v-0.1h0.2v0.1
						C239,19.6,238.9,19.7,238.7,19.7z M239.1,19.6v-0.7h0.2v0.7H239.1z M239.1,18.2l-0.1-0.4v0.4h-0.2v-0.7h0.2l0.1,0.4v-0.4h0.2
						v0.7H239.1z M243.5,17.8l0.2,0l-0.1,0.7l-0.2,0L243.5,17.8z M241.9,18.1l0.2-0.5l0.2,0l0.1,0.5l0,0.3l-0.2,0v-0.2H242l0,0.2
						l-0.2,0L241.9,18.1z M239.4,17.4h0.5v0.1h-0.2v0.6h-0.2v-0.6h-0.2L239.4,17.4z M239.8,19.6h-0.2V19h-0.2v-0.1h0.5V19h-0.2V19.6
						z M240.3,19.7l0-0.2h-0.2l0,0.2h-0.2l0.1-0.3l0.1-0.5h0.2l0.1,0.5l0,0.3H240.3z M240.3,18.2l-0.1-0.3l0,0v0.3H240l0-0.7h0.3
						c0.2,0,0.2,0.1,0.2,0.2v0.1c0,0.1,0,0.1-0.1,0.1l0.2,0.4H240.3z M241.1,19.2h-0.2v-0.1c0,0,0,0,0,0l0,0c0,0,0,0-0.1,0l0,0.4
						c0,0,0,0,0,0c0,0,0.1,0,0.1,0v-0.1h0.2v0.1c0,0.1-0.1,0.2-0.3,0.2c-0.2,0-0.2-0.1-0.2-0.2l0-0.4c0-0.1,0.1-0.2,0.3-0.2
						c0.2,0,0.2,0.1,0.2,0.2V19.2z M241.1,17.6h-0.3v0.2h0.2v0.1h-0.2v0.2h0.3v0.1l-0.5,0l0-0.7l0.5,0L241.1,17.6z M241.4,19.7h-0.2
						l0.1-0.7h0.2L241.4,19.7z M241.4,17.9l0,0.4h-0.2l0.1-0.7h0.2l0.1,0.4l0-0.4h0.2l-0.1,0.7h-0.2L241.4,17.9z M242.1,19.2l0,0.4
						c0,0.1-0.1,0.2-0.3,0.1c-0.2,0-0.2-0.1-0.2-0.2l0-0.4c0-0.1,0.1-0.2,0.3-0.1C242,19,242.1,19.1,242.1,19.2z M242.6,19.8l-0.2,0
						l-0.1-0.4l0,0.4l-0.2,0l0.1-0.7l0.2,0l0.1,0.4l0-0.4l0.2,0L242.6,19.8z M242.7,18.1l0,0.4l-0.2,0l0.1-0.7l0.2,0l0.1,0.5
						l0.2-0.5l0.2,0l-0.1,0.7l-0.2,0l0-0.4l-0.2,0.3l-0.1,0L242.7,18.1z M243.3,19.5v0.1l-0.2,0l0,0.2l0.3,0V20l-0.5-0.1l0.1-0.7
						l0.5,0.1v0.1l-0.3,0l0,0.2L243.3,19.5z M243.9,19.5l0,0.1l-0.2,0l0-0.1c0,0,0,0,0,0l0,0c0,0,0,0-0.1,0v0.1c0,0,0,0.1,0.1,0.2
						c0.1,0.1,0.2,0.1,0.1,0.2V20c0,0.1-0.1,0.2-0.3,0.1c-0.2,0-0.2-0.1-0.2-0.2l0-0.1l0.2,0l0,0.1c0,0,0,0,0,0c0,0,0.1,0,0.1,0
						v-0.1c0,0,0-0.1-0.1-0.2c-0.1-0.1-0.2-0.1-0.1-0.2v-0.1c0-0.1,0.1-0.2,0.3-0.1C243.9,19.3,243.9,19.4,243.9,19.5z M244.1,18.4
						l-0.2,0l0,0.2l0.3,0l0,0.1l-0.4-0.1l0.2-0.7l0.4,0.1l0,0.1l-0.3,0l0,0.2L244.1,18.4L244.1,18.4z M244.7,18.8l-0.2,0l0-0.4
						l-0.1,0.4l-0.2,0l0.2-0.7l0.2,0l0,0.4l0.1-0.4l0.2,0L244.7,18.8z M245.1,19l-0.2,0l0.2-0.6l-0.2,0l0-0.1l0.5,0.1l0,0.1l-0.2,0
						L245.1,19z M245.8,19c0,0.1-0.1,0.1-0.3,0.1c-0.2,0-0.2-0.1-0.2-0.2l0.1-0.4c0-0.1,0.1-0.1,0.3-0.1c0.2,0,0.2,0.1,0.2,0.2
						L245.8,19z"/>
				</g>
				<path class="st16" d="M239.4,4.6c-5.1,0-7.3,4.3-7.3,4.3h14.5C246.6,8.9,244.5,4.6,239.4,4.6z"/>
				<g id="FGI_1_">
					<path d="M236.8,8.6h-0.7v-3h2.3v0.6h-1.6v0.6h1.4v0.6h-1.4V8.6L236.8,8.6z"/>
					<path d="M241.4,6l-0.2,0.2L241,6.5l0,0c-0.1-0.1-0.2-0.2-0.4-0.2c-0.1,0-0.2-0.1-0.4-0.1c-0.1,0-0.2,0-0.3,0.1
						c-0.1,0-0.2,0.1-0.3,0.2c-0.1,0.1-0.1,0.2-0.2,0.3c0,0.1-0.1,0.2-0.1,0.4l0,0c0,0.1,0,0.2,0.1,0.4c0,0.1,0.1,0.2,0.2,0.3
						c0.1,0.1,0.2,0.2,0.3,0.2c0.1,0,0.2,0.1,0.3,0.1c0.2,0,0.4,0,0.5-0.2V7.5h-0.7l0,0V6.9h1.3l0,0v1.3l0,0
						c-0.4,0.3-0.8,0.5-1.2,0.5c-0.2,0-0.4,0-0.6-0.1c-0.2-0.1-0.4-0.2-0.5-0.3c-0.1-0.1-0.2-0.3-0.3-0.5c-0.1-0.2-0.1-0.4-0.1-0.6
						V7c0-0.2,0-0.4,0.1-0.6c0.1-0.2,0.2-0.4,0.3-0.5c0.2-0.2,0.3-0.2,0.5-0.3c0.2-0.1,0.4-0.1,0.6-0.1c0.2,0,0.5,0,0.6,0.1
						C241,5.7,241.2,5.9,241.4,6z"/>
					<path d="M242.7,8.6H242V5.6v0h0.7V8.6L242.7,8.6L242.7,8.6z"/>
				</g>
				<g>
					<path class="st17" d="M235.8,11.4c-0.3-0.2-0.6-0.4-0.9-0.5c-0.3-0.1-0.6-0.2-1-0.2c-0.7,0-1.2,0.2-1.6,0.6
						c-0.4,0.4-0.6,1-0.6,1.6c0,0.7,0.2,1.2,0.6,1.6c0.4,0.4,0.9,0.6,1.5,0.6c0.4,0,0.7-0.1,1-0.2c0.3-0.1,0.6-0.3,0.9-0.6v1.1
						c-0.3,0.2-0.5,0.3-0.9,0.4c-0.3,0.1-0.7,0.2-1,0.2c-0.5,0-0.9-0.1-1.3-0.2c-0.4-0.2-0.7-0.4-1-0.7c-0.3-0.3-0.5-0.6-0.7-1
						s-0.2-0.8-0.2-1.2c0-0.4,0.1-0.9,0.2-1.2s0.4-0.7,0.7-1c0.3-0.3,0.6-0.5,1-0.7c0.4-0.2,0.8-0.2,1.2-0.2c0.4,0,0.7,0,1,0.2
						c0.3,0.1,0.6,0.3,0.9,0.5L235.8,11.4z"/>
					<path class="st17" d="M237.6,15.9v-6h3.3v0.8h-2.4v1.5h2.4v0.9h-2.4v1.9h2.4v0.9H237.6L237.6,15.9z"/>
					<path class="st17" d="M247.4,11.4c-0.3-0.2-0.6-0.4-0.9-0.5c-0.3-0.1-0.6-0.2-1-0.2c-0.7,0-1.2,0.2-1.6,0.6
						c-0.4,0.4-0.6,1-0.6,1.6c0,0.7,0.2,1.2,0.6,1.6c0.4,0.4,0.9,0.6,1.5,0.6c0.4,0,0.7-0.1,1-0.2c0.3-0.1,0.6-0.3,0.9-0.6v1.1
						c-0.3,0.2-0.5,0.3-0.9,0.4c-0.3,0.1-0.7,0.2-1,0.2c-0.5,0-0.9-0.1-1.3-0.2s-0.7-0.4-1-0.7c-0.3-0.3-0.5-0.6-0.7-1
						s-0.2-0.8-0.2-1.2c0-0.4,0.1-0.9,0.2-1.2s0.4-0.7,0.7-1c0.3-0.3,0.6-0.5,1-0.7c0.4-0.2,0.8-0.2,1.2-0.2c0.4,0,0.7,0,1,0.2
						c0.3,0.1,0.6,0.3,0.9,0.5L247.4,11.4z"/>
				</g>
				<path class="st16" d="M252.2,14.2c-0.1-3.7-1.8-6.6-1.8-6.6l-2.1,0c-3.6-4.9-8.9-4.8-8.9-4.8s-5.1-0.3-8.9,4.8l-2.1,0
					c0,0-1.6,2.9-1.8,6.6c-0.1,3.7,1.3,6.9,2.3,8.2c1,1.3,2.3,3,3.8,3.5h2.5c0,0,1.4,1.6,4.2,1.6c2.8,0,4.2-1.6,4.2-1.6h2.5
					c1.6-0.5,2.8-2.2,3.8-3.5C250.9,21.1,252.3,17.9,252.2,14.2z M243.6,24.1l0-0.9c3.5-1.3,5.3-5,5.3-5l-0.9-0.5
					c-2.3,4-5.6,4.7-5.6,4.7c0.2,1.9-1,3.7-3,3.7h0c-2,0-3.2-1.8-3-3.7c0,0-3.3-0.7-5.6-4.7l-0.9,0.5c0,0,1.8,3.7,5.3,5l0,0.9
					c0,0-7.4-2.7-7.4-11.1c0,0,0.2-3.4,0.9-4.3h2.3c0,0,2.5-4.9,8.3-4.9h0c5.8,0,8.3,4.9,8.3,4.9h2.3c0.6,0.9,0.9,4.3,0.9,4.3
					C251,21.4,243.6,24.1,243.6,24.1z"/>
			</g>
		</g>
	</g>
</g>
<g id="DESIGNED_BY_FREEPIK">
</g>
</svg>
