<?xml version="1.0" encoding="utf-8"?>
<!-- Generator: Adobe Illustrator 24.2.0, SVG Export Plug-In . SVG Version: 6.00 Build 0)  -->
<svg version="1.1" id="Capa_1" xmlns="http://www.w3.org/2000/svg" xmlns:xlink="http://www.w3.org/1999/xlink" x="0px" y="0px"
	 viewBox="0 0 190.54 190.54" style="enable-background:new 0 0 190.54 190.54;" xml:space="preserve">
<style type="text/css">
	.st0{fill:url(#SVGID_1_);}
	.st1{fill:none;stroke:#0C0C0C;stroke-width:3;stroke-linecap:round;stroke-miterlimit:10;}
	.st2{fill:#0C0C0C;}
	.st3{fill:none;stroke:url(#SVGID_2_);stroke-width:2.5178;stroke-linecap:round;stroke-linejoin:round;stroke-miterlimit:10;}
	.st4{fill:none;stroke:url(#SVGID_3_);stroke-width:2.5178;stroke-linecap:round;stroke-linejoin:round;stroke-miterlimit:10;}
	.st5{fill:none;stroke:url(#SVGID_4_);stroke-width:2.5178;stroke-linecap:round;stroke-linejoin:round;stroke-miterlimit:10;}
	.st6{fill:none;stroke:url(#SVGID_5_);stroke-width:2.5178;stroke-linecap:round;stroke-linejoin:round;stroke-miterlimit:10;}
	.st7{fill:none;stroke:url(#SVGID_6_);stroke-width:2.5178;stroke-linecap:round;stroke-linejoin:round;stroke-miterlimit:10;}
	.st8{fill:none;stroke:url(#SVGID_7_);stroke-width:2.5178;stroke-linecap:round;stroke-linejoin:round;stroke-miterlimit:10;}
	.st9{fill:none;stroke:url(#SVGID_8_);stroke-width:2.5178;stroke-linecap:round;stroke-linejoin:round;stroke-miterlimit:10;}
	.st10{fill:none;stroke:url(#SVGID_9_);stroke-width:2.5178;stroke-linecap:round;stroke-linejoin:round;stroke-miterlimit:10;}
</style>
<g>
	<linearGradient id="SVGID_1_" gradientUnits="userSpaceOnUse" x1="142.9104" y1="177.7868" x2="47.6262" y2="12.7497">
		<stop  offset="0" style="stop-color:#CFD600"/>
		<stop  offset="1" style="stop-color:#D5DA24"/>
	</linearGradient>
	<circle class="st0" cx="95.27" cy="95.27" r="95.27"/>
	<path class="st1" d="M172.98,95.27c0,13.44-3.41,26.09-9.42,37.11"/>
	<path class="st1" d="M26.98,132.38c-6.01-11.03-9.42-23.67-9.42-37.11"/>
	<circle class="st2" cx="95.27" cy="95.27" r="59.27"/>
	<g>
		<g>
			<path d="M26.43,71.81c0.67-0.5,1.4-1.34,1.8-2.37c0.6-1.52,0.15-2.73-1.02-3.18c-1.08-0.42-1.93-0.05-3.14,1.27
				c-1.41,1.62-2.84,2.4-4.46,1.76c-1.79-0.71-2.54-2.72-1.66-4.96c0.46-1.18,1.07-1.93,1.57-2.32l1.05,0.89
				c-0.35,0.3-1,0.93-1.41,1.97c-0.62,1.57,0.09,2.54,0.87,2.85c1.08,0.42,1.88-0.07,3.12-1.42c1.52-1.65,2.85-2.27,4.54-1.61
				c1.78,0.7,2.8,2.62,1.73,5.34c-0.44,1.11-1.24,2.2-1.89,2.65L26.43,71.81z"/>
			<path d="M23.91,55.43l-1.87,3.27l-1.18-0.68l4.55-7.96l1.18,0.68l-1.88,3.28l9.57,5.47l-0.8,1.4L23.91,55.43z"/>
			<path d="M28.05,46.62c0.37-0.74,1.02-1.7,1.7-2.56c1.06-1.34,1.99-2.01,3.02-2.18c0.82-0.15,1.7,0.1,2.45,0.7
				c1.28,1.01,1.49,2.49,1.03,3.79l0.04,0.03c0.85-0.54,1.9-0.44,3.09,0.12c1.6,0.75,2.72,1.27,3.26,1.36l-1.03,1.3
				c-0.4-0.06-1.41-0.5-2.83-1.19c-1.57-0.77-2.48-0.65-3.43,0.45l-0.93,1.18l4.21,3.33l-0.99,1.25L28.05,46.62z M33.46,48.87
				l1.01-1.28c1.06-1.34,1-2.77-0.11-3.65c-1.25-0.99-2.52-0.52-3.58,0.8c-0.48,0.6-0.76,1.08-0.87,1.33L33.46,48.87z"/>
			<path d="M45.41,37.16l-3.51,3.29l3.05,3.26l3.92-3.67l0.92,0.98l-5.08,4.76l-8.46-9.04l4.88-4.57l0.92,0.98l-3.72,3.48L41,39.48
				l3.51-3.29L45.41,37.16z"/>
			<path d="M52.24,39l-6.87-10.31l1.45-0.97l6.78,3.01c1.57,0.7,2.89,1.39,4.08,2.12l0.02-0.04c-1.04-1.29-1.91-2.53-2.98-4.13
				l-2.87-4.31l1.25-0.84l6.87,10.31l-1.35,0.9l-6.76-3.05c-1.48-0.67-2.96-1.39-4.22-2.16l-0.04,0.05c0.94,1.25,1.8,2.47,2.94,4.18
				l2.94,4.4L52.24,39z"/>
			<path d="M71.76,27.82c-0.56,0.52-1.69,1.46-3.23,2.12c-1.72,0.74-3.33,0.91-4.9,0.32c-1.38-0.53-2.64-1.79-3.4-3.56
				c-1.44-3.4-0.17-6.88,3.65-8.52c1.32-0.56,2.47-0.72,3.06-0.69l0.16,1.35c-0.72-0.01-1.58,0.1-2.73,0.59
				c-2.77,1.19-3.84,3.68-2.62,6.54c1.24,2.89,3.71,3.85,6.36,2.71c0.96-0.41,1.56-0.83,1.83-1.14l-1.45-3.4l-2.31,0.99l-0.51-1.18
				l3.75-1.61L71.76,27.82z"/>
			<path d="M75.05,16.08l-3.66,0.89l-0.32-1.32l8.91-2.17l0.32,1.32l-3.68,0.9l2.61,10.71l-1.57,0.38L75.05,16.08z"/>
			<path d="M86,12.67l0.39,5.16l5.97-0.45l-0.39-5.16l1.61-0.12l0.93,12.34l-1.61,0.12l-0.43-5.79l-5.97,0.45l0.43,5.79l-1.59,0.12
				l-0.93-12.34L86,12.67z"/>
			<path d="M106.85,14.38l-3.72-0.57l0.2-1.34l9.06,1.38l-0.21,1.34l-3.74-0.57l-1.66,10.9l-1.6-0.24L106.85,14.38z"/>
			<path d="M116.59,15.06c0.82,0.08,1.95,0.34,3,0.67c1.63,0.51,2.59,1.13,3.12,2.03c0.43,0.71,0.51,1.62,0.23,2.53
				c-0.49,1.56-1.79,2.29-3.17,2.32l-0.02,0.05c0.81,0.6,1.09,1.61,0.99,2.93c-0.13,1.77-0.2,3-0.1,3.53l-1.58-0.49
				c-0.09-0.39-0.04-1.49,0.09-3.07c0.16-1.74-0.28-2.55-1.65-3.03l-1.44-0.45l-1.59,5.12l-1.53-0.48L116.59,15.06z M116.44,20.92
				l1.56,0.49c1.63,0.51,2.94-0.06,3.36-1.41c0.48-1.53-0.42-2.54-2.03-3.06c-0.74-0.23-1.28-0.32-1.55-0.33L116.44,20.92z"/>
			<path d="M126.96,27.7l-2.91,2.89l-1.48-0.75l9.35-9.14l1.72,0.87l-1.83,12.95l-1.52-0.77l0.58-4.07L126.96,27.7z M131.15,28.42
				l0.53-3.73c0.12-0.85,0.29-1.58,0.45-2.31l-0.03-0.02c-0.5,0.57-1.02,1.15-1.57,1.72l-2.7,2.65L131.15,28.42z"/>
			<path d="M142.53,26.95l-6.95,10.24l-1.32-0.9l6.95-10.24L142.53,26.95z"/>
			<path d="M138.85,39.43l8.25-9.24l1.3,1.16l-1.21,7.32c-0.28,1.69-0.62,3.14-1.02,4.48l0.04,0.01c0.99-1.33,1.97-2.48,3.25-3.92
				l3.45-3.86l1.12,1l-8.25,9.24l-1.21-1.08l1.25-7.31c0.27-1.6,0.6-3.21,1.03-4.63l-0.05-0.02c-0.97,1.23-1.94,2.36-3.31,3.9
				l-3.52,3.95L138.85,39.43z"/>
			<path d="M158.81,41.77l-9.39,8.06l-1.04-1.21l9.39-8.06L158.81,41.77z"/>
			<path d="M152.02,52.87l10.38-6.76l0.95,1.46l-3.08,6.74c-0.71,1.56-1.42,2.87-2.16,4.06l0.04,0.02c1.31-1.03,2.55-1.88,4.17-2.93
				l4.34-2.83l0.82,1.26l-10.38,6.76l-0.88-1.35l3.12-6.72c0.68-1.48,1.42-2.94,2.2-4.2l-0.05-0.04c-1.26,0.93-2.49,1.77-4.21,2.89
				l-4.43,2.89L152.02,52.87z"/>
			<path d="M162.98,72.53c-0.51-0.56-1.44-1.71-2.08-3.25c-0.72-1.73-0.87-3.34-0.26-4.9c0.54-1.38,1.82-2.62,3.6-3.36
				c3.42-1.4,6.88-0.09,8.47,3.75c0.55,1.32,0.69,2.48,0.66,3.07L172,67.97c0.02-0.72-0.08-1.58-0.56-2.73
				c-1.15-2.78-3.64-3.88-6.5-2.69c-2.9,1.2-3.89,3.66-2.79,6.33c0.4,0.97,0.81,1.57,1.12,1.84l3.41-1.41l-0.96-2.32l1.19-0.49
				l1.56,3.77L162.98,72.53z"/>
		</g>
	</g>
	<g>
		<g>
			<path d="M41.94,158.71c-0.7-0.31-2.01-0.97-3.23-2.12c-1.36-1.29-2.15-2.7-2.24-4.37c-0.07-1.48,0.59-3.13,1.92-4.54
				c2.55-2.67,6.25-2.88,9.26-0.03c1.04,0.99,1.64,1.98,1.85,2.54l-1.18,0.68c-0.28-0.67-0.71-1.41-1.62-2.27
				c-2.19-2.07-4.9-2.06-7.04,0.19c-2.16,2.28-2.06,4.93,0.03,6.91c0.76,0.72,1.38,1.11,1.77,1.23l2.54-2.68l-1.83-1.73l0.88-0.93
				l2.96,2.8L41.94,158.71z"/>
			<path d="M54.51,161.25l-3.98-2.71l-2.51,3.69l4.44,3.02l-0.75,1.11l-5.76-3.92l6.96-10.24l5.53,3.76l-0.75,1.11l-4.21-2.86
				l-2.2,3.24l3.98,2.71L54.51,161.25z"/>
			<path d="M63.26,160.08l-3.39-1.63l0.59-1.22l8.26,3.97l-0.59,1.22l-3.41-1.64l-4.78,9.93l-1.46-0.7L63.26,160.08z"/>
			<path d="M77.94,164.05l-3.15,11.97l-1.55-0.41l3.15-11.97L77.94,164.05z"/>
			<path d="M80.28,177.34l1.53-12.29l1.73,0.22l3.16,6.71c0.73,1.55,1.28,2.94,1.71,4.27l0.04-0.01c0.06-1.66,0.21-3.16,0.45-5.07
				l0.64-5.14l1.5,0.19l-1.53,12.29l-1.6-0.2l-3.12-6.72c-0.69-1.47-1.33-2.98-1.79-4.39l-0.06,0.01c-0.1,1.56-0.25,3.04-0.5,5.08
				l-0.65,5.25L80.28,177.34z"/>
			<path d="M101.22,176.46c0.76,0.36,1.84,0.6,2.94,0.48c1.62-0.19,2.48-1.15,2.33-2.39c-0.13-1.15-0.86-1.73-2.6-2.18
				c-2.09-0.48-3.45-1.38-3.64-3.12c-0.22-1.92,1.21-3.52,3.6-3.79c1.26-0.14,2.21,0.04,2.79,0.29l-0.29,1.34
				c-0.43-0.17-1.29-0.44-2.4-0.32c-1.68,0.19-2.2,1.27-2.11,2.11c0.13,1.15,0.94,1.63,2.72,2.09c2.17,0.57,3.34,1.45,3.55,3.26
				c0.22,1.9-1,3.7-3.9,4.03c-1.19,0.13-2.52-0.06-3.23-0.43L101.22,176.46z"/>
			<path d="M111.84,164.3l1.42,4.98l5.76-1.64l-1.42-4.98l1.56-0.44l3.38,11.91l-1.55,0.44l-1.59-5.58l-5.76,1.64l1.59,5.58
				l-1.54,0.44l-3.38-11.91L111.84,164.3z"/>
			<path d="M128.21,167.56l0.56,4.06l-1.48,0.73l-1.67-12.97l1.73-0.85l9.25,9.26l-1.53,0.75l-2.9-2.91L128.21,167.56z
				 M131.3,164.65l-2.66-2.67c-0.6-0.6-1.09-1.18-1.57-1.75l-0.03,0.02c0.16,0.74,0.31,1.51,0.43,2.29l0.49,3.75L131.3,164.65z"/>
			<path d="M133.61,155.2c0.55-0.55,1.31-1.23,2.36-1.98c1.29-0.92,2.44-1.29,3.42-1.18c0.89,0.08,1.75,0.58,2.39,1.48
				c0.65,0.91,0.89,1.82,0.76,2.71c-0.17,1.22-1.02,2.4-2.29,3.3c-0.39,0.28-0.76,0.52-1.11,0.66l2.88,4.04l-1.3,0.93L133.61,155.2z
				 M138.38,159.13c0.34-0.13,0.72-0.35,1.15-0.66c1.57-1.12,1.98-2.57,0.99-3.96c-0.95-1.33-2.35-1.3-3.79-0.28
				c-0.57,0.41-0.97,0.76-1.15,0.98L138.38,159.13z"/>
			<path d="M151.41,148.76l-3.47,3.34l3.1,3.21l3.86-3.72l0.93,0.97l-5.01,4.83l-8.6-8.92l4.82-4.64l0.93,0.97l-3.66,3.53l2.72,2.82
				l3.47-3.34L151.41,148.76z"/>
		</g>
	</g>
	<g>
		<linearGradient id="SVGID_2_" gradientUnits="userSpaceOnUse" x1="138.412" y1="90.4167" x2="138.412" y2="100.1198">
			<stop  offset="0" style="stop-color:#CFD600"/>
			<stop  offset="1" style="stop-color:#D5DA24"/>
		</linearGradient>
		<path class="st3" d="M134.85,91.68h3.53c1.98,0,3.59,1.61,3.59,3.59l0,0c0,1.98-1.61,3.59-3.59,3.59h-3.51"/>
		<linearGradient id="SVGID_3_" gradientUnits="userSpaceOnUse" x1="95.2797" y1="90.4167" x2="95.2797" y2="92.9345">
			<stop  offset="0" style="stop-color:#CFD600"/>
			<stop  offset="1" style="stop-color:#D5DA24"/>
		</linearGradient>
		<line class="st4" x1="78.58" y1="91.68" x2="111.98" y2="91.68"/>
		<linearGradient id="SVGID_4_" gradientUnits="userSpaceOnUse" x1="52.1532" y1="90.4167" x2="52.1532" y2="100.1198">
			<stop  offset="0" style="stop-color:#CFD600"/>
			<stop  offset="1" style="stop-color:#D5DA24"/>
		</linearGradient>
		<path class="st5" d="M55.67,98.86h-3.51c-1.98,0-3.59-1.61-3.59-3.59l0,0c0-1.98,1.61-3.59,3.59-3.59h3.58"/>
		<linearGradient id="SVGID_5_" gradientUnits="userSpaceOnUse" x1="95.2245" y1="97.602" x2="95.2245" y2="100.1198">
			<stop  offset="0" style="stop-color:#CFD600"/>
			<stop  offset="1" style="stop-color:#D5DA24"/>
		</linearGradient>
		<line class="st6" x1="111.94" y1="98.86" x2="78.51" y2="98.86"/>
		<g>
			<linearGradient id="SVGID_6_" gradientUnits="userSpaceOnUse" x1="117.717" y1="70.2434" x2="117.717" y2="120.2932">
				<stop  offset="0" style="stop-color:#CFD600"/>
				<stop  offset="1" style="stop-color:#D5DA24"/>
			</linearGradient>
			<path class="st7" d="M117.72,119.03L117.72,119.03c-3.14,0-5.69-2.55-5.69-5.69V77.19c0-3.14,2.55-5.69,5.69-5.69l0,0
				c3.14,0,5.69,2.55,5.69,5.69v36.15C123.41,116.49,120.86,119.03,117.72,119.03z"/>
			<linearGradient id="SVGID_7_" gradientUnits="userSpaceOnUse" x1="129.1026" y1="78.9945" x2="129.1026" y2="111.542">
				<stop  offset="0" style="stop-color:#CFD600"/>
				<stop  offset="1" style="stop-color:#D5DA24"/>
			</linearGradient>
			<path class="st8" d="M129.1,110.28L129.1,110.28c-3.14,0-5.69-2.55-5.69-5.69V85.95c0-3.14,2.55-5.69,5.69-5.69l0,0
				c3.14,0,5.69,2.55,5.69,5.69v18.64C134.8,107.73,132.25,110.28,129.1,110.28z"/>
			
				<linearGradient id="SVGID_8_" gradientUnits="userSpaceOnUse" x1="2324.8892" y1="764.6748" x2="2324.8892" y2="814.7246" gradientTransform="matrix(-1 0 0 -1 2397.7087 884.968)">
				<stop  offset="0" style="stop-color:#CFD600"/>
				<stop  offset="1" style="stop-color:#D5DA24"/>
			</linearGradient>
			<path class="st9" d="M72.82,71.5L72.82,71.5c3.14,0,5.69,2.55,5.69,5.69v36.15c0,3.14-2.55,5.69-5.69,5.69h0
				c-3.14,0-5.69-2.55-5.69-5.69V77.19C67.13,74.05,69.68,71.5,72.82,71.5z"/>
			
				<linearGradient id="SVGID_9_" gradientUnits="userSpaceOnUse" x1="2336.2747" y1="773.426" x2="2336.2747" y2="805.9735" gradientTransform="matrix(-1 0 0 -1 2397.7087 884.968)">
				<stop  offset="0" style="stop-color:#CFD600"/>
				<stop  offset="1" style="stop-color:#D5DA24"/>
			</linearGradient>
			<path class="st10" d="M61.43,80.25L61.43,80.25c3.14,0,5.69,2.55,5.69,5.69v18.64c0,3.14-2.55,5.69-5.69,5.69l0,0
				c-3.14,0-5.69-2.55-5.69-5.69V85.95C55.74,82.8,58.29,80.25,61.43,80.25z"/>
		</g>
	</g>
</g>
</svg>
