<?xml version="1.0" encoding="utf-8"?>
<!-- Generator: Adobe Illustrator 24.2.0, SVG Export Plug-In . SVG Version: 6.00 Build 0)  -->
<svg version="1.1" id="Capa_1" xmlns="http://www.w3.org/2000/svg" xmlns:xlink="http://www.w3.org/1999/xlink" x="0px" y="0px"
	 viewBox="0 0 352 96.9" style="enable-background:new 0 0 352 96.9;" xml:space="preserve">
<style type="text/css">
	.st0{fill:#F0E400;}
	.st1{fill:#FFFFFF;stroke:#FFFFFF;stroke-width:1.15;stroke-miterlimit:10;}
	.st2{fill:#FFFFFF;}
</style>
<g>
	<path class="st0" d="M188.4,0C161.7,0,140,21.7,140,48.5s21.7,48.5,48.5,48.5c26.8,0,48.5-21.7,48.5-48.5S215.2,0,188.4,0z
		 M188.4,84c-19.6,0-35.5-15.9-35.5-35.5c0-19.6,15.9-35.5,35.5-35.5c19.6,0,35.5,15.9,35.5,35.5C224,68.1,208.1,84,188.4,84z"/>
	<g>
		<circle cx="188.3" cy="48.5" r="38.9"/>
		<path class="st0" d="M192.7,68.7c0,0,2.7-6-4.2-6c-7.2,0-4.2,6-4.2,6c-0.4,0.7-0.7,1.4-0.7,2.2c0,2.4,2.2,4.4,4.9,4.4
			c2.7,0,4.9-2,4.9-4.4C193.4,70.1,193.1,69.3,192.7,68.7z M190.7,67c-2.3-1.3-4.6,0-4.6,0s-2.3-2.5,2.4-2.5S190.7,67,190.7,67z"/>
		<g>
			<path class="st0" d="M178.2,55.7c0-0.1-0.1-0.1-0.2-0.1l-0.1,0l0.1,0.5l0.1,0c0.1,0,0.1,0,0.1,0c0.1,0,0.1-0.1,0.1-0.1
				L178.2,55.7z"/>
			<path class="st0" d="M183.4,58.6l-0.1,0l0,0.5l0.1,0c0.1,0,0.1,0,0.1,0c0.1,0,0.1-0.1,0.1-0.1l0-0.3
				C183.6,58.7,183.5,58.6,183.4,58.6z"/>
			<path class="st0" d="M194.5,58.8L194.5,58.8c-0.1,0-0.2,0-0.2,0.1l-0.1,1.1c0,0.1,0,0.1,0.1,0.1c0.1,0,0.2,0,0.2-0.1l0.1-1.1
				C194.7,58.8,194.6,58.8,194.5,58.8z"/>
			<path class="st0" d="M190.5,54.8l-0.1,0l0,0.5l0.1,0c0.1,0,0.1,0,0.1,0c0.1,0,0.1,0,0.1-0.1l0-0.3
				C190.6,54.8,190.6,54.8,190.5,54.8z"/>
			<polygon class="st0" points="181.8,59.7 182,59.7 181.9,59.1 			"/>
			<polygon class="st0" points="195.3,55.5 195.1,56 195.3,56.1 			"/>
			<polygon class="st0" points="184.8,59.4 185.1,59.4 184.9,58.9 			"/>
			<path class="st0" d="M179.9,56.7c0.1,0,0.1-0.1,0.1-0.1l-0.2-1.1c0-0.1-0.1-0.1-0.2-0.1h0c-0.1,0-0.1,0.1-0.1,0.1l0.2,1.1
				C179.7,56.7,179.8,56.7,179.9,56.7z"/>
			<polygon class="st0" points="190.3,59.4 190.5,59.4 190.4,58.8 			"/>
			<path class="st0" d="M182.2,56.4c0.1,0,0.1-0.1,0.1-0.1l-0.1-1.1c0-0.1-0.1-0.1-0.2-0.1l-0.1,0l0.1,1.3L182.2,56.4z"/>
			<path class="st0" d="M204.6,57.1L204.6,57.1c-0.1,0-0.2,0-0.2,0.1l-0.3,1.1c0,0.1,0,0.1,0.1,0.1c0.1,0,0.2,0,0.2-0.1l0.3-1.1
				C204.7,57.1,204.7,57.1,204.6,57.1z"/>
			<path class="st0" d="M188.2,52.7c-13.3,0-19.8,3.3-19.8,3.3s2.2,3.9,7,7.5c0,0,7.1-1.6,12.7-1.6c5.6,0,13,1.6,13,1.6
				c6-4.6,7-7.4,7-7.4S201.5,52.7,188.2,52.7z M186.4,54.5l0,0.3l-0.7,0l0,0.5l0.6,0l0,0.3l-0.6,0l0,0.5l0.7,0l0,0.3l-1.2,0
				l-0.1-1.9L186.4,54.5z M184.2,54.6l0,0.3l-0.7,0.1l0,0.5l0.6,0l0,0.3l-0.6,0l0,0.5l0.7-0.1l0,0.3l-1.2,0.1l-0.1-1.9L184.2,54.6z
				 M182.1,54.8c0.4,0,0.6,0.1,0.6,0.3l0.1,1.1c0,0.3-0.2,0.4-0.6,0.5l-0.7,0.1l-0.2-1.9L182.1,54.8z M172.4,58.6
				c-0.4,0.1-0.7,0.1-0.7-0.2l-0.3-1.1c-0.1-0.3,0.1-0.5,0.5-0.6c0.4-0.1,0.7-0.1,0.7,0.2l0.1,0.3l-0.5,0.1l-0.1-0.3
				c0-0.1-0.1-0.1-0.2-0.1l0,0c-0.1,0-0.1,0.1-0.1,0.1l0.3,1.1c0,0.1,0.1,0.1,0.2,0.1c0.1,0,0.1-0.1,0.1-0.1l-0.1-0.3l0.5-0.1
				l0.1,0.3C173,58.3,172.9,58.5,172.4,58.6z M173.3,58.3l-0.5-1.8l1.1-0.3l0.1,0.3l-0.7,0.2l0.1,0.5l0.6-0.1l0.1,0.3l-0.6,0.1
				l0.1,0.5l0.7-0.2l0.1,0.3L173.3,58.3z M175.5,57.7l-0.5-0.8l0.2,0.9l-0.5,0.1l-0.4-1.8l0.5-0.1l0.5,0.8l-0.2-0.9l0.5-0.1l0.4,1.8
				L175.5,57.7z M176.6,57.5l-0.3-1.6l-0.4,0.1l-0.1-0.3l1.3-0.3l0.1,0.3l-0.4,0.1l0.3,1.6L176.6,57.5z M178.4,60.9l-0.5,0.1
				l-0.1-0.8l0,0l-0.7-1l0.5-0.1l0.4,0.7l0.1-0.8l0.5-0.1l-0.3,1.1l0,0L178.4,60.9z M178.6,57.1l-0.5-0.7l0,0l0.1,0.8l-0.5,0.1
				l-0.3-1.9l0.6-0.1c0.4-0.1,0.6,0,0.7,0.3l0,0.3c0,0.2-0.1,0.3-0.3,0.4l0.6,0.8L178.6,57.1z M179.2,56.7l-0.2-1.1
				c0-0.3,0.2-0.4,0.6-0.5c0.4-0.1,0.7,0,0.7,0.3l0.2,1.1c0,0.3-0.2,0.4-0.6,0.5C179.5,57,179.2,56.9,179.2,56.7z M180.4,60.6
				c-0.4,0.1-0.7,0-0.7-0.3l-0.2-1.1c0-0.3,0.2-0.4,0.6-0.5c0.4-0.1,0.7,0,0.7,0.3l0,0.3l-0.5,0.1l0-0.3c0-0.1-0.1-0.1-0.2-0.1l0,0
				c-0.1,0-0.1,0.1-0.1,0.1l0.2,1.1c0,0.1,0.1,0.1,0.2,0.1c0.1,0,0.1-0.1,0.1-0.1l0-0.3l0.5-0.1l0,0.3
				C181,60.4,180.8,60.5,180.4,60.6z M182.3,60.3l-0.1-0.4l-0.4,0l0,0.4l-0.5,0.1l0.1-0.7l0.2-1.2l0.6-0.1l0.4,1.2l0.2,0.7
				L182.3,60.3z M183.7,59.4c-0.1,0-0.2,0-0.3,0l0,0l0.1,0.8l-0.5,0l-0.2-1.9l0.7-0.1c0.4,0,0.6,0.1,0.6,0.4l0,0.3
				C184.1,59.2,184,59.3,183.7,59.4z M185.3,60.1l-0.1-0.4l-0.4,0l-0.1,0.4l-0.5,0l0.1-0.7l0.2-1.2l0.6,0l0.4,1.2l0.2,0.7
				L185.3,60.1z M186.6,60.1c-0.4,0-0.6-0.1-0.7-0.4l0-1.1c0-0.3,0.2-0.4,0.6-0.4c0.4,0,0.6,0.1,0.7,0.4l0,0.3l-0.5,0l0-0.3
				c0-0.1-0.1-0.1-0.1-0.1h0c-0.1,0-0.1,0-0.1,0.1l0,1.1c0,0.1,0.1,0.1,0.1,0.1c0.1,0,0.1,0,0.1-0.1l0-0.3l0.5,0l0,0.3
				C187.2,59.9,187,60.1,186.6,60.1z M187.5,60l0-1.9l0.5,0l0,1.9L187.5,60z M187.6,56.3l-0.3-0.9l0,0.9l-0.5,0l0-1.9l0.5,0l0.3,0.9
				l0-0.9l0.5,0l0,1.9L187.6,56.3z M198.7,55.4l0.5,0.1l-0.3,1.9l-0.5-0.1L198.7,55.4z M194.6,56l0.4-1.2l0.6,0.1l0.2,1.2l0.1,0.7
				l-0.5-0.1l0-0.4l-0.4,0l-0.1,0.4l-0.5-0.1L194.6,56z M188.3,54.4l1.3,0l0,0.3l-0.4,0l0,1.6l-0.5,0l0-1.6l-0.4,0L188.3,54.4z
				 M189.2,60l-0.5,0l0-1.6l-0.4,0l0-0.3l1.3,0l0,0.3l-0.4,0L189.2,60z M190.6,60.1l-0.1-0.4l-0.4,0l-0.1,0.4l-0.5,0l0.2-0.7
				l0.3-1.2l0.6,0l0.3,1.2l0.1,0.7L190.6,60.1z M190.7,56.4l-0.3-0.8l0,0l0,0.8l-0.5,0l0.1-1.9l0.7,0c0.4,0,0.6,0.2,0.6,0.4l0,0.3
				c0,0.2-0.1,0.3-0.3,0.3l0.4,0.9L190.7,56.4z M192.7,59l-0.5,0l0-0.3c0-0.1,0-0.1-0.1-0.1h0c-0.1,0-0.1,0-0.2,0.1l-0.1,1.1
				c0,0.1,0,0.1,0.1,0.1c0.1,0,0.2,0,0.2-0.1l0-0.3l0.5,0l0,0.3c0,0.3-0.2,0.4-0.7,0.4c-0.4,0-0.6-0.2-0.6-0.4l0.1-1.1
				c0-0.3,0.2-0.4,0.7-0.4c0.4,0,0.6,0.2,0.6,0.4L192.7,59z M192.7,54.9l-0.7,0l0,0.5l0.6,0l0,0.3l-0.6,0l0,0.5l0.7,0l0,0.3
				l-1.2-0.1l0.1-1.9l1.2,0.1L192.7,54.9z M193.4,60.3l-0.5,0l0.2-1.9l0.5,0L193.4,60.3z M193.4,55.7l-0.1,0.9l-0.5,0l0.2-1.9l0.5,0
				l0.2,1l0.1-0.9l0.5,0l-0.2,1.9l-0.5,0L193.4,55.7z M195.2,58.9l-0.1,1.1c0,0.3-0.3,0.4-0.7,0.3c-0.4,0-0.6-0.2-0.6-0.5l0.1-1.1
				c0-0.3,0.3-0.4,0.7-0.3C195,58.5,195.2,58.7,195.2,58.9z M196.6,60.6l-0.5-0.1l-0.2-0.9l-0.1,0.9l-0.5-0.1l0.3-1.9l0.5,0.1l0.2,1
				l0.1-0.9l0.5,0.1L196.6,60.6z M196.7,56.1l-0.1,0.9l-0.5-0.1l0.3-1.9l0.5,0.1l0.3,1.3l0.6-1.2l0.5,0.1l-0.3,1.9l-0.5-0.1l0.1-0.9
				l-0.4,0.8l-0.3-0.1L196.7,56.1z M198.2,59.8l0,0.3l-0.6-0.1l-0.1,0.5l0.7,0.1l0,0.3l-1.2-0.2l0.3-1.9l1.2,0.2l0,0.3l-0.7-0.1
				l-0.1,0.5L198.2,59.8z M199.9,59.7l-0.1,0.3l-0.5-0.1l0.1-0.3c0-0.1,0-0.1-0.1-0.1l0,0c-0.1,0-0.1,0-0.2,0.1l0,0.2
				c0,0.1,0.1,0.2,0.3,0.4c0.2,0.2,0.4,0.3,0.3,0.5l0,0.2c-0.1,0.3-0.3,0.4-0.7,0.3c-0.4-0.1-0.6-0.3-0.6-0.5l0.1-0.3l0.5,0.1
				l-0.1,0.3c0,0.1,0,0.1,0.1,0.1c0.1,0,0.2,0,0.2-0.1l0-0.2c0-0.1-0.1-0.2-0.3-0.4c-0.2-0.2-0.4-0.3-0.3-0.5l0-0.2
				c0.1-0.3,0.3-0.4,0.7-0.3C199.8,59.3,199.9,59.4,199.9,59.7z M200.4,56.8l-0.6-0.1l-0.1,0.5l0.7,0.1l-0.1,0.3l-1.1-0.2l0.4-1.8
				l1.1,0.2l-0.1,0.3l-0.7-0.1l-0.1,0.5l0.6,0.1L200.4,56.8z M201.8,58l-0.5-0.1l-0.1-1l-0.2,0.9l-0.5-0.1l0.4-1.8l0.5,0.1l0.1,1
				l0.2-0.9l0.5,0.1L201.8,58z M202.9,58.3l-0.5-0.1l0.4-1.5l-0.4-0.1l0.1-0.3l1.2,0.3l-0.1,0.3l-0.4-0.1L202.9,58.3z M204.8,58.4
				c-0.1,0.3-0.3,0.3-0.7,0.2c-0.4-0.1-0.6-0.3-0.5-0.6l0.3-1.1c0.1-0.3,0.3-0.3,0.7-0.2c0.4,0.1,0.6,0.3,0.5,0.6L204.8,58.4z"/>
		</g>
		<path class="st0" d="M188.3,21.3c-13.1,0-18.7,11.1-18.7,11.1h37.3C206.9,32.4,201.4,21.3,188.3,21.3z"/>
		<g id="FGI_1_">
			<path d="M181.5,31.6h-1.8V24h5.8v1.6h-4v1.5h3.6v1.6h-3.6V31.6L181.5,31.6z"/>
			<path d="M193.4,25.1l-0.4,0.4l-0.7,0.8l0,0c-0.3-0.3-0.6-0.5-0.9-0.6s-0.6-0.2-0.9-0.2c-0.3,0-0.6,0.1-0.8,0.2
				c-0.3,0.1-0.5,0.3-0.7,0.5c-0.2,0.2-0.3,0.4-0.4,0.7c-0.1,0.3-0.2,0.6-0.2,0.9v0c0,0.3,0.1,0.6,0.2,0.9c0.1,0.3,0.3,0.5,0.4,0.7
				c0.2,0.2,0.4,0.4,0.7,0.5s0.5,0.2,0.8,0.2c0.5,0,1-0.1,1.4-0.4v-0.9h-1.7v0v-1.5h3.4v0v3.3l0,0c-0.9,0.8-2,1.2-3.1,1.2
				c-0.5,0-1-0.1-1.5-0.3c-0.5-0.2-0.9-0.4-1.2-0.8c-0.3-0.3-0.6-0.7-0.8-1.2c-0.2-0.4-0.3-0.9-0.3-1.5l0-0.4c0-0.5,0.1-1,0.3-1.5
				c0.2-0.5,0.5-0.9,0.8-1.2c0.4-0.4,0.8-0.6,1.3-0.8c0.5-0.2,1-0.3,1.5-0.3c0.6,0,1.2,0.1,1.6,0.3C192.5,24.3,193,24.7,193.4,25.1z
				"/>
			<path d="M196.8,31.6h-1.8v-7.5V24h1.8L196.8,31.6L196.8,31.6L196.8,31.6z"/>
		</g>
		<g>
			<path class="st1" d="M178.9,38.8c-0.7-0.6-1.5-1.1-2.2-1.4c-0.8-0.3-1.6-0.5-2.5-0.5c-1.7,0-3.1,0.5-4.1,1.6
				c-1.1,1.1-1.6,2.5-1.6,4.2c0,1.7,0.5,3,1.5,4.1c1,1.1,2.3,1.6,3.9,1.6c0.9,0,1.8-0.2,2.6-0.5c0.8-0.3,1.6-0.8,2.4-1.5v2.8
				c-0.7,0.5-1.4,0.8-2.2,1.1c-0.8,0.2-1.7,0.4-2.6,0.4c-1.2,0-2.3-0.2-3.3-0.6c-1-0.4-1.9-1-2.6-1.7c-0.8-0.7-1.3-1.6-1.7-2.6
				c-0.4-1-0.6-2.1-0.6-3.2c0-1.1,0.2-2.2,0.6-3.2c0.4-1,1-1.9,1.8-2.6c0.8-0.8,1.6-1.3,2.6-1.7c1-0.4,2.1-0.6,3.2-0.6
				c0.9,0,1.8,0.1,2.6,0.4c0.8,0.3,1.6,0.7,2.4,1.2L178.9,38.8z"/>
			<path class="st1" d="M183.6,50.5V35.1h8.6v2.1h-6.1v3.9h6.1v2.2h-6.1v5h6.1v2.2L183.6,50.5L183.6,50.5z"/>
			<path class="st1" d="M208.9,38.8c-0.7-0.6-1.5-1.1-2.2-1.4c-0.8-0.3-1.6-0.5-2.5-0.5c-1.7,0-3.1,0.5-4.1,1.6
				c-1.1,1.1-1.6,2.5-1.6,4.2c0,1.7,0.5,3,1.5,4.1c1,1.1,2.3,1.6,3.9,1.6c0.9,0,1.8-0.2,2.6-0.5c0.8-0.3,1.6-0.8,2.4-1.5v2.8
				c-0.7,0.5-1.4,0.8-2.2,1.1c-0.8,0.2-1.7,0.4-2.6,0.4c-1.2,0-2.3-0.2-3.3-0.6s-1.9-1-2.6-1.7c-0.8-0.7-1.3-1.6-1.7-2.6
				s-0.6-2.1-0.6-3.2c0-1.1,0.2-2.2,0.6-3.2c0.4-1,1-1.9,1.8-2.6c0.8-0.8,1.6-1.3,2.6-1.7c1-0.4,2.1-0.6,3.2-0.6
				c0.9,0,1.8,0.1,2.6,0.4s1.6,0.7,2.4,1.2L208.9,38.8z"/>
		</g>
		<path class="st0" d="M221.1,46.1c-0.3-9.4-4.5-16.9-4.5-16.9l-5.5,0.1c-9.2-12.7-22.8-12.4-22.8-12.4s-13.2-0.7-22.8,12.4
			l-5.5-0.1c0,0-4.2,7.5-4.5,16.9c-0.3,9.4,3.3,17.7,5.8,21.1c2.5,3.4,5.8,7.7,9.8,9h6.5c0,0,3.5,4,10.7,4s10.7-4,10.7-4h6.5
			c4.1-1.3,7.3-5.6,9.8-9C217.8,63.8,221.4,55.5,221.1,46.1z M199.1,71.5l0.1-2.4c9-3.4,13.7-12.8,13.7-12.8l-2.4-1.2
			c-5.9,10.4-14.3,12.2-14.3,12.2c0.6,4.8-2.5,9.4-7.6,9.4h-0.1c-5.1,0-8.3-4.6-7.6-9.4c0,0-8.4-1.9-14.3-12.2l-2.4,1.2
			c0,0,4.7,9.4,13.7,12.8l0.1,2.4c0,0-18.9-7-18.9-28.5c0,0,0.6-8.7,2.4-11.1h5.8c0,0,6.4-12.7,21.3-12.7h0.1
			c14.9,0,21.3,12.7,21.3,12.7h5.8C217.3,34.3,218,43,218,43C218,64.5,199.1,71.5,199.1,71.5z"/>
	</g>
	<g>
		<g>
			<path class="st2" d="M5.6,47.6c-0.3,2.4-2,3.4-5.2,2.8c-0.7-4.8-0.5-9.1,0.6-13.1c1.2-4.2,3.2-7.1,6-8.9C7,28.7,7,28.9,7.2,29
				c0.2,0.1,0.3,0.3,0.3,0.4c0.2-0.1,0.1-0.3-0.1-0.5C7.1,28.5,7,28.2,7,28c2.3-1.8,5.4-3,9.3-3.6c4-0.7,7.9-0.6,11.6,0.3
				c0.3,2.5,0.5,3.8,0.5,3.7c-0.3,0-0.7,0.2-1,0.5c-0.3,0.2-0.5,0.3-0.7,0.2c-1.2,1.3-2.2,2.3-3.1,2.8c-1.6,1-3.4,1.5-5.4,1.4
				c-0.2,0.1-0.2,0.1-0.1,0.1c0.1,0.1,0.2,0.1,0.3,0.1c-0.5,0-1.3,0.4-2.2,1.3c-0.9,0.9-2,1.3-3.2,1.2c-0.1,0.4-0.2,0.9-0.1,1.4
				c0.1,0.6,0.3,1,0.6,1.2c-1.7,1-2.6,2.6-2.6,4.9c-0.7,0.2-1.5,1-2.4,2.3C7.6,47.2,6.6,47.7,5.6,47.6z M6.1,52.8
				c-0.4,0-1.2,0.2-2.2,0.6c-0.9,0.3-1.7,0.4-2.5,0.3c-0.3-0.4-0.5-1.2-0.7-2.6c0.2,0,0.7,0,1.3,0c0.6,0,1,0,1.3,0
				c0.9-0.1,1.6-0.5,2.1-1.2c0.3,0.1,0.5,0.5,0.5,1.2C5.9,52.1,6,52.6,6.1,52.8z M6.3,53.5c0,0,0.2,0.7,0.7,2.3
				c-0.3,0.4-0.7,1-1.3,1.9c-0.5,0.9-1,1.5-1.3,1.9C2.9,57.7,2,56,1.6,54.4c0.5,0,1.4-0.2,2.5-0.6C5.1,53.5,5.8,53.4,6.3,53.5z
				 M12.5,62.6c0,0-0.4,0.1-1.4,0.2c-0.5,0.1-0.8,0.3-0.8,0.8c-1.6-0.4-2.6-0.7-3-0.8c-1.1-0.5-1.7-1.1-1.8-2c0-0.6,0.3-1.3,1-2.2
				c0.2-0.2,0.5-0.6,1-1c0.4-0.4,0.7-0.8,0.9-1c0-0.3-0.1-0.7-0.2-1.1c-0.2-0.5-0.3-0.8-0.3-1c0.3-0.1,0.4,0.1,0.5,0.5
				c2.9-3.8,4.3-5.4,4.3-4.7c0.5,1.2,0.5,3.1,0.1,5.8C12.3,59,12.2,61.2,12.5,62.6z M13.2,46.9c0,0.2-0.2,0.5-0.5,0.7
				c-0.3,0.3-0.5,0.5-0.5,0.7c0.3,1.2,0.1,2.3-0.8,3.3c-0.3,0.4-1.2,1.1-2.6,2.1C8,53.7,7.5,53.1,7.2,52c-0.1-0.3-0.2-0.8-0.2-1.5
				c-0.1-0.7-0.1-1.2-0.2-1.5c0.5-0.3,1.8-1.7,4.1-4.2C12.3,45.9,13.1,46.7,13.2,46.9z M12,62.8c0.2,0.1,0.1,0.3-0.1,0.7
				c-0.2,0.4-0.4,0.5-0.7,0.3c0.3,0.3,0.4,0.7,0.3,1.3c-0.3-0.2-0.8-0.4-1.5-0.7c-0.6-0.3-1.1-0.6-1.4-0.7c0.3-0.5,0.8-0.4,1.4,0.2
				c0.5-0.3,0.7-0.6,0.7-0.9c0.4,0.1,0.7,0.1,0.7,0.1C11.7,63.2,11.9,63.1,12,62.8z M12.7,41.1c0.5,0.3,0.6,1,0.4,2.1
				c-0.2,1.3-0.3,2.2-0.2,2.6c-0.2-0.1-0.4-0.2-0.7-0.3c-0.3-0.2-0.5-0.3-0.7-0.4c0-0.2,0.2-0.9,0.5-2.1
				C12.3,42.2,12.5,41.5,12.7,41.1z M17.7,65.6c0.3,0.3,0.6,0.2,0.8-0.2c0.1-0.2,0.1-0.4,0.2-0.7c0.1-0.3,0.2-0.5,0.2-0.5
				c0.6,0.4,1.6,0.6,3.1,0.7c1.4,0.1,2.3,0.4,2.9,0.9c-0.8,0.8-3.4,0.9-7.9,0.5c0,0,0.1-0.1,0.3-0.3c0.1-0.1,0.2-0.2,0.2-0.4
				c-0.6,0.6-1.4,0.7-2.5,0.5c-2.1-0.5-3-0.7-2.9-0.7c-0.2-0.4-0.2-0.8,0-1.2c0.3-0.6,0.4-1.1,0.5-1.3c0.8,0.4,1.8,0.6,3.2,0.6
				c1.5,0,2.4,0.1,3,0.3c0,0.1-0.1,0.3-0.1,0.6c0,0.2-0.1,0.4-0.1,0.6C18.3,65.4,18.1,65.6,17.7,65.6z M13,48.1
				c-0.2-0.1-0.1,0.6,0.2,1.9c-0.2-0.3-0.3-0.6-0.4-1C12.8,48.6,12.8,48.3,13,48.1z M13.2,36.7c0.1-0.2,0.3-0.2,0.8-0.2
				c0.5,0,0.8-0.1,0.8-0.3c0.3,0.1,0.3,0.4-0.1,1.1c-0.5,0.8-0.8,1.3-0.8,1.5C13.6,38.6,13.4,37.9,13.2,36.7z M41.1,50.6
				c0.2,0.1,0.5,0,0.7-0.1c0.2-0.1,0.5-0.2,0.7-0.1c-0.5,3.5-2.1,6.2-4.7,7.9c-0.6-0.4-1.3-0.3-2.2,0.3c-1.2,0.7-2,1.1-2.3,1.2
				c-0.2,0-0.5,0-1,0c-0.5,0-0.9,0-1.1,0c-0.8,0.1-1.2,0.6-1.2,1.5c-0.6-0.7-0.5-1.6,0.2-2.6c1.1-1.8,1.7-2.7,1.7-2.7
				c0,0.2-0.1-0.1-0.1-0.7c0-0.6,0.1-1,0.2-1.4c0.1-0.2,0.1-0.3,0.2-0.3c-0.1,0.1-0.1,0.2-0.2,0.3c-0.3,0.7-0.8,1.7-1.3,3.2
				c-0.4,1.2-1,2.4-1.7,3.5c0-0.2,0.3,0.2,0.9,1c0,0.1-0.2,0.4-0.5,1c0.5-0.1,0.8,0,1.1,0.2c-0.1,0.8-0.2,1.4-0.5,1.8
				c-0.3,0.5-0.9,0.7-1.6,0.6c0.1-0.8,0-1.5-0.2-2.1c0,0,0.1-0.1,0.3-0.1c0.1-0.1,0.2-0.1,0.3-0.1c-0.3,0-0.8,0.2-1.5,0.6
				c-0.6-0.3-2-0.7-4.1-1.2c-1.7-0.4-3-0.9-3.8-1.6c-0.5,0.3-1.3,0.4-2.3,0.4c-0.9-0.1-1.7-0.3-2.2-0.6c-0.1-5.2,0.3-8.5,1-10
				c0.3,1.4,0.5,2,0.7,1.9c1,1.2,2.4,2,4.2,2.3c1.6,0.3,3.2,0.2,4.9-0.3c1.7-0.6,3-1.4,4.1-2.7c1.1-1.4,1.6-3,1.6-4.8
				c0.7,0,1.6,0.3,2.7,0.9c0.9,0.4,1.5,0.5,1.8,0.3c0,0.3,0,0.4-0.2,0.4c0.5-0.1,1.4,0,2.8,0.4c1.8,0.6,2.9,0.9,3.4,1
				c0,0.2-0.1,0.3-0.4,0.4C41.2,50.3,41.1,50.4,41.1,50.6z M24.6,34.3c0-0.1,0.1-0.3,0.2-0.5c0.1-0.2,0.2-0.3,0.2-0.4
				c0.1,0.1,0.2,0.1,0.3,0.3c0.1,0.1,0.2,0.2,0.2,0.3c0.2,0.2,0.3,0.5,0.2,0.9c-0.1,0-0.3-0.1-0.5-0.3
				C25.1,34.4,24.9,34.3,24.6,34.3z M30.3,28.9c0.7,0.2,1.4,0.1,2-0.1c0.6-0.3,0.9-0.9,0.9-1.7c3.2,1.8,5.6,5.1,7.1,9.8
				c-7.7,1.5-11.6,2.3-11.7,2.3c-0.1-0.8-0.6-1.9-1.6-3.3c-0.9-1.2-1.2-2.4-1-3.4c0.4,0.1,0.8-0.2,1.4-1c0.8-1,1.3-1.6,1.7-1.8
				c0.2,0.1,0.3,0.4,0.5,0.7c0.1-0.1,0.2-0.3,0.3-0.7C30,29.3,30.2,29,30.3,28.9z M28.6,27.8c0.3-0.9,0.1-1.7-0.5-2.6
				c0.1-0.3,0.3-0.3,0.6-0.2c0.5,0.2,0.7,0.2,0.8,0.2c-0.3,0.3-0.4,0.8-0.3,1.5C29.4,27.3,29.2,27.7,28.6,27.8z M28.2,65.9
				c0.2-0.1,0.5-0.3,0.9-0.6c0.4-0.2,0.8-0.4,0.9-0.6c0.7-0.5,1-1.2,1-2.1c2.8-1.2,4.7-1.9,5.7-2.1c-0.8,1.2-1.9,2.4-3.4,3.3
				C31.8,64.9,30,65.6,28.2,65.9z M32.7,28c0.2-0.2-0.8,0-2.8,0.7c0.6-0.3,0.9-1.3,0.9-3.1c0.2,0.1,0.5,0.3,1,0.5
				c0.4,0.2,0.7,0.4,0.9,0.5V28z M33.5,49.4c0.4,0.2,0.9,0.1,1.6-0.2c0.2-0.1,0.3-0.2,0.4-0.3c0.1-0.1,0.1-0.1-0.1,0
				c-0.2,0.1-0.5,0.2-1.1,0.2c-0.5,0-0.9,0.1-1.1,0.3c0,0.2,0,0.3,0.1,0.4C33.5,49.8,33.5,49.7,33.5,49.4z"/>
			<path class="st2" d="M46.6,44.5c-0.2-1.2-0.3-3.1-0.3-5.4c0-3.2,0.1-5.1,0-5.7c0.2,0,0.8,0,1.7-0.2c0.6-0.1,0.9,0.1,1,0.7
				c0.2-0.5,0.1-0.8-0.6-0.9c-0.5-0.1-1.1,0-1.9,0.1c-0.2-1-0.3-2.5-0.3-4.5c0-2.7,0.1-4.2,0-4.8c1.6,0,4.5,0,9,0c3.5,0,6.4,0,8.7,0
				c0.2,0.6,0.4,1.3,0.5,2.1c0.1,0.9,0.3,1.6,0.4,2c-1.4,0-2.4,0.5-2.9,1.6c-0.4,0.8-0.6,1.9-0.5,3.5C61.3,33,61,32.9,60.8,33
				c-0.4,0.1-0.7,0.1-1,0.1c0.1,1.3-0.5,2.4-1.9,3.3c-1.8,1.3-2.7,1.9-2.8,2c-0.2,0.2-0.5,0.2-0.8-0.2l-0.7-0.8
				c-0.1,0.1,0,0.4,0.3,0.7c0.4,0.4,0.5,0.8,0.4,1.2c-0.2,0-0.5,0.3-0.9,0.8c-0.3,0.4-0.7,0.4-1.1,0.1c-0.1,0.3,0.1,0.4,0.5,0.5
				c-0.6,0.7-1.6,1.3-2.9,1.8C48.4,43.3,47.3,43.9,46.6,44.5z M51.5,44.5c-2.6,2.9-3.8,4.3-3.7,4.1c0,0.1,0.1,0.2,0.4,0.5
				c0.2,0.2,0.2,0.4,0.1,0.7c-0.3,0.2-0.6,0.6-0.8,1.4c-0.2,0.7-0.6,1.1-1.2,1.2c0-3.7,0-5.9,0-6.5c-0.2,0,0.7-0.4,2.6-1.2
				C50,44.2,50.8,44.1,51.5,44.5z M67.7,62.6c-1.5-0.4-2.5-0.2-3.1,0.5c0.1-0.1-0.3,0.8-1.3,2.6c0-0.1-0.4-0.3-1.2-0.7
				c-0.7-0.4-1-0.9-1-1.5c-0.5,0.5-0.4,1,0.2,1.5c0.4,0.3,0.6,0.5,0.6,0.5c0.2,0.2,0.2,0.4,0,0.6c-0.1,0-0.5-0.2-1-0.4
				c-0.4-0.2-0.8-0.3-1.1-0.4c-0.9-0.3-1.7-0.2-2.5,0.1c-0.9-0.9-1.9-1.5-3.1-1.7c-0.8-0.2-2.2-0.2-4-0.2c0.2,0.1,0.6,0.3,1.2,0.5
				c0.6,0.2,1,0.4,1.2,0.5c-0.1-0.4,0.2-0.6,0.8-0.7c0.6,0,1,0.1,1.5,0.4c0,0.2-0.1,0.4-0.4,0.8c-0.2,0.3-0.2,0.7-0.1,1.1
				c0.1-0.1,0.3-0.3,0.4-0.8c0.1-0.4,0.3-0.6,0.6-0.7c0.4,0.4,1.1,0.7,2,0.7c1.9,0.2,3.1,0.4,3.4,0.7c-1.9,0.2-4.3,0.3-7.3,0.2
				c-3.4-0.1-5.8-0.1-7,0c0-1.5,0.1-2.5,0.2-2.9c-0.1,0,0.4-0.1,1.5-0.1c0.7-0.1,1.3,0.1,1.7,0.4c-0.3-0.4-0.8-0.7-1.5-0.7
				c0.1,0-0.5,0-2,0.1c0-1.1,0-2.8,0-5.1c0-2,0-3.6,0-4.8c0.8-0.2,1.5-1,2-2.3c0.4-1.1,0.5-2.1,0.4-2.8c1.4-2.7,4.5-4.4,9.1-5.1
				c-0.1,0.5,0,0.8,0.4,0.9l1.1,0.3c0.2-0.1,0.2-0.2,0.1-0.3c-0.1-0.1-0.2-0.1-0.5-0.2c-0.6-0.2-0.9-0.4-0.8-0.7
				c0.1-0.5,0.6-1,1.5-1.6c0.8-0.5,1.1-1.2,1-2c2.1,0,5.6,0,10.4,0c4.5,0,7.7,0,9.8,0v8.9h-8.9c0-0.8,0.1-1.2,0.5-1.2
				c-0.2-0.3-0.4-0.2-0.6,0.2c-0.1,0.1-0.1,0.3-0.2,0.5c-0.1,0.3-0.2,0.4-0.2,0.4c-0.5-0.1-2.4,0-5.6,0.1c-2.3,0.1-3.9-0.2-4.7-0.8
				c0,0-0.2,0.2-0.4,0.5c-0.2,0.2-0.5,0.3-0.8,0.2v8c1.1,0.2,2.8,0.3,5,0.3c2.9-0.1,4.7-0.1,5.3,0c0.5,1.3,0.5,2.5-0.1,3.5
				C69.7,61,68.9,61.8,67.7,62.6z M52.4,51.5c0.2,0.4,0.4,0.5,0.4,0.4c0-0.2-0.1-0.4-0.4-0.6c-0.7,0.1-1.4-0.2-2.1-0.8
				c-0.7-0.6-1.1-0.9-1.4-0.9c-0.1-0.1,0.4,0.3,1.5,1.2C51.1,51.3,51.7,51.5,52.4,51.5z M53,36c-0.4-0.1-1-0.4-1.8-0.8
				c-0.7-0.4-1.2-0.6-1.4-0.6C51.3,35.7,52.4,36.2,53,36z M56.1,56c0.2,0,0.2,0,0.2-0.1c-0.1-0.1-0.2-0.1-0.4-0.1
				c-0.9-0.5-1.4-1.2-1.5-2.2c-0.1,0-0.3,0-0.5-0.1c-0.1-0.1-0.2,0-0.2,0.1c0.2,0.1,0.5,0.6,1.1,1.4C55.1,55.6,55.6,55.9,56.1,56z
				 M58.1,42.3c-1.4,0.9-2.6,1.2-3.4,1c0.8-1,1.2-1.4,1.2-1.5l-0.2-0.3c-0.1-0.2-0.1-0.3-0.1-0.4c0,0,0,0.1,0.1,0.2
				c0.1,0.1,0.3,0.2,0.4,0.2c0.4,0.1,0.4-0.2,0.2-0.9C57.3,40.8,57.8,41.4,58.1,42.3z M56.6,56.3c0.1,0,0.4,0.3,0.8,0.7
				c0.3,0.3,0.5,0.4,0.6,0.3c0,0-0.1-0.2-0.3-0.4c-0.2-0.2-0.3-0.3-0.4-0.4C57.1,56.1,56.9,56,56.6,56.3z M59.6,37.9
				c0.4,0.5,0.5,1.2,0.3,2.2c-0.2,1.1-0.8,1.7-1.8,1.6c0-0.3-0.4-0.8-1.2-1.4c0,0,0.6-0.3,1.8-0.8C59.4,39.2,59.7,38.7,59.6,37.9z
				 M58.6,39.4c-0.1,0-0.2,0-0.3,0c-0.1,0-0.2,0-0.3,0c-0.2,0-0.3,0.1-0.4,0.2c-0.3-0.2-0.2-0.4,0.2-0.7c0.5-0.3,0.8-0.6,0.8-0.7
				c0.3,0.1,0.5,0.2,0.4,0.5c0,0.1-0.1,0.2-0.2,0.4C58.7,39.2,58.6,39.3,58.6,39.4z M61.1,63.1c0.2-0.7,0.2-1.2,0-1.7
				c-0.2-0.3-0.6-0.7-1.1-1.1c-0.7-0.5-1.1-0.9-1.3-1c-0.4-0.4-0.7-0.9-0.7-1.5c-0.2,0.8-0.1,1.5,0.2,2.2c0.8-0.3,1.5,0,2.2,0.9
				C60.8,61.6,61.1,62.3,61.1,63.1z M61.1,47.1c0.1,0.2,0.2,0.1,0.1-0.2c0-0.3-0.1-0.6-0.2-1c-0.4-1.1-0.7-1.5-1.1-1.2
				C60.6,45.7,61,46.5,61.1,47.1z M63.3,32.1c-0.1-0.3,0-0.7,0.2-1.3c0.2-0.5,0.2-0.8,0-0.9c0.6-0.5,1.2-0.8,2-0.7
				c0,0-0.2,0.6-0.6,1.9C64.6,31.9,64.1,32.2,63.3,32.1z M65.8,29.5c1.5,0.2,3-0.3,4.5-1.5c1.2-1,2.3-2.3,3.1-3.9
				c0.9-0.2,2.4-0.3,4.3-0.3c2.6,0.1,4.1,0.1,4.6,0v9.2h-19c0.8-0.4,1.4-0.9,1.8-1.4C65.3,31.2,65.6,30.4,65.8,29.5z M67,63.1
				c-0.4,0.2-0.8,0.7-1.4,1.4c-0.5,0.7-1,1.1-1.5,1.2c0-0.2,0.2-0.6,0.5-1.2c0.2-0.4,0.2-0.8,0-1.2c0.3-0.2,0.7-0.4,1.1-0.4
				C66.2,62.8,66.7,62.8,67,63.1z M66.7,26.6c-0.3,0-0.5,0.3-0.6,0.7C66,27.8,65.8,28,65.5,28c-0.2-0.5-0.4-1.1-0.5-2
				c-0.2-1.1-0.4-1.8-0.5-2.1h3.9c0,0,0.1,0.5,0.4,1.5c0.2,0.7,0.1,1-0.4,1.2c0,0.2,0,0.4-0.1,0.4c-0.1,0-0.2-0.1-0.4-0.2
				C67.5,26.4,67.1,26.4,66.7,26.6z M72.6,65c0.1,0.2,0.4,0.4,1,0.6c0.5,0.1,0.8,0.4,0.7,0.9c-0.5,0-1.9,0-4.4,0
				c-1.8,0-3.2,0-4.1-0.3c1.6-1.8,2.4-2.8,2.4-2.9c1-1,2.2-1.7,3.4-2c0,0.1,0.2,0.6,0.6,1.5c0.2,0.6,0.6,0.9,1.1,1
				c0,0.2-0.2,0.4-0.3,0.6C72.8,64.7,72.7,64.9,72.6,65z M68.2,27.3c-0.1,0.4-0.7,0.6-1.7,0.7c-0.1-0.6,0.1-1,0.6-1.1
				C67.4,26.8,67.8,26.9,68.2,27.3z M70.2,26.3c-0.4-0.2-0.7-1.1-1-2.4h2.5c-0.1,0.1-0.4,0.5-0.9,1C70.3,25.3,70.1,25.8,70.2,26.3z
				 M71.2,59.2c-0.4,0-0.5-0.3-0.5-0.9c0-1.1,0-1.6,0-1.5h2.5c-0.1,0.4-0.4,0.9-1,1.2C71.6,58.4,71.2,58.8,71.2,59.2z M72.4,61.1
				c-0.2,0-0.5-0.1-0.8-0.3c-0.2-0.2-0.5-0.1-0.7,0.1c0-0.6,0.5-1.2,1.4-2.1c1.2-1.1,1.8-1.8,2-2.1H83v3.4c-0.8-0.1-1.6,0-2.3,0.3
				c-0.1,0-0.4,0.2-0.8,0.4c-0.3,0.2-0.6,0.3-0.8,0.4c-1.2-0.9-2.3-1.5-3.4-1.7C74.1,59.3,73.1,59.8,72.4,61.1z M83,63.8
				c-2.1,1.3-3.2,2-3.4,2.1c-1.5,0.6-3.1,0.8-5,0.6c-0.1-0.9-0.5-1.2-1.5-1.2c0-0.4,0.1-0.6,0.4-0.8c0.1-0.1,0.2-0.1,0.4-0.2
				c0.2-0.1,0.3-0.2,0.4-0.2c-1.4-0.7-2.1-1.6-2.2-2.7c0.4,0,1-0.3,1.7-1c0.6-0.5,1.3-0.7,2.2-0.4c0.6,1.2,1.6,1.8,2.9,1.6
				c0.4,0,1-0.2,1.9-0.4c0.9-0.3,1.6-0.4,2.1-0.5V63.8z M82.7,64.3c0.3,0.2,0.4,0.6,0.2,1.1c-0.1,0.4-0.2,0.7-0.5,1h-3
				c0.2-0.4,0.7-0.8,1.6-1.1C82,65,82.5,64.7,82.7,64.3z"/>
			<path class="st2" d="M92.4,47.6c-0.3,2.4-2,3.4-5.2,2.8c-0.7-4.8-0.5-9.1,0.6-13.1c1.2-4.2,3.2-7.1,6-8.9c-0.1,0.2,0,0.4,0.2,0.5
				c0.2,0.1,0.3,0.3,0.3,0.4c0.2-0.1,0.1-0.3-0.1-0.5c-0.3-0.3-0.4-0.6-0.4-0.9c2.3-1.8,5.4-3,9.3-3.6c4-0.7,7.9-0.6,11.6,0.3
				c0.3,2.5,0.5,3.8,0.5,3.7c-0.3,0-0.7,0.2-1,0.5c-0.3,0.2-0.5,0.3-0.7,0.2c-1.2,1.3-2.2,2.3-3.1,2.8c-1.6,1-3.4,1.5-5.4,1.4
				c-0.2,0.1-0.2,0.1-0.1,0.1c0.1,0.1,0.2,0.1,0.3,0.1c-0.5,0-1.3,0.4-2.2,1.3c-0.9,0.9-2,1.3-3.2,1.2c-0.1,0.4-0.2,0.9-0.1,1.4
				c0.1,0.6,0.3,1,0.6,1.2c-1.7,1-2.6,2.6-2.6,4.9c-0.7,0.2-1.5,1-2.4,2.3C94.3,47.2,93.4,47.7,92.4,47.6z M92.9,52.8
				c-0.4,0-1.2,0.2-2.2,0.6c-0.9,0.3-1.7,0.4-2.5,0.3c-0.3-0.4-0.5-1.2-0.7-2.6c0.2,0,0.7,0,1.3,0c0.6,0,1,0,1.3,0
				c0.9-0.1,1.6-0.5,2.1-1.2c0.3,0.1,0.5,0.5,0.5,1.2C92.7,52.1,92.8,52.6,92.9,52.8z M93.1,53.5c0,0,0.2,0.7,0.7,2.3
				c-0.3,0.4-0.7,1-1.3,1.9c-0.5,0.9-1,1.5-1.3,1.9c-1.5-1.8-2.4-3.6-2.9-5.1c0.5,0,1.4-0.2,2.5-0.6C91.9,53.5,92.6,53.4,93.1,53.5z
				 M99.3,62.6c0,0-0.4,0.1-1.4,0.2c-0.5,0.1-0.8,0.3-0.8,0.8c-1.6-0.4-2.6-0.7-3-0.8c-1.1-0.5-1.7-1.1-1.8-2c0-0.6,0.3-1.3,1-2.2
				c0.2-0.2,0.5-0.6,1-1c0.4-0.4,0.7-0.8,0.9-1c0-0.3-0.1-0.7-0.2-1.1c-0.2-0.5-0.3-0.8-0.3-1c0.3-0.1,0.4,0.1,0.5,0.5
				c2.9-3.8,4.3-5.4,4.3-4.7c0.5,1.2,0.5,3.1,0.1,5.8C99.1,59,99,61.2,99.3,62.6z M100,46.9c0,0.2-0.2,0.5-0.5,0.7
				c-0.3,0.3-0.5,0.5-0.5,0.7c0.3,1.2,0.1,2.3-0.8,3.3c-0.3,0.4-1.2,1.1-2.6,2.1c-0.9-0.1-1.5-0.6-1.7-1.7c-0.1-0.3-0.2-0.8-0.2-1.5
				c-0.1-0.7-0.1-1.2-0.2-1.5c0.5-0.3,1.8-1.7,4.1-4.2C99.1,45.9,99.9,46.7,100,46.9z M98.8,62.8c0.2,0.1,0.1,0.3-0.1,0.7
				c-0.2,0.4-0.4,0.5-0.7,0.3c0.3,0.3,0.4,0.7,0.3,1.3c-0.3-0.2-0.8-0.4-1.5-0.7c-0.6-0.3-1.1-0.6-1.4-0.7c0.3-0.5,0.8-0.4,1.4,0.2
				c0.5-0.3,0.7-0.6,0.7-0.9c0.4,0.1,0.7,0.1,0.7,0.1C98.5,63.2,98.6,63.1,98.8,62.8z M99.5,41.1c0.5,0.3,0.6,1,0.4,2.1
				c-0.2,1.3-0.3,2.2-0.2,2.6c-0.2-0.1-0.4-0.2-0.7-0.3c-0.3-0.2-0.5-0.3-0.7-0.4c0-0.2,0.2-0.9,0.5-2.1
				C99.1,42.2,99.3,41.5,99.5,41.1z M104.5,65.6c0.3,0.3,0.6,0.2,0.8-0.2c0.1-0.2,0.1-0.4,0.2-0.7c0.1-0.3,0.2-0.5,0.2-0.5
				c0.6,0.4,1.6,0.6,3.1,0.7c1.4,0.1,2.3,0.4,2.9,0.9c-0.8,0.8-3.4,0.9-7.9,0.5c0,0,0.1-0.1,0.3-0.3c0.1-0.1,0.2-0.2,0.2-0.4
				c-0.6,0.6-1.4,0.7-2.5,0.5c-2.1-0.5-3-0.7-2.9-0.7c-0.2-0.4-0.2-0.8,0-1.2c0.3-0.6,0.4-1.1,0.5-1.3c0.8,0.4,1.8,0.6,3.2,0.6
				c1.5,0,2.4,0.1,3,0.3c0,0.1-0.1,0.3-0.1,0.6c0,0.2-0.1,0.4-0.1,0.6C105.1,65.4,104.9,65.6,104.5,65.6z M99.8,48.1
				c-0.2-0.1-0.1,0.6,0.2,1.9c-0.2-0.3-0.3-0.6-0.4-1C99.6,48.6,99.6,48.3,99.8,48.1z M100,36.7c0.1-0.2,0.3-0.2,0.8-0.2
				c0.5,0,0.8-0.1,0.8-0.3c0.3,0.1,0.3,0.4-0.1,1.1c-0.5,0.8-0.8,1.3-0.8,1.5C100.4,38.6,100.1,37.9,100,36.7z M127.9,50.6
				c0.2,0.1,0.5,0,0.7-0.1c0.2-0.1,0.5-0.2,0.7-0.1c-0.5,3.5-2.1,6.2-4.7,7.9c-0.6-0.4-1.3-0.3-2.2,0.3c-1.2,0.7-2,1.1-2.3,1.2
				c-0.2,0-0.5,0-1,0c-0.5,0-0.9,0-1.1,0c-0.8,0.1-1.2,0.6-1.2,1.5c-0.6-0.7-0.5-1.6,0.2-2.6c1.1-1.8,1.7-2.7,1.7-2.7
				c0,0.2-0.1-0.1-0.1-0.7c0-0.6,0.1-1,0.2-1.4c0.1-0.2,0.1-0.3,0.2-0.3c-0.1,0.1-0.1,0.2-0.2,0.3c-0.3,0.7-0.8,1.7-1.3,3.2
				c-0.4,1.2-1,2.4-1.7,3.5c0-0.2,0.3,0.2,0.9,1c0,0.1-0.2,0.4-0.5,1c0.5-0.1,0.8,0,1.1,0.2c-0.1,0.8-0.2,1.4-0.5,1.8
				c-0.3,0.5-0.9,0.7-1.6,0.6c0.1-0.8,0-1.5-0.2-2.1c0,0,0.1-0.1,0.3-0.1c0.1-0.1,0.2-0.1,0.3-0.1c-0.3,0-0.8,0.2-1.5,0.6
				c-0.6-0.3-2-0.7-4.1-1.2c-1.7-0.4-3-0.9-3.8-1.6c-0.5,0.3-1.3,0.4-2.3,0.4c-0.9-0.1-1.7-0.3-2.2-0.6c-0.1-5.2,0.3-8.5,1-10
				c0.3,1.4,0.5,2,0.7,1.9c1,1.2,2.4,2,4.2,2.3c1.6,0.3,3.2,0.2,4.9-0.3c1.7-0.6,3-1.4,4.1-2.7c1.1-1.4,1.6-3,1.6-4.8
				c0.7,0,1.6,0.3,2.7,0.9c0.9,0.4,1.5,0.5,1.8,0.3c0,0.3,0,0.4-0.2,0.4c0.5-0.1,1.4,0,2.8,0.4c1.8,0.6,2.9,0.9,3.4,1
				c0,0.2-0.1,0.3-0.4,0.4C128,50.3,127.9,50.4,127.9,50.6z M111.4,34.3c0-0.1,0.1-0.3,0.2-0.5c0.1-0.2,0.2-0.3,0.2-0.4
				c0.1,0.1,0.2,0.1,0.3,0.3c0.1,0.1,0.2,0.2,0.2,0.3c0.2,0.2,0.3,0.5,0.2,0.9c-0.1,0-0.3-0.1-0.5-0.3
				C111.8,34.4,111.6,34.3,111.4,34.3z M117.1,28.9c0.7,0.2,1.4,0.1,2-0.1c0.6-0.3,0.9-0.9,0.9-1.7c3.2,1.8,5.6,5.1,7.1,9.8
				c-7.7,1.5-11.6,2.3-11.7,2.3c-0.1-0.8-0.6-1.9-1.6-3.3c-0.9-1.2-1.2-2.4-1-3.4c0.4,0.1,0.8-0.2,1.4-1c0.8-1,1.3-1.6,1.7-1.8
				c0.2,0.1,0.3,0.4,0.5,0.7c0.1-0.1,0.2-0.3,0.3-0.7C116.8,29.3,116.9,29,117.1,28.9z M115.4,27.8c0.3-0.9,0.1-1.7-0.5-2.6
				c0.1-0.3,0.3-0.3,0.6-0.2c0.5,0.2,0.7,0.2,0.8,0.2c-0.3,0.3-0.4,0.8-0.3,1.5C116.1,27.3,115.9,27.7,115.4,27.8z M115,65.9
				c0.2-0.1,0.5-0.3,0.9-0.6c0.4-0.2,0.8-0.4,0.9-0.6c0.7-0.5,1-1.2,1-2.1c2.8-1.2,4.7-1.9,5.7-2.1c-0.8,1.2-1.9,2.4-3.4,3.3
				C118.5,64.9,116.8,65.6,115,65.9z M119.5,28c0.2-0.2-0.8,0-2.8,0.7c0.6-0.3,0.9-1.3,0.9-3.1c0.2,0.1,0.5,0.3,1,0.5
				c0.4,0.2,0.7,0.4,0.9,0.5V28z M120.3,49.4c0.4,0.2,0.9,0.1,1.6-0.2c0.2-0.1,0.3-0.2,0.4-0.3c0.1-0.1,0.1-0.1-0.1,0
				c-0.2,0.1-0.5,0.2-1.1,0.2c-0.5,0-0.9,0.1-1.1,0.3c0,0.2,0,0.3,0.1,0.4C120.2,49.8,120.3,49.7,120.3,49.4z"/>
		</g>
	</g>
	<g>
		<g>
			<path class="st2" d="M251.6,43.3c-0.8,0.1-1.6,0.4-2.5,1c-1.1,0.6-1.8,1-2.3,1.2c-0.7-1.4-0.6-3,0.4-4.7c1.5-2.5,2.2-3.9,2.3-4.2
				c0.1-0.5,0-1.2-0.4-2.2c-0.4-1-0.5-1.7-0.5-2.1c0.1-1,0.7-1.7,1.8-2.2c0.8-0.4,1.9-0.7,3-0.7c-0.7-0.8-1.3-2.5-1.8-5.1
				c2.8,0,6.7,0,11.7,0c5.7,0,9.7,0,12.2,0c-0.3,0.3-0.7,0.7-1.1,1.2c-0.5,0.6-0.9,1.1-1.1,1.3c-0.9,0.9-2,1.4-3.4,1.5
				c0.4-0.9,0.6-1.5,0.5-1.7c-0.1,0.1-0.2,0.3-0.4,0.4c-0.2,0.2-0.4,0.4-0.4,0.4c-0.3,0.3-0.5,0.7-0.5,1.1c-1-0.4-1.9-0.4-2.9,0
				c-1,0.8-1.5,2.3-1.3,4.3c-0.7-0.5-1.6-0.6-2.7-0.3c-1.4,0.3-2.5,0.4-3.4,0.1c-0.5,0.9-1.7,1.7-3.6,2.3c-2.2,0.7-3.6,1.3-4.1,1.8
				c0,0.9,0.1,2,0.3,3.4C251.5,41.5,251.6,42.5,251.6,43.3z M247.1,56.2c0.4,0.4,0.4,1.1,0.2,2.1c-0.4,1.6-0.5,2.3-0.5,2.2
				C246.2,59.5,246.3,58,247.1,56.2z M246.8,50c-0.5-1.1-0.5-2.1,0.1-3c0.6-0.9,1.4-1.3,2.6-1.3c-1.4,1.6-1.7,2.8-0.8,3.6
				c-0.1,0.2-0.4,0.3-1,0.2C247.1,49.5,246.8,49.7,246.8,50z M246.8,40.1c-0.2-1.9-0.3-4.5-0.3-7.8c0.1-4.5,0.1-7.2,0-8.1h4.5
				c0.2,0.5,0.4,1.3,0.6,2.3c0.2,0.9,0.4,1.7,0.7,2.2c-1.7,0.2-3.1,1.2-4.2,3.2c0.6,1.4,0.8,2.9,0.5,4.3
				C248.4,37.3,247.8,38.6,246.8,40.1z M246.8,55.7c-0.2-0.2-0.3-0.6-0.3-1.3c0.1-0.9,0.1-1.4,0-1.6c0.5,0.3,0.7,0.8,0.7,1.4
				C247.2,54.6,247.1,55.1,246.8,55.7z M279.2,40.9c0,0.5,0,2,0,4.5c0,1.8-0.1,3.2-0.3,4.2c-12.2,0-18.1,0-17.8,0
				c-0.1,0.4,0,2.6,0.1,6.5c0.1,2.7-0.3,4.4-1.1,5.3c-0.7-0.4-1.6-0.3-2.6,0.2c-1.3,0.8-2.1,1.2-2.4,1.2c0.1,0-0.6,0-2.2-0.1
				c-0.8,0-1.4,0.2-1.8,0.8c0-0.1-0.2,0.7-0.5,2.4c-0.5-0.2-1-0.2-1.4,0.1c-0.5,0.3-1,0.5-1.5,0.4c0,0.2-0.4-0.2-1.1-1
				c0.1-2.4,1.1-7.5,2.9-15.2c0.2-0.1,1.4-0.9,3.5-2.5c1.4-1,2.8-1.4,4.1-1.4c2-2.4,3.1-4.4,3.4-6c1.3,0.4,3.3,0.6,6,0.5
				c3.8-0.1,6.1-0.1,6.7-0.1c0.4,0,0.6,0.1,0.4,0.3c-0.3,0.4-0.4,0.6-0.4,0.7c0.3-0.6,1.1-0.9,2.4-1c0.4,0,0.9,0,1.7,0
				C278.3,40.9,278.8,40.9,279.2,40.9z M248.7,50c0.3,2-0.1,3.2-1.3,3.8c0-0.2-0.2-0.6-0.3-1.1c-0.2-0.5-0.3-0.9-0.4-1.1
				c-0.2-0.8,0-1.5,0.7-1.9c0.2,0,0.4,0,0.6,0.1C248.2,50,248.4,50.1,248.7,50z M249.2,49.5c-0.4-1.3-0.2-2.4,0.4-3.1
				c0.5-0.6,1.4-1,2.7-1.4c2.4-0.7,3.6-1.1,3.4-1c1.3-0.5,2.2-1.1,2.7-1.9c0.1-0.1,0-0.2-0.1-0.5c0-0.1,0.1,0,0.4,0.3
				c0,0,0.1-0.4,0.3-1.2c0.3,0.2,0.6,0,0.8-0.5c0.3-0.7,0.5-1.1,0.8-1.2c0.1,0.9-0.3,2-1.1,3.2c-1,1.5-1.6,2.7-1.8,3.5
				c-3.6,0.5-6,1.8-7.2,3.8H249.2z M260.6,61.3c0.5,0.3,0.7,1.1,0.6,2.3c-0.1,1.7-0.1,2.7-0.1,2.9h-10.6c1.3-0.4,2.2-0.7,2.8-1.1
				c0.9-0.6,1.4-1.3,1.5-2.3C258.2,62,260.1,61.3,260.6,61.3z M254.3,63.2c-0.3,1.6-1.4,2.5-3.2,2.6c0-0.3,0.2-0.7,0.5-1.2
				c0.2-0.3,0.2-0.7,0-1.2c0.3-0.2,0.7-0.4,1.2-0.5C253.5,62.9,253.9,63,254.3,63.2z M258.8,32.9c0.3,0,0.7,0,1.1,0.1
				c0.4,0.1,0.9,0.1,1.2,0.1c-0.1,0.3-0.2,0.9-0.2,1.8c0,0.9-0.1,1.6-0.3,2.1c-0.3-0.2-0.5-0.2-0.8-0.2c0.2,0.3,0.3,0.4,0.2,0.5
				c0,0-0.1,0.1-0.3,0.1c-0.5,0-0.7,0.2-0.7,0.6c-0.1,0-0.3-0.1-0.4-0.3c-0.1-0.1-0.3-0.2-0.4-0.2c-0.3,0.3-0.6,0.7-0.9,1.1
				c-0.4,0.5-0.6,0.8-0.7,0.9c-0.5,0.6-1.1,1-1.9,1.1c0.3,0.8,0,1.3-0.8,1.6c-1,0.3-1.5,0.6-1.6,0.8c-0.9-2.6-1.1-4.9-0.5-6.7
				c1.3-0.1,2.5-0.4,3.8-1C257.2,34.6,258.2,33.8,258.8,32.9z M258.2,24.7c-0.1,0.5-0.5,1.1-1.1,1.7c-0.7,0.7-1.1,1.1-1.3,1.5
				c0.3-0.1,0.8-0.5,1.4-1c0.5-0.5,1-0.8,1.6-0.9C258.8,25.2,258.6,24.8,258.2,24.7z M262,33.4c0.1-0.4,0.4-0.7,1.1-0.7
				c0.6,0,1.1,0.1,1.3,0.5C264.3,33.2,263.5,33.3,262,33.4z M266.7,32.2c-0.3-0.2-0.4-0.4-0.3-0.6c0.2-0.4,0.2-0.7,0-1.1
				c0.2,0,0.4-0.2,0.6-0.5c0.2-0.3,0.5-0.5,1-0.5c0.3,0.5,0.3,1-0.1,1.5C267.8,31.2,267.4,31.6,266.7,32.2z M268.1,33.4
				c-0.3,0.1-0.5,0-0.8-0.1c-0.3-0.1-0.5-0.2-0.8-0.1c0-0.4,0.3-0.7,0.7-1c0.6-0.4,0.9-0.7,0.9-0.7c0.3,0.3,0.5,0.7,0.5,1.5
				C268.3,33.1,268.1,33.2,268.1,33.4z M268.6,47.8c0,0.7,0.1,0.7,0.4,0.2c0.3-0.5,0.5-0.9,0.6-1.4c-0.4-0.1-0.6,0.1-0.6,0.6
				C269.1,47.7,268.9,47.9,268.6,47.8z M282.1,24.3c0.5,3,0.5,6.1,0,9.1h-12.2c-0.5-0.8-0.8-1.2-0.7-1.1c-0.3-0.5-0.3-0.9-0.1-1.1
				c1.9,0.5,2.6,0.9,2.1,1c-1.4-0.7-2.2-1.4-2.4-2.2c0.4-0.2,1.2-0.4,2.4-0.6c1.1-0.2,1.9-0.4,2.4-0.7c0.5-0.3,1.1-0.8,1.6-1.6
				c0.8-1.1,1.3-1.7,1.4-1.9C277.9,24,279.8,23.6,282.1,24.3z M276.3,33.2c0.2-0.1,0.5-0.4,1.1-0.9c0.6-0.5,1-0.8,1.3-1.1
				c0.9-0.9,1.2-1.7,0.8-2.3c-0.6,1.8-1.9,3.2-3.7,4.1c-0.3-0.4-1-0.7-2-0.7c-0.8-0.1-1.5,0-2,0.2c2.3,0.2,3.7,0.4,4,0.5
				C276,33,276.1,33.1,276.3,33.2z"/>
			<path class="st2" d="M289,38.8c-0.3,0.2-0.6,0.6-0.9,1c-0.2,0.3-0.5,0.5-0.8,0.5c1-5.5,4.1-10,9.3-13.2c0.1,0.2,0.1,0.3,0,0.5
				c-0.1,0.1-0.3,0.2-0.6,0.5c-0.6,0.5-0.7,0.9-0.4,1.3c0.4-1.3,1.5-2.3,3.3-3.1c1.7-0.8,3.6-1.2,5.8-1.2c-1.8,3.4-4.6,5-8.4,4.6
				c-0.4,0.3-0.8,0.9-0.9,2c-0.1,0.5-0.2,0.7-0.2,0.9c-0.1,0.2-0.4,0.2-0.7,0.1c0.9,0.5,0.9,1.2,0.2,2.1c-0.7,0.8-1.4,1.2-2.1,1.1
				c0,0-0.1,0.2-0.3,0.4c-0.2,0.3-0.3,0.5-0.4,0.7c-0.4,0.5-0.8,0.7-1.2,0.5l0.2,0.4h-0.1c-0.1,0-0.2,0-0.3,0
				C290.3,38,289.7,38.3,289,38.8z M293.4,50.2c-0.3,0.5-1.1,1.2-2.3,2.1c-1.3,1-2,1.6-2.3,2c-0.5-0.2-0.9-0.7-1.1-1.6
				c-0.1-0.3-0.1-0.6-0.2-1.1c-0.1-0.6-0.1-1-0.2-1.2c0.3-0.1,0.6-0.3,0.7-0.7c1.4,0.3,2.7,0,3.9-0.9c2-1.5,3-2.3,3.1-2.3
				c0.4,0.6,0.4,1.3,0.1,2.3C294.7,49.8,294.1,50.3,293.4,50.2z M299,29.6c2.3,0.5,4.2,0.1,5.7-1.3c0.5-0.5,1.1-1.2,1.8-2.1
				c0.9-1.3,1.5-2,1.6-2.1c4.4-0.5,8.2-0.2,11.5,0.7c3.5,1,6,2.8,7.6,5.2c-0.5,0-1,0.2-1.5,0.9c-0.7,0.8-1.2,1.2-1.5,1.4
				c-0.9-0.6-1.7-0.7-2.4-0.5c-0.5,0.2-1.1,0.6-1.7,1.3c-0.2,0.2-0.4,0.5-0.7,0.9c-0.3,0.4-0.6,0.7-0.8,0.9
				c-0.6,0.7-1.2,1.1-1.8,1.3c-1.3-2.5-4-3.6-7.9-3.4c-0.5-0.9-0.6-1.9-0.3-3c0.2-0.6,0.6-1.4,1.2-2.5c-0.8,0.3-1.4,1-1.8,2.1
				c-0.4,1.1-0.4,2.3,0.2,3.4c-0.3,0.2-0.6,0.4-0.9,0.4c-0.1,0-0.3,0-0.5-0.1c-0.3,0-0.5-0.1-0.7-0.1c-3.4,3.6-5.3,6.5-5.6,8.9
				c-0.2,0.1-0.4,0.3-0.7,0.5c-0.2,0.8-0.2,1.4-0.1,1.8c-0.1,0-0.2,0-0.4,0.1c-0.2,0.1-0.3,0.1-0.3,0.1c-0.3,0-0.5,0-0.7-0.2
				c0.3-0.5,0.6-0.9,0.8-1.2c-0.4,0.3-0.9,0.5-1.4,0.5c-0.4,0.9-1.3,1.8-2.8,2.6c-1.6,0.9-2.7,1.7-3.1,2.4c-0.2,0-0.5,0-0.9,0
				c-0.4,0-0.8,0-0.9,0c-0.7,0-1.1,0.3-1.1,0.7c-0.3-0.5-0.5-1.4-0.5-2.6c0-2.2,0-3.2,0-3.1c0.6-0.1,1.2-0.3,1.8-0.8
				c0.6-0.6,0.9-1.1,0.8-1.7c0.1-0.2,0.1-0.2,0.2-0.1c0,0.1,0.1,0.2,0.1,0.3c0.6-1,1.6-2.2,3.2-3.7c1.7-1.6,2.9-3,3.7-4.3
				C297.8,31.6,298.1,30.4,299,29.6z M308.9,42.7c2.3,0.1,5.3,0.1,8.9,0.1c4.5-0.1,8-0.1,10.6-0.1v17.6c-3.2,1.9-5.6,3.1-7.1,3.8
				c-3.1,1.4-6.1,2.2-9,2.4c-5.6,0.4-10.4-0.1-14.2-1.6c-4.2-1.6-7-4.2-8.5-7.7c0.2-0.2,0.5-0.7,0.8-1.4c0.3-0.6,0.7-1,1-1.3
				c0,0,0.2-0.1,0.6-0.1c0.4-0.1,0.6-0.1,0.6-0.1c0,0,0.1-0.3,0.3-0.7c0.2-0.5,0.3-0.8,0.4-0.9c0,0,0.2-0.2,0.5-0.5
				c0.4-0.4,0.8-0.7,1.1-1c1-0.9,1.5-1.6,1.6-2c0.1-0.3,0.1-0.7,0.2-1.3c0-0.6,0.1-1.1,0.2-1.3c0.3-0.9,1.1-1.3,2.4-1
				c-0.1,4.2,0.9,7.4,2.8,9.5c2.1,2.3,5.2,3.2,9.3,2.6c0,2.5,0.9,4.4,2.8,5.7c0,0.2-0.2,0.3-0.4,0.5c-0.2,0.2-0.3,0.4-0.3,0.7
				c0.1,0.2,0.4,0.4,0.9,0.6c0.4,0.2,0.7,0.4,0.7,0.8c0.3-0.2,0.2-0.5-0.1-0.8c-0.3-0.3-0.7-0.4-1.1-0.4c0-0.3,0.1-0.5,0.3-0.7
				c0.3-0.2,0.5-0.4,0.6-0.4c-2.1-1.5-3.2-3.6-3.3-6.2c1.4-0.2,3.3-1,5.6-2.3v-3.7h-5.3c0.3-0.6,0.6-1.4,0.8-2.2
				c0.3-1.1,0.5-1.9,0.6-2.3c-0.4,0.4-0.7,1.1-0.9,2.3c-0.3,1.1-0.6,1.9-1,2.3h-2.5V42.7z M325.4,32.2c0.7,0.2,1.3,0.8,1.7,1.6
				c0,0,0.3,0.8,0.9,2.5c-7.8,1.3-11.9,2-12.3,2.1c1.6-1.2,3.1-2.7,4.6-4.5c0.4,0,0.8,0.1,1.2,0.4c0.5,0.3,0.8,0.5,1.1,0.5
				C322.6,34.8,323.5,33.9,325.4,32.2z"/>
			<path class="st2" d="M343.7,60c0.2,1.2-0.3,2.3-1.6,3.4c-1.5,1.2-2.3,2.3-2.4,3.2h-3.4c0-0.5,0.1-1.1,0-2c0-1-0.1-1.7-0.1-2
				c0-1.5,0.4-2.5,1-3c0.5,0.6,0.2-3.5-1-12.3c2.3,0.3,3.5,0.5,3.7,0.5c0.7,0.5,1.2,1.8,1.6,3.7c0.4,2,0.8,3.3,1.3,3.9
				c0,0,0,0,0,0.1c0,0,0,0.1,0,0.1c0.1,0.1,0.2,0.2,0.4,0.2c0.4,0.3,1,0.5,1.6,0.5c0.1-0.3-0.1-0.5-0.5-0.5c-0.1,0-0.3,0-0.6,0
				c-0.2,0-0.4,0-0.5,0c-0.1-0.1-0.3-0.2-0.4-0.4c-0.1-0.3-0.5-1.8-1.1-4.5c-0.4-1.7-1-2.9-2.1-3.5c-1.4,0.1-2.5-0.1-3.4-0.7
				c0-1.6,0-9.1,0-22.4h4.2c0,0.5-0.2,1.2-0.4,2.3c-0.2,1-0.4,1.8-0.4,2.4c-0.2,1.8,0.1,3.3,1,4.5c-0.2,1.1-1.4,1.7-3.7,1.7
				c0.8,0.4,1.7,0.4,2.5,0c0.8-0.4,1.2-1,1.4-1.7c-0.7-1.2-1-3-1-5.5c0.3,0.1,0.9,0.2,1.8,0.1c0.7-0.1,1.4,0.1,1.8,0.6
				c0,0.2,0,0.5-0.2,0.8c-0.1,0.3-0.2,0.6-0.1,0.9c-0.1-0.1,1,1,3.1,3.3c1.3,1.4,1.8,2.8,1.5,4.4c0,0.4-0.4,0.8-1,1.2
				c-0.5,0.4-0.7,1-0.5,1.7c0.4-1.2,1-1.9,2-2.2c-0.1,1,0.3,2.4,1.2,4.3c0.1,1.4,0,3.5-0.4,6.2c-0.3,2.3-0.3,4.3,0.1,5.8
				c-0.3,0.2-0.7,0.3-1.4,0.4c-0.7,0.1-1.1,0.2-1.4,0.4c-0.1,0.1-0.2,0.7-0.2,1.9C345.1,58.6,344.2,59.4,343.7,60z M351.2,56.6
				c-0.2,0.6-0.5,1.3-0.9,2.1c-0.5,1-0.8,1.7-0.9,2c-0.6,1.6-0.7,3.2-0.2,4.8l-0.7,1h-5.2c0.2-0.3,1-1.1,2.5-2.5
				c1.1-1,1.5-2.1,1.4-3.5c1.1-0.8,1.7-1.3,2-1.5c0.7-0.7,1.1-1.4,1.2-2.3H351.2z M344.3,25.5c-0.2-0.1-0.4-0.2-0.5-0.4
				c-0.1-0.2,0-0.4,0.1-0.6c0.3-0.5,0.7-0.7,1.4-0.4c-0.1,0.1-0.2,0.1-0.3,0.3c-0.1,0.1-0.2,0.2-0.3,0.3
				C344.4,24.9,344.3,25.2,344.3,25.5z M345.3,24.6c0.6,0.3,1.6,0.3,2.8-0.1c1.4-0.5,2.7-0.6,3.8-0.3c-0.1,0.8-0.1,2.5,0,5.2
				c0.1,2.3,0,4.1-0.5,5.4c-0.3-0.6-1.2-1.6-2.8-3.1c-1.3-1.1-1.9-2.4-1.9-3.9c-0.2-0.4-0.6-0.7-1.1-1c-0.2-0.1-0.4-0.1-0.8-0.2
				c-0.3-0.1-0.6-0.2-0.8-0.3c0.1-0.2,0.3-0.5,0.6-0.9C345,25,345.2,24.7,345.3,24.6z M347,24.6c-0.3,0.1-0.5,0-0.8-0.1
				c-0.3-0.1-0.5-0.2-0.7-0.2c0-0.2,0.3-0.3,0.9-0.3C347,24,347.2,24.2,347,24.6z M351.4,57.9c0.5,1.7,0.6,3.4,0.2,5.2
				c-0.4,1.9-1.1,3-2.2,3.4C350,63.2,350.6,60.3,351.4,57.9z M351.4,34.9c0.4-0.1,0.6,0.2,0.5,0.7c-0.1,0.8-0.1,1.2-0.1,1.2
				C351.6,36.7,351.4,36.1,351.4,34.9z M351.7,64.8c0.2,0,0.3,0.4,0.3,1c0,0.6-0.2,0.9-0.6,0.7C351.4,65.6,351.5,65,351.7,64.8z"/>
		</g>
	</g>
</g>
</svg>
